RecursiveSans-CasualBold.ufo
<glyph name="exclam" format="1">
  <advance width="350"/>
  <unicode hex="0021"/>
  <outline>
    <contour>
      <point x="229" y="281" type="line"/>
      <point x="243" y="349"/>
      <point x="256" y="451"/>
      <point x="256" y="519" type="curve"/>
      <point x="256" y="646" type="line" smooth="yes"/>
      <point x="256" y="691"/>
      <point x="207" y="710"/>
      <point x="142" y="710" type="curve" smooth="yes"/>
      <point x="119" y="710"/>
      <point x="103" y="709"/>
      <point x="82" y="704" type="curve"/>
      <point x="91" y="668"/>
      <point x="94" y="631"/>
      <point x="94" y="592" type="curve" smooth="yes"/>
      <point x="94" y="524" type="line"/>
      <point x="94" y="437"/>
      <point x="106" y="330"/>
      <point x="127" y="309" type="curve" smooth="yes"/>
      <point x="144" y="292"/>
      <point x="174" y="281"/>
      <point x="216" y="281" type="curve"/>
    </contour>
    <contour>
      <point x="272" y="-3" type="curve"/>
      <point x="272" y="123" type="line" smooth="yes"/>
      <point x="272" y="181"/>
      <point x="211" y="192"/>
      <point x="152" y="192" type="curve" smooth="yes"/>
      <point x="129" y="192"/>
      <point x="101" y="190"/>
      <point x="78" y="185" type="curve"/>
      <point x="78" y="59" type="line" smooth="yes"/>
      <point x="78" y="1"/>
      <point x="139" y="-10"/>
      <point x="198" y="-10" type="curve" smooth="yes"/>
      <point x="221" y="-10"/>
      <point x="249" y="-7"/>
    </contour>
  </outline>
</glyph>
<glyph name="ampersand" format="1">
  <advance width="600"/>
  <unicode hex="0026"/>
  <outline>
    <contour>
      <point x="327" y="710" type="curve" smooth="yes"/>
      <point x="195" y="710"/>
      <point x="105" y="610"/>
      <point x="105" y="527" type="curve" smooth="yes"/>
      <point x="105" y="491"/>
      <point x="132" y="463"/>
      <point x="208" y="463" type="curve"/>
      <point x="205" y="474"/>
      <point x="204" y="480"/>
      <point x="204" y="495" type="curve" smooth="yes"/>
      <point x="204" y="547"/>
      <point x="257" y="577"/>
      <point x="330" y="577" type="curve" smooth="yes"/>
      <point x="393" y="577"/>
      <point x="441" y="566"/>
      <point x="481" y="540" type="curve"/>
      <point x="485" y="540" type="line"/>
      <point x="492" y="556"/>
      <point x="496" y="576"/>
      <point x="496" y="598" type="curve"/>
      <point x="496" y="631"/>
      <point x="485" y="658"/>
      <point x="466" y="677" type="curve" smooth="yes"/>
      <point x="445" y="698"/>
      <point x="400" y="710"/>
    </contour>
    <contour>
      <point x="262" y="383" type="curve" smooth="yes"/>
      <point x="238" y="434"/>
      <point x="227" y="484"/>
      <point x="227" y="521" type="curve" smooth="yes"/>
      <point x="227" y="562"/>
      <point x="233" y="588"/>
      <point x="249" y="617" type="curve"/>
      <point x="181" y="633"/>
      <point x="105" y="595"/>
      <point x="105" y="527" type="curve" smooth="yes"/>
      <point x="105" y="524" type="line" smooth="yes"/>
      <point x="105" y="470"/>
      <point x="125" y="406"/>
      <point x="163" y="335" type="curve" smooth="yes"/>
      <point x="209" y="251"/>
      <point x="274" y="163"/>
      <point x="340" y="97" type="curve" smooth="yes"/>
      <point x="428" y="9"/>
      <point x="481" y="-10"/>
      <point x="517" y="-10" type="curve" smooth="yes"/>
      <point x="521" y="-10" type="line" smooth="yes"/>
      <point x="562" y="-10"/>
      <point x="581" y="14"/>
      <point x="581" y="81" type="curve" smooth="yes"/>
      <point x="581" y="105"/>
      <point x="579" y="125"/>
      <point x="575" y="142" type="curve"/>
      <point x="571" y="142" type="line"/>
      <point x="557" y="134"/>
      <point x="545" y="131"/>
      <point x="524" y="131" type="curve" smooth="yes"/>
      <point x="486" y="131"/>
      <point x="436" y="155"/>
      <point x="396" y="195" type="curve" smooth="yes"/>
      <point x="344" y="246"/>
      <point x="292" y="319"/>
    </contour>
    <contour>
      <point x="205" y="-9" type="curve" smooth="yes"/>
      <point x="293" y="-9"/>
      <point x="343" y="28"/>
      <point x="373" y="84" type="curve" smooth="yes"/>
      <point x="383" y="107"/>
      <point x="365" y="144"/>
      <point x="333" y="159" type="curve"/>
      <point x="303" y="122"/>
      <point x="276" y="108"/>
      <point x="227" y="108" type="curve" smooth="yes"/>
      <point x="177" y="108"/>
      <point x="151" y="148"/>
      <point x="151" y="197" type="curve" smooth="yes"/>
      <point x="151" y="200" type="line" smooth="yes"/>
      <point x="151" y="255"/>
      <point x="184" y="280"/>
      <point x="242" y="287" type="curve"/>
      <point x="229" y="321"/>
      <point x="208" y="366"/>
      <point x="182" y="362" type="curve" smooth="yes"/>
      <point x="106" y="348"/>
      <point x="27" y="287"/>
      <point x="27" y="172" type="curve" smooth="yes"/>
      <point x="27" y="167" type="line" smooth="yes"/>
      <point x="27" y="63"/>
      <point x="98" y="-9"/>
    </contour>
    <contour>
      <point x="455" y="418" type="curve" smooth="yes"/>
      <point x="439" y="418"/>
      <point x="427" y="416"/>
      <point x="418" y="414" type="curve"/>
      <point x="418" y="404"/>
      <point x="418" y="393"/>
      <point x="418" y="382" type="curve" smooth="yes"/>
      <point x="418" y="314"/>
      <point x="404" y="258"/>
      <point x="368" y="205" type="curve" smooth="yes"/>
      <point x="353" y="180"/>
      <point x="381" y="150"/>
      <point x="428" y="148" type="curve"/>
      <point x="509" y="211"/>
      <point x="554" y="286"/>
      <point x="554" y="348" type="curve" smooth="yes"/>
      <point x="554" y="359" type="line" smooth="yes"/>
      <point x="554" y="394"/>
      <point x="513" y="418"/>
    </contour>
  </outline>
</glyph>
<glyph name="quotesingle" format="1">
  <advance width="250"/>
  <unicode hex="0027"/>
  <outline>
    <contour>
      <point x="193" y="445" type="curve"/>
      <point x="206" y="644" type="line" smooth="yes"/>
      <point x="212" y="720"/>
      <point x="174" y="754"/>
      <point x="87" y="754" type="curve" smooth="yes"/>
      <point x="72" y="754"/>
      <point x="58" y="753"/>
      <point x="43" y="750" type="curve"/>
      <point x="52" y="725"/>
      <point x="56" y="700"/>
      <point x="60" y="647" type="curve" smooth="yes"/>
      <point x="70" y="497" type="line" smooth="yes"/>
      <point x="73" y="455"/>
      <point x="93" y="440"/>
      <point x="143" y="440" type="curve" smooth="yes"/>
      <point x="163" y="440"/>
      <point x="180" y="441"/>
    </contour>
  </outline>
</glyph>
<glyph name="parenleft" format="1">
  <advance width="400"/>
  <unicode hex="0028"/>
  <outline>
    <contour>
      <point x="218" y="728" type="curve" smooth="yes"/>
      <point x="120" y="630"/>
      <point x="66" y="474"/>
      <point x="66" y="303" type="curve" smooth="yes"/>
      <point x="66" y="295" type="line" smooth="yes"/>
      <point x="66" y="123"/>
      <point x="121" y="-33"/>
      <point x="218" y="-131" type="curve" smooth="yes"/>
      <point x="247" y="-160"/>
      <point x="274" y="-173"/>
      <point x="305" y="-173" type="curve" smooth="yes"/>
      <point x="354" y="-173"/>
      <point x="390" y="-159"/>
      <point x="415" y="-140" type="curve"/>
      <point x="415" y="-136" type="line"/>
      <point x="281" y="-30"/>
      <point x="215" y="128"/>
      <point x="215" y="295" type="curve" smooth="yes"/>
      <point x="215" y="303" type="line" smooth="yes"/>
      <point x="215" y="468"/>
      <point x="280" y="628"/>
      <point x="415" y="733" type="curve"/>
      <point x="415" y="737" type="line"/>
      <point x="390" y="756"/>
      <point x="354" y="770"/>
      <point x="305" y="770" type="curve" smooth="yes"/>
      <point x="274" y="770"/>
      <point x="247" y="757"/>
    </contour>
  </outline>
</glyph>
<glyph name="parenright" format="1">
  <advance width="400"/>
  <unicode hex="0029"/>
  <outline>
    <contour>
      <point x="182" y="-127" type="curve" smooth="yes"/>
      <point x="280" y="-29"/>
      <point x="334" y="127"/>
      <point x="334" y="298" type="curve" smooth="yes"/>
      <point x="334" y="306" type="line" smooth="yes"/>
      <point x="334" y="477"/>
      <point x="279" y="634"/>
      <point x="182" y="731" type="curve" smooth="yes"/>
      <point x="153" y="760"/>
      <point x="126" y="773"/>
      <point x="95" y="773" type="curve" smooth="yes"/>
      <point x="46" y="773"/>
      <point x="10" y="759"/>
      <point x="-15" y="741" type="curve"/>
      <point x="-15" y="737" type="line"/>
      <point x="119" y="631"/>
      <point x="185" y="473"/>
      <point x="185" y="306" type="curve" smooth="yes"/>
      <point x="185" y="298" type="line" smooth="yes"/>
      <point x="185" y="132"/>
      <point x="120" y="-27"/>
      <point x="-15" y="-133" type="curve"/>
      <point x="-15" y="-137" type="line"/>
      <point x="10" y="-155"/>
      <point x="46" y="-170"/>
      <point x="95" y="-170" type="curve" smooth="yes"/>
      <point x="126" y="-170"/>
      <point x="153" y="-156"/>
    </contour>
  </outline>
</glyph>
<glyph name="asterisk" format="1">
  <advance width="500"/>
  <unicode hex="002A"/>
  <outline>
    <contour>
      <point x="191" y="763" type="curve"/>
      <point x="199" y="741"/>
      <point x="206" y="720"/>
      <point x="210" y="689" type="curve" smooth="yes"/>
      <point x="229" y="555" type="line"/>
      <point x="202" y="427" type="line" smooth="yes"/>
      <point x="190" y="373"/>
      <point x="211" y="341"/>
      <point x="266" y="341" type="curve"/>
      <point x="280" y="341"/>
      <point x="295" y="343"/>
      <point x="308" y="348" type="curve"/>
      <point x="301" y="370"/>
      <point x="294" y="390"/>
      <point x="289" y="421" type="curve" smooth="yes"/>
      <point x="271" y="555" type="line"/>
      <point x="298" y="684" type="line" smooth="yes"/>
      <point x="310" y="739"/>
      <point x="288" y="770"/>
      <point x="233" y="770" type="curve" smooth="yes"/>
      <point x="220" y="770"/>
      <point x="205" y="768"/>
    </contour>
    <contour>
      <point x="408" y="701" type="curve"/>
      <point x="235" y="575" type="line"/>
      <point x="81" y="514" type="line" smooth="yes"/>
      <point x="55" y="503"/>
      <point x="51" y="474"/>
      <point x="70" y="442" type="curve"/>
      <point x="76" y="430"/>
      <point x="84" y="421"/>
      <point x="93" y="413" type="curve"/>
      <point x="264" y="540" type="line"/>
      <point x="419" y="602" type="line" smooth="yes"/>
      <point x="446" y="612"/>
      <point x="449" y="639"/>
      <point x="430" y="673" type="curve" smooth="yes"/>
      <point x="425" y="682"/>
      <point x="419" y="690"/>
    </contour>
    <contour>
      <point x="454" y="493" type="curve"/>
      <point x="264" y="575" type="line"/>
      <point x="128" y="681" type="line" smooth="yes"/>
      <point x="104" y="699"/>
      <point x="80" y="688"/>
      <point x="60" y="656" type="curve"/>
      <point x="53" y="645"/>
      <point x="50" y="632"/>
      <point x="46" y="621" type="curve"/>
      <point x="235" y="540" type="line"/>
      <point x="372" y="433" type="line" smooth="yes"/>
      <point x="396" y="415"/>
      <point x="421" y="426"/>
      <point x="440" y="459" type="curve"/>
      <point x="445" y="468"/>
      <point x="450" y="478"/>
    </contour>
  </outline>
</glyph>
<glyph name="plus" format="1">
  <advance width="600"/>
  <unicode hex="002B"/>
  <outline>
    <contour>
      <point x="51" y="366" type="line"/>
      <point x="51" y="361"/>
      <point x="51" y="355"/>
      <point x="51" y="349" type="curve" smooth="yes"/>
      <point x="51" y="297"/>
      <point x="58" y="267"/>
      <point x="74" y="251" type="curve" smooth="yes"/>
      <point x="87" y="238"/>
      <point x="105" y="234"/>
      <point x="143" y="234" type="curve"/>
      <point x="552" y="234" type="line"/>
      <point x="555" y="251"/>
      <point x="557" y="271"/>
      <point x="557" y="287" type="curve" smooth="yes"/>
      <point x="557" y="346"/>
      <point x="542" y="366"/>
      <point x="493" y="366" type="curve"/>
    </contour>
    <contour>
      <point x="367" y="57" type="curve"/>
      <point x="367" y="439" type="line" smooth="yes"/>
      <point x="367" y="487"/>
      <point x="361" y="504"/>
      <point x="342" y="522" type="curve" smooth="yes"/>
      <point x="323" y="542"/>
      <point x="288" y="548"/>
      <point x="259" y="548" type="curve" smooth="yes"/>
      <point x="247" y="548"/>
      <point x="234" y="547"/>
      <point x="222" y="544" type="curve"/>
      <point x="231" y="510"/>
      <point x="234" y="482"/>
      <point x="234" y="442" type="curve" smooth="yes"/>
      <point x="234" y="107" type="line" smooth="yes"/>
      <point x="234" y="59"/>
      <point x="266" y="52"/>
      <point x="317" y="52" type="curve" smooth="yes"/>
      <point x="337" y="52"/>
      <point x="354" y="53"/>
    </contour>
  </outline>
</glyph>
<glyph name="comma" format="1">
  <advance width="350"/>
  <unicode hex="002C"/>
  <outline>
    <contour>
      <point x="150" y="-198" type="curve" smooth="yes"/>
      <point x="170" y="-198"/>
      <point x="181" y="-195"/>
      <point x="191" y="-184" type="curve"/>
      <point x="247" y="-128"/>
      <point x="299" y="-7"/>
      <point x="299" y="85" type="curve"/>
      <point x="299" y="136"/>
      <point x="265" y="155"/>
      <point x="188" y="155" type="curve" smooth="yes"/>
      <point x="165" y="155"/>
      <point x="149" y="153"/>
      <point x="123" y="148" type="curve"/>
      <point x="123" y="14"/>
      <point x="101" y="-85"/>
      <point x="51" y="-167" type="curve"/>
      <point x="79" y="-189"/>
      <point x="107" y="-198"/>
    </contour>
  </outline>
</glyph>
<glyph name="zero" format="1">
  <advance width="600"/>
  <unicode hex="0030"/>
  <outline>
    <contour>
      <point x="306" y="720" type="curve" smooth="yes"/>
      <point x="159" y="720"/>
      <point x="54" y="576"/>
      <point x="54" y="353" type="curve" smooth="yes"/>
      <point x="54" y="311" type="line" smooth="yes"/>
      <point x="54" y="105"/>
      <point x="156" y="-20"/>
      <point x="294" y="-20" type="curve"/>
      <point x="338" y="-20"/>
      <point x="365" y="15"/>
      <point x="365" y="63" type="curve"/>
      <point x="238" y="66"/>
      <point x="187" y="143"/>
      <point x="187" y="283" type="curve" smooth="yes"/>
      <point x="187" y="328" type="line" smooth="yes"/>
      <point x="187" y="476"/>
      <point x="233" y="588"/>
      <point x="321" y="588" type="curve" smooth="yes"/>
      <point x="374" y="588"/>
      <point x="388" y="583"/>
      <point x="417" y="567" type="curve"/>
      <point x="456" y="612"/>
      <point x="385" y="720"/>
    </contour>
    <contour>
      <point x="294" y="-20" type="curve" smooth="yes"/>
      <point x="441" y="-20"/>
      <point x="546" y="107"/>
      <point x="546" y="306" type="curve" smooth="yes"/>
      <point x="546" y="348" type="line" smooth="yes"/>
      <point x="546" y="579"/>
      <point x="452" y="720"/>
      <point x="306" y="720" type="curve"/>
      <point x="262" y="720"/>
      <point x="235" y="685"/>
      <point x="235" y="637" type="curve"/>
      <point x="362" y="634"/>
      <point x="413" y="546"/>
      <point x="413" y="376" type="curve" smooth="yes"/>
      <point x="413" y="331" type="line" smooth="yes"/>
      <point x="413" y="207"/>
      <point x="367" y="112"/>
      <point x="279" y="112" type="curve" smooth="yes"/>
      <point x="226" y="112"/>
      <point x="212" y="117"/>
      <point x="183" y="133" type="curve"/>
      <point x="144" y="88"/>
      <point x="216" y="-20"/>
    </contour>
  </outline>
</glyph>
<glyph name="one" format="1">
  <advance width="600"/>
  <unicode hex="0031"/>
  <outline>
    <contour>
      <point x="401" y="68" type="curve"/>
      <point x="401" y="269"/>
      <point x="401" y="469"/>
      <point x="401" y="669" type="curve" smooth="yes"/>
      <point x="401" y="700"/>
      <point x="351" y="710"/>
      <point x="291" y="710" type="curve" smooth="yes"/>
      <point x="269" y="710" type="line"/>
      <point x="269" y="544"/>
      <point x="269" y="375"/>
      <point x="269" y="209" type="curve" smooth="yes"/>
      <point x="269" y="101"/>
      <point x="330" y="68"/>
    </contour>
    <contour>
      <point x="80" y="133" type="line"/>
      <point x="79" y="127"/>
      <point x="79" y="121"/>
      <point x="79" y="114" type="curve" smooth="yes"/>
      <point x="79" y="64"/>
      <point x="86" y="34"/>
      <point x="102" y="18" type="curve" smooth="yes"/>
      <point x="116" y="4"/>
      <point x="133" y="0"/>
      <point x="173" y="0" type="curve" smooth="yes"/>
      <point x="556" y="0" type="line"/>
      <point x="559" y="12"/>
      <point x="561" y="23"/>
      <point x="561" y="37" type="curve" smooth="yes"/>
      <point x="561" y="93"/>
      <point x="500" y="133"/>
      <point x="379" y="133" type="curve" smooth="yes"/>
    </contour>
    <contour>
      <point x="126" y="419" type="curve" smooth="yes"/>
      <point x="156" y="419"/>
      <point x="188" y="438"/>
      <point x="220" y="470" type="curve" smooth="yes"/>
      <point x="271" y="521"/>
      <point x="301" y="595"/>
      <point x="301" y="653" type="curve" smooth="yes"/>
      <point x="301" y="693"/>
      <point x="283" y="710"/>
      <point x="271" y="710" type="curve"/>
      <point x="256" y="710" type="line"/>
      <point x="233" y="675"/>
      <point x="211" y="646"/>
      <point x="185" y="618" type="curve"/>
      <point x="154" y="588"/>
      <point x="121" y="563"/>
      <point x="79" y="542" type="curve"/>
      <point x="79" y="520" type="line" smooth="yes"/>
      <point x="79" y="457"/>
      <point x="100" y="419"/>
    </contour>
  </outline>
</glyph>
<glyph name="two" format="1">
  <advance width="600"/>
  <unicode hex="0032"/>
  <outline>
    <contour>
      <point x="348" y="618" type="curve"/>
      <point x="386" y="583"/>
      <point x="395" y="566"/>
      <point x="395" y="519" type="curve" smooth="yes"/>
      <point x="395" y="455"/>
      <point x="363" y="416"/>
      <point x="263" y="351" type="curve" smooth="yes"/>
      <point x="107" y="249"/>
      <point x="54" y="184"/>
      <point x="54" y="107" type="curve" smooth="yes"/>
      <point x="54" y="71"/>
      <point x="83" y="58"/>
      <point x="158" y="58" type="curve"/>
      <point x="158" y="136"/>
      <point x="183" y="169"/>
      <point x="330" y="256" type="curve" smooth="yes"/>
      <point x="469" y="340"/>
      <point x="531" y="409"/>
      <point x="531" y="516" type="curve" smooth="yes"/>
      <point x="531" y="520" type="line" smooth="yes"/>
      <point x="531" y="618"/>
      <point x="470" y="667"/>
    </contour>
    <contour>
      <point x="542" y="0" type="line"/>
      <point x="545" y="16"/>
      <point x="547" y="36"/>
      <point x="547" y="54" type="curve" smooth="yes"/>
      <point x="547" y="112"/>
      <point x="532" y="133"/>
      <point x="483" y="133" type="curve" smooth="yes"/>
      <point x="187" y="133" type="line" smooth="yes"/>
      <point x="129" y="133"/>
      <point x="90" y="126"/>
      <point x="54" y="107" type="curve"/>
      <point x="54" y="105"/>
      <point x="54" y="104"/>
      <point x="54" y="102" type="curve" smooth="yes"/>
      <point x="54" y="61"/>
      <point x="87" y="0"/>
      <point x="118" y="0" type="curve" smooth="yes"/>
    </contour>
    <contour>
      <point x="305" y="720" type="curve" smooth="yes"/>
      <point x="222" y="720"/>
      <point x="154" y="699"/>
      <point x="120" y="666" type="curve" smooth="yes"/>
      <point x="96" y="642"/>
      <point x="83" y="606"/>
      <point x="83" y="566" type="curve" smooth="yes"/>
      <point x="83" y="540"/>
      <point x="89" y="518"/>
      <point x="99" y="504" type="curve"/>
      <point x="103" y="504" type="line"/>
      <point x="158" y="561"/>
      <point x="225" y="587"/>
      <point x="311" y="587" type="curve" smooth="yes"/>
      <point x="392" y="587"/>
      <point x="453" y="553"/>
      <point x="453" y="504" type="curve" smooth="yes"/>
      <point x="453" y="483"/>
      <point x="450" y="465"/>
      <point x="444" y="447" type="curve"/>
      <point x="497" y="447"/>
      <point x="531" y="475"/>
      <point x="531" y="520" type="curve" smooth="yes"/>
      <point x="531" y="645"/>
      <point x="438" y="720"/>
    </contour>
  </outline>
</glyph>
<glyph name="three" format="1">
  <advance width="600"/>
  <unicode hex="0033"/>
  <outline>
    <contour>
      <point x="283" y="587" type="curve" smooth="yes"/>
      <point x="391" y="587"/>
      <point x="455" y="533"/>
      <point x="455" y="461" type="curve" smooth="yes"/>
      <point x="455" y="450"/>
      <point x="454" y="441"/>
      <point x="451" y="431" type="curve"/>
      <point x="486" y="433"/>
      <point x="536" y="499"/>
      <point x="536" y="528" type="curve" smooth="yes"/>
      <point x="536" y="542" type="line" smooth="yes"/>
      <point x="536" y="642"/>
      <point x="447" y="720"/>
      <point x="300" y="720" type="curve" smooth="yes"/>
      <point x="214" y="720"/>
      <point x="140" y="694"/>
      <point x="108" y="662" type="curve" smooth="yes"/>
      <point x="83" y="637"/>
      <point x="75" y="614"/>
      <point x="75" y="562" type="curve" smooth="yes"/>
      <point x="75" y="538"/>
      <point x="76" y="521"/>
      <point x="82" y="501" type="curve"/>
      <point x="86" y="501" type="line"/>
      <point x="144" y="562"/>
      <point x="198" y="587"/>
    </contour>
    <contour>
      <point x="213" y="317" type="curve" smooth="yes"/>
      <point x="417" y="317"/>
      <point x="535" y="430"/>
      <point x="535" y="528" type="curve" smooth="yes"/>
      <point x="535" y="564"/>
      <point x="460" y="602"/>
      <point x="420" y="603" type="curve"/>
      <point x="421" y="597"/>
      <point x="421" y="592"/>
      <point x="421" y="586" type="curve" smooth="yes"/>
      <point x="421" y="445"/>
      <point x="324" y="393"/>
      <point x="173" y="393" type="curve"/>
      <point x="169" y="377"/>
      <point x="168" y="368"/>
      <point x="168" y="346" type="curve" smooth="yes"/>
      <point x="168" y="324"/>
      <point x="201" y="317"/>
    </contour>
    <contour>
      <point x="212" y="274" type="curve" smooth="yes"/>
      <point x="332" y="267"/>
      <point x="432" y="220"/>
      <point x="432" y="145" type="curve" smooth="yes"/>
      <point x="432" y="139"/>
      <point x="432" y="135"/>
      <point x="431" y="130" type="curve"/>
      <point x="482" y="131"/>
      <point x="546" y="152"/>
      <point x="546" y="171" type="curve" smooth="yes"/>
      <point x="546" y="304"/>
      <point x="378" y="359"/>
      <point x="173" y="359" type="curve"/>
      <point x="171" y="352"/>
      <point x="168" y="351"/>
      <point x="168" y="346" type="curve" smooth="yes"/>
      <point x="168" y="297"/>
      <point x="179" y="277"/>
    </contour>
    <contour>
      <point x="283" y="113" type="curve" smooth="yes"/>
      <point x="190" y="113"/>
      <point x="129" y="135"/>
      <point x="68" y="198" type="curve"/>
      <point x="64" y="198" type="line"/>
      <point x="58" y="179"/>
      <point x="56" y="162"/>
      <point x="56" y="137" type="curve" smooth="yes"/>
      <point x="56" y="87"/>
      <point x="64" y="62"/>
      <point x="89" y="38" type="curve" smooth="yes"/>
      <point x="122" y="4"/>
      <point x="206" y="-20"/>
      <point x="300" y="-20" type="curve" smooth="yes"/>
      <point x="453" y="-20"/>
      <point x="546" y="58"/>
      <point x="546" y="158" type="curve" smooth="yes"/>
      <point x="546" y="171" type="line" smooth="yes"/>
      <point x="546" y="199"/>
      <point x="492" y="257"/>
      <point x="455" y="259" type="curve"/>
      <point x="456" y="250"/>
      <point x="457" y="241"/>
      <point x="457" y="231" type="curve" smooth="yes"/>
      <point x="457" y="155"/>
      <point x="401" y="113"/>
    </contour>
  </outline>
</glyph>
<glyph name="four" format="1">
  <advance width="600"/>
  <unicode hex="0034"/>
  <outline>
    <contour>
      <point x="148" y="234" type="curve"/>
      <point x="227" y="398"/>
      <point x="378" y="577"/>
      <point x="535" y="669" type="curve"/>
      <point x="535" y="673" type="line"/>
      <point x="514" y="696"/>
      <point x="468" y="711"/>
      <point x="404" y="711" type="curve" smooth="yes"/>
      <point x="362" y="711"/>
      <point x="335" y="700"/>
      <point x="284" y="648" type="curve" smooth="yes"/>
      <point x="161" y="526"/>
      <point x="42" y="352"/>
      <point x="42" y="266" type="curve" smooth="yes"/>
      <point x="42" y="245"/>
      <point x="102" y="234"/>
    </contour>
    <contour>
      <point x="565" y="150" type="line"/>
      <point x="568" y="163"/>
      <point x="570" y="178"/>
      <point x="570" y="191" type="curve" smooth="yes"/>
      <point x="570" y="232"/>
      <point x="561" y="283"/>
      <point x="529" y="283" type="curve" smooth="yes"/>
      <point x="336" y="283" type="line"/>
      <point x="254" y="283"/>
      <point x="133" y="278"/>
      <point x="42" y="266" type="curve"/>
      <point x="42" y="253" type="line" smooth="yes"/>
      <point x="42" y="210"/>
      <point x="53" y="180"/>
      <point x="71" y="162" type="curve" smooth="yes"/>
      <point x="81" y="153"/>
      <point x="89" y="150"/>
      <point x="110" y="150" type="curve" smooth="yes"/>
    </contour>
    <contour>
      <point x="505" y="-2" type="curve"/>
      <point x="498" y="32"/>
      <point x="495" y="59"/>
      <point x="495" y="97" type="curve" smooth="yes"/>
      <point x="495" y="362" type="line" smooth="yes"/>
      <point x="495" y="387"/>
      <point x="452" y="412"/>
      <point x="408" y="412" type="curve" smooth="yes"/>
      <point x="403" y="412" type="line"/>
      <point x="379" y="351"/>
      <point x="354" y="260"/>
      <point x="354" y="197" type="curve"/>
      <point x="354" y="48" type="line" smooth="yes"/>
      <point x="354" y="7"/>
      <point x="410" y="-7"/>
      <point x="460" y="-7" type="curve" smooth="yes"/>
      <point x="477" y="-7"/>
      <point x="493" y="-5"/>
    </contour>
  </outline>
</glyph>
<glyph name="six" format="1">
  <advance width="600"/>
  <unicode hex="0036"/>
  <outline>
    <contour>
      <point x="144" y="165" type="curve"/>
      <point x="114" y="87"/>
      <point x="211" y="-20"/>
      <point x="310" y="-20" type="curve"/>
      <point x="450" y="-20"/>
      <point x="546" y="68"/>
      <point x="546" y="197" type="curve" smooth="yes"/>
      <point x="546" y="202" type="line" smooth="yes"/>
      <point x="546" y="323"/>
      <point x="440" y="371"/>
      <point x="384" y="325" type="curve"/>
      <point x="405" y="296"/>
      <point x="413" y="255"/>
      <point x="413" y="209" type="curve" smooth="yes"/>
      <point x="413" y="205" type="line" smooth="yes"/>
      <point x="413" y="151"/>
      <point x="373" y="112"/>
      <point x="298" y="112" type="curve" smooth="yes"/>
      <point x="237" y="112"/>
      <point x="185" y="130"/>
    </contour>
    <contour>
      <point x="181" y="516" type="curve"/>
      <point x="232" y="564"/>
      <point x="292" y="587"/>
      <point x="362" y="587" type="curve" smooth="yes"/>
      <point x="421" y="587"/>
      <point x="461" y="576"/>
      <point x="508" y="550" type="curve"/>
      <point x="512" y="550" type="line"/>
      <point x="515" y="564"/>
      <point x="517" y="578"/>
      <point x="517" y="599" type="curve" smooth="yes"/>
      <point x="517" y="650"/>
      <point x="501" y="673"/>
      <point x="488" y="686" type="curve" smooth="yes"/>
      <point x="472" y="702"/>
      <point x="437" y="720"/>
      <point x="354" y="720" type="curve" smooth="yes"/>
      <point x="226" y="720"/>
      <point x="125" y="628"/>
    </contour>
    <contour>
      <point x="54" y="309" type="curve" smooth="yes"/>
      <point x="54" y="302" type="line" smooth="yes"/>
      <point x="54" y="86"/>
      <point x="158" y="-20"/>
      <point x="310" y="-20" type="curve" smooth="yes"/>
      <point x="318" y="-20"/>
      <point x="341" y="-13"/>
      <point x="341" y="38" type="curve"/>
      <point x="227" y="62"/>
      <point x="190" y="145"/>
      <point x="190" y="296" type="curve" smooth="yes"/>
      <point x="190" y="303" type="line" smooth="yes"/>
      <point x="190" y="517"/>
      <point x="234" y="602"/>
      <point x="394" y="665" type="curve"/>
      <point x="394" y="697"/>
      <point x="379" y="720"/>
      <point x="354" y="720" type="curve" smooth="yes"/>
      <point x="193" y="720"/>
      <point x="54" y="607"/>
    </contour>
    <contour>
      <point x="342" y="400" type="curve" smooth="yes"/>
      <point x="280" y="400"/>
      <point x="208" y="378"/>
      <point x="178" y="348" type="curve" smooth="yes"/>
      <point x="158" y="328"/>
      <point x="154" y="306"/>
      <point x="151" y="247" type="curve"/>
      <point x="207" y="274"/>
      <point x="264" y="289"/>
      <point x="318" y="289" type="curve" smooth="yes"/>
      <point x="420" y="289"/>
      <point x="475" y="239"/>
      <point x="475" y="173" type="curve" smooth="yes"/>
      <point x="475" y="157"/>
      <point x="474" y="144"/>
      <point x="469" y="131" type="curve"/>
      <point x="506" y="131"/>
      <point x="546" y="160"/>
      <point x="546" y="201" type="curve" smooth="yes"/>
      <point x="546" y="328"/>
      <point x="458" y="400"/>
    </contour>
  </outline>
</glyph>
<glyph name="seven" format="1">
  <advance width="600"/>
  <unicode hex="0037"/>
  <outline>
    <contour>
      <point x="413" y="567" type="line" smooth="yes"/>
      <point x="460" y="567"/>
      <point x="502" y="570"/>
      <point x="545" y="578" type="curve"/>
      <point x="545" y="585" type="line"/>
      <point x="545" y="628"/>
      <point x="527" y="700"/>
      <point x="496" y="700" type="curve"/>
      <point x="100" y="700" type="line"/>
      <point x="100" y="675" type="line" smooth="yes"/>
      <point x="100" y="608"/>
      <point x="115" y="567"/>
      <point x="150" y="567" type="curve" smooth="yes"/>
    </contour>
    <contour>
      <point x="341" y="-10" type="line"/>
      <point x="341" y="249"/>
      <point x="545" y="451"/>
      <point x="545" y="578" type="curve" smooth="yes"/>
      <point x="545" y="594"/>
      <point x="488" y="609"/>
      <point x="412" y="609" type="curve"/>
      <point x="412" y="483"/>
      <point x="212" y="253"/>
      <point x="212" y="64" type="curve" smooth="yes"/>
      <point x="212" y="14"/>
      <point x="273" y="-10"/>
      <point x="319" y="-10" type="curve" smooth="yes"/>
    </contour>
    <contour>
      <point x="194" y="455" type="curve"/>
      <point x="194" y="566"/>
      <point x="213" y="616"/>
      <point x="213" y="671" type="curve"/>
      <point x="213" y="703"/>
      <point x="149" y="720"/>
      <point x="97" y="720" type="curve" smooth="yes"/>
      <point x="90" y="720" type="line"/>
      <point x="70" y="650"/>
      <point x="63" y="577"/>
      <point x="63" y="505" type="curve"/>
      <point x="63" y="458"/>
      <point x="94" y="450"/>
      <point x="144" y="450" type="curve" smooth="yes"/>
      <point x="164" y="450"/>
      <point x="181" y="452"/>
    </contour>
  </outline>
</glyph>
<glyph name="eight" format="1">
  <advance width="600"/>
  <unicode hex="0038"/>
  <outline>
    <contour>
      <point x="390" y="348" type="curve" smooth="yes"/>
      <point x="296" y="381" type="line" smooth="yes"/>
      <point x="213" y="412"/>
      <point x="189" y="447"/>
      <point x="189" y="497" type="curve" smooth="yes"/>
      <point x="189" y="519"/>
      <point x="192" y="557"/>
      <point x="202" y="593" type="curve"/>
      <point x="130" y="591"/>
      <point x="69" y="570"/>
      <point x="69" y="511" type="curve" smooth="yes"/>
      <point x="69" y="440"/>
      <point x="107" y="353"/>
      <point x="255" y="298" type="curve" smooth="yes"/>
      <point x="346" y="264" type="line" smooth="yes"/>
      <point x="418" y="238"/>
      <point x="433" y="203"/>
      <point x="433" y="133" type="curve" smooth="yes"/>
      <point x="433" y="121"/>
      <point x="433" y="111"/>
      <point x="433" y="97" type="curve"/>
      <point x="484" y="97"/>
      <point x="547" y="138"/>
      <point x="547" y="171" type="curve"/>
      <point x="547" y="215"/>
      <point x="521" y="301"/>
    </contour>
    <contour>
      <point x="292" y="-20" type="curve" smooth="yes"/>
      <point x="450" y="-20"/>
      <point x="547" y="61"/>
      <point x="547" y="166" type="curve" smooth="yes"/>
      <point x="547" y="171" type="line" smooth="yes"/>
      <point x="547" y="188"/>
      <point x="500" y="219"/>
      <point x="466" y="221" type="curve"/>
      <point x="466" y="217"/>
      <point x="466" y="214"/>
      <point x="466" y="210" type="curve" smooth="yes"/>
      <point x="466" y="151"/>
      <point x="395" y="110"/>
      <point x="292" y="110" type="curve" smooth="yes"/>
      <point x="199" y="110"/>
      <point x="157" y="146"/>
      <point x="123" y="208" type="curve"/>
      <point x="33" y="120"/>
      <point x="125" y="-20"/>
    </contour>
    <contour>
      <point x="309" y="720" type="curve" smooth="yes"/>
      <point x="165" y="720"/>
      <point x="69" y="623"/>
      <point x="69" y="515" type="curve" smooth="yes"/>
      <point x="69" y="511" type="line" smooth="yes"/>
      <point x="69" y="475"/>
      <point x="130" y="432"/>
      <point x="201" y="431" type="curve"/>
      <point x="196" y="448"/>
      <point x="189" y="471"/>
      <point x="189" y="497" type="curve" smooth="yes"/>
      <point x="189" y="564"/>
      <point x="256" y="599"/>
      <point x="311" y="599" type="curve" smooth="yes"/>
      <point x="369" y="599"/>
      <point x="410" y="583"/>
      <point x="451" y="546" type="curve"/>
      <point x="515" y="610"/>
      <point x="408" y="720"/>
    </contour>
    <contour>
      <point x="363" y="326" type="curve" smooth="yes"/>
      <point x="437" y="326"/>
      <point x="539" y="411"/>
      <point x="539" y="513" type="curve" smooth="yes"/>
      <point x="539" y="518" type="line" smooth="yes"/>
      <point x="539" y="639"/>
      <point x="431" y="720"/>
      <point x="309" y="720" type="curve" smooth="yes"/>
      <point x="291" y="720"/>
      <point x="270" y="710"/>
      <point x="265" y="657" type="curve"/>
      <point x="356" y="657"/>
      <point x="415" y="604"/>
      <point x="415" y="517" type="curve" smooth="yes"/>
      <point x="415" y="513" type="line" smooth="yes"/>
      <point x="415" y="450"/>
      <point x="374" y="401"/>
      <point x="274" y="354" type="curve"/>
      <point x="300" y="337"/>
      <point x="330" y="326"/>
    </contour>
    <contour>
      <point x="354" y="46" type="curve"/>
      <point x="211" y="46"/>
      <point x="172" y="100"/>
      <point x="172" y="129" type="curve" smooth="yes"/>
      <point x="172" y="132" type="line" smooth="yes"/>
      <point x="172" y="203"/>
      <point x="228" y="268"/>
      <point x="326" y="308" type="curve"/>
      <point x="302" y="328"/>
      <point x="290" y="339"/>
      <point x="246" y="339" type="curve" smooth="yes"/>
      <point x="166" y="339"/>
      <point x="54" y="264"/>
      <point x="54" y="164" type="curve" smooth="yes"/>
      <point x="54" y="159" type="line" smooth="yes"/>
      <point x="54" y="55"/>
      <point x="147" y="-20"/>
      <point x="292" y="-20" type="curve" smooth="yes"/>
      <point x="319" y="-20"/>
      <point x="354" y="10"/>
    </contour>
  </outline>
</glyph>
<glyph name="nine" format="1">
  <advance width="600"/>
  <unicode hex="0039"/>
  <outline>
    <contour>
      <point x="456" y="535" type="curve"/>
      <point x="490" y="612"/>
      <point x="389" y="720"/>
      <point x="290" y="720" type="curve"/>
      <point x="150" y="720"/>
      <point x="54" y="616"/>
      <point x="54" y="461" type="curve" smooth="yes"/>
      <point x="54" y="456" type="line" smooth="yes"/>
      <point x="54" y="331"/>
      <point x="161" y="280"/>
      <point x="217" y="326" type="curve"/>
      <point x="195" y="357"/>
      <point x="187" y="400"/>
      <point x="187" y="449" type="curve" smooth="yes"/>
      <point x="187" y="452" type="line" smooth="yes"/>
      <point x="187" y="532"/>
      <point x="227" y="588"/>
      <point x="303" y="588" type="curve" smooth="yes"/>
      <point x="364" y="588"/>
      <point x="415" y="570"/>
    </contour>
    <contour>
      <point x="431" y="184" type="curve"/>
      <point x="378" y="135"/>
      <point x="313" y="113"/>
      <point x="238" y="113" type="curve" smooth="yes"/>
      <point x="179" y="113"/>
      <point x="140" y="124"/>
      <point x="92" y="150" type="curve"/>
      <point x="88" y="150" type="line"/>
      <point x="85" y="136"/>
      <point x="83" y="122"/>
      <point x="83" y="101" type="curve" smooth="yes"/>
      <point x="83" y="50"/>
      <point x="99" y="27"/>
      <point x="112" y="14" type="curve" smooth="yes"/>
      <point x="128" y="-2"/>
      <point x="164" y="-20"/>
      <point x="249" y="-20" type="curve" smooth="yes"/>
      <point x="384" y="-20"/>
      <point x="486" y="73"/>
    </contour>
    <contour>
      <point x="546" y="391" type="curve" smooth="yes"/>
      <point x="546" y="398" type="line" smooth="yes"/>
      <point x="546" y="614"/>
      <point x="442" y="720"/>
      <point x="290" y="720" type="curve" smooth="yes"/>
      <point x="282" y="720"/>
      <point x="260" y="713"/>
      <point x="260" y="662" type="curve"/>
      <point x="373" y="638"/>
      <point x="410" y="555"/>
      <point x="410" y="404" type="curve" smooth="yes"/>
      <point x="410" y="397" type="line" smooth="yes"/>
      <point x="410" y="183"/>
      <point x="367" y="98"/>
      <point x="210" y="35" type="curve"/>
      <point x="210" y="3"/>
      <point x="224" y="-20"/>
      <point x="249" y="-20" type="curve" smooth="yes"/>
      <point x="413" y="-20"/>
      <point x="546" y="79"/>
    </contour>
    <contour>
      <point x="257" y="231" type="curve" smooth="yes"/>
      <point x="320" y="231"/>
      <point x="392" y="253"/>
      <point x="422" y="283" type="curve" smooth="yes"/>
      <point x="442" y="303"/>
      <point x="446" y="325"/>
      <point x="449" y="383" type="curve"/>
      <point x="393" y="357"/>
      <point x="336" y="342"/>
      <point x="281" y="342" type="curve" smooth="yes"/>
      <point x="180" y="342"/>
      <point x="126" y="402"/>
      <point x="126" y="481" type="curve" smooth="yes"/>
      <point x="126" y="499"/>
      <point x="127" y="514"/>
      <point x="132" y="529" type="curve"/>
      <point x="94" y="529"/>
      <point x="54" y="500"/>
      <point x="54" y="457" type="curve" smooth="yes"/>
      <point x="54" y="312"/>
      <point x="142" y="231"/>
    </contour>
  </outline>
</glyph>
<glyph name="colon" format="1">
  <advance width="300"/>
  <unicode hex="003A"/>
  <outline>
    <contour>
      <point x="247" y="354" type="curve"/>
      <point x="247" y="479" type="line" smooth="yes"/>
      <point x="247" y="537"/>
      <point x="186" y="549"/>
      <point x="127" y="549" type="curve" smooth="yes"/>
      <point x="104" y="549"/>
      <point x="76" y="546"/>
      <point x="53" y="541" type="curve"/>
      <point x="53" y="416" type="line" smooth="yes"/>
      <point x="53" y="358"/>
      <point x="114" y="347"/>
      <point x="173" y="347" type="curve" smooth="yes"/>
      <point x="196" y="347"/>
      <point x="224" y="349"/>
    </contour>
    <contour>
      <point x="247" y="-3" type="curve"/>
      <point x="247" y="123" type="line" smooth="yes"/>
      <point x="247" y="181"/>
      <point x="186" y="192"/>
      <point x="127" y="192" type="curve" smooth="yes"/>
      <point x="104" y="192"/>
      <point x="76" y="190"/>
      <point x="53" y="185" type="curve"/>
      <point x="53" y="59" type="line" smooth="yes"/>
      <point x="53" y="1"/>
      <point x="114" y="-10"/>
      <point x="173" y="-10" type="curve" smooth="yes"/>
      <point x="196" y="-10"/>
      <point x="224" y="-7"/>
    </contour>
  </outline>
</glyph>
<glyph name="semicolon" format="1">
  <advance width="350"/>
  <unicode hex="003B"/>
  <outline>
    <contour>
      <point x="268" y="352" type="curve"/>
      <point x="268" y="478" type="line" smooth="yes"/>
      <point x="268" y="535"/>
      <point x="207" y="547"/>
      <point x="147" y="547" type="curve" smooth="yes"/>
      <point x="125" y="547"/>
      <point x="97" y="544"/>
      <point x="74" y="539" type="curve"/>
      <point x="74" y="414" type="line" smooth="yes"/>
      <point x="74" y="356"/>
      <point x="135" y="345"/>
      <point x="194" y="345" type="curve" smooth="yes"/>
      <point x="217" y="345"/>
      <point x="245" y="347"/>
    </contour>
    <contour>
      <point x="119" y="-198" type="curve" smooth="yes"/>
      <point x="139" y="-198"/>
      <point x="150" y="-195"/>
      <point x="160" y="-184" type="curve"/>
      <point x="217" y="-128"/>
      <point x="268" y="-7"/>
      <point x="268" y="85" type="curve"/>
      <point x="268" y="136"/>
      <point x="235" y="155"/>
      <point x="157" y="155" type="curve" smooth="yes"/>
      <point x="134" y="155"/>
      <point x="118" y="153"/>
      <point x="93" y="148" type="curve"/>
      <point x="93" y="14"/>
      <point x="70" y="-85"/>
      <point x="21" y="-167" type="curve"/>
      <point x="48" y="-189"/>
      <point x="76" y="-198"/>
    </contour>
  </outline>
</glyph>
<glyph name="greater" format="1">
  <advance width="550"/>
  <unicode hex="003E"/>
  <outline>
    <contour>
      <point x="69" y="130" type="curve"/>
      <point x="69" y="110" type="line"/>
      <point x="69" y="70"/>
      <point x="92" y="15"/>
      <point x="127" y="15" type="curve" smooth="yes"/>
      <point x="140" y="15"/>
      <point x="169" y="22"/>
      <point x="210" y="39" type="curve" smooth="yes"/>
      <point x="342" y="92"/>
      <point x="464" y="185"/>
      <point x="532" y="273" type="curve"/>
      <point x="532" y="296" type="line"/>
      <point x="532" y="330"/>
      <point x="498" y="338"/>
      <point x="418" y="336" type="curve"/>
      <point x="337" y="241"/>
      <point x="250" y="170"/>
    </contour>
    <contour>
      <point x="79" y="594" type="curve"/>
      <point x="74" y="581"/>
      <point x="72" y="567"/>
      <point x="72" y="546" type="curve" smooth="yes"/>
      <point x="72" y="497"/>
      <point x="83" y="461"/>
      <point x="108" y="453" type="curve" smooth="yes"/>
      <point x="264" y="404"/>
      <point x="349" y="347"/>
      <point x="440" y="249" type="curve" smooth="yes"/>
      <point x="447" y="242"/>
      <point x="449" y="234"/>
      <point x="449" y="230" type="curve" smooth="yes"/>
      <point x="449" y="224"/>
      <point x="449" y="220"/>
      <point x="449" y="213" type="curve"/>
      <point x="508" y="246"/>
      <point x="532" y="275"/>
      <point x="532" y="292" type="curve" smooth="yes"/>
      <point x="532" y="301" type="line" smooth="yes"/>
      <point x="532" y="328"/>
      <point x="527" y="343"/>
      <point x="488" y="379" type="curve" smooth="yes"/>
      <point x="391" y="468"/>
      <point x="276" y="547"/>
    </contour>
  </outline>
</glyph>
<glyph name="at" format="1">
  <advance width="600"/>
  <unicode hex="0040"/>
  <outline>
    <contour>
      <point x="466" y="521" type="curve" smooth="yes"/>
      <point x="452" y="535"/>
      <point x="430" y="546"/>
      <point x="384" y="546" type="curve" smooth="yes"/>
      <point x="359" y="546"/>
      <point x="328" y="540"/>
      <point x="299" y="511" type="curve" smooth="yes"/>
      <point x="277" y="489"/>
      <point x="275" y="437"/>
      <point x="291" y="409" type="curve"/>
      <point x="333" y="436"/>
      <point x="357" y="443"/>
      <point x="396" y="443" type="curve" smooth="yes"/>
      <point x="423" y="443"/>
      <point x="445" y="440"/>
      <point x="467" y="421" type="curve"/>
      <point x="484" y="462"/>
      <point x="481" y="506"/>
    </contour>
    <contour>
      <point x="495" y="203" type="curve"/>
      <point x="459" y="152"/>
      <point x="415" y="118"/>
      <point x="382" y="118" type="curve" smooth="yes"/>
      <point x="352" y="118"/>
      <point x="338" y="148"/>
      <point x="338" y="222" type="curve" smooth="yes"/>
      <point x="338" y="229" type="line" smooth="yes"/>
      <point x="338" y="322"/>
      <point x="350" y="428"/>
      <point x="402" y="505" type="curve"/>
      <point x="366" y="530"/>
      <point x="325" y="537"/>
      <point x="299" y="511" type="curve" smooth="yes"/>
      <point x="251" y="463"/>
      <point x="221" y="368"/>
      <point x="221" y="215" type="curve" smooth="yes"/>
      <point x="221" y="207" type="line" smooth="yes"/>
      <point x="221" y="77"/>
      <point x="270" y="10"/>
      <point x="358" y="10" type="curve" smooth="yes"/>
      <point x="407" y="10"/>
      <point x="441" y="29"/>
      <point x="487" y="84" type="curve" smooth="yes"/>
      <point x="504" y="107"/>
      <point x="511" y="154"/>
    </contour>
    <contour>
      <point x="552" y="15" type="line"/>
      <point x="545" y="50"/>
      <point x="544" y="80"/>
      <point x="544" y="114" type="curve"/>
      <point x="544" y="516" type="line" smooth="yes"/>
      <point x="544" y="680"/>
      <point x="477" y="760"/>
      <point x="343" y="760" type="curve" smooth="yes"/>
      <point x="309" y="760"/>
      <point x="313" y="725"/>
      <point x="313" y="705" type="curve"/>
      <point x="410" y="704"/>
      <point x="427" y="651"/>
      <point x="427" y="559" type="curve" smooth="yes"/>
      <point x="427" y="115" type="line" smooth="yes"/>
      <point x="427" y="61"/>
      <point x="473" y="15"/>
      <point x="539" y="15" type="curve" smooth="yes"/>
    </contour>
    <contour>
      <point x="52" y="211" type="curve" smooth="yes"/>
      <point x="52" y="199" type="line" smooth="yes"/>
      <point x="52" y="26"/>
      <point x="84" y="-71"/>
      <point x="139" y="-127" type="curve" smooth="yes"/>
      <point x="171" y="-159"/>
      <point x="212" y="-152"/>
      <point x="246" y="-117" type="curve"/>
      <point x="152" y="-24"/>
      <point x="143" y="38"/>
      <point x="143" y="198" type="curve" smooth="yes"/>
      <point x="143" y="208" type="line" smooth="yes"/>
      <point x="143" y="473"/>
      <point x="223" y="669"/>
      <point x="350" y="669" type="curve" smooth="yes"/>
      <point x="404" y="669"/>
      <point x="421" y="644"/>
      <point x="438" y="606" type="curve"/>
      <point x="465" y="621"/>
      <point x="477" y="641"/>
      <point x="477" y="665" type="curve" smooth="yes"/>
      <point x="477" y="721"/>
      <point x="420" y="760"/>
      <point x="343" y="760" type="curve" smooth="yes"/>
      <point x="159" y="760"/>
      <point x="52" y="532"/>
    </contour>
    <contour>
      <point x="324" y="-190" type="curve" smooth="yes"/>
      <point x="390" y="-190"/>
      <point x="440" y="-181"/>
      <point x="458" y="-163" type="curve" smooth="yes"/>
      <point x="474" y="-147"/>
      <point x="478" y="-117"/>
      <point x="478" y="-79" type="curve" smooth="yes"/>
      <point x="478" y="-71" type="line"/>
      <point x="474" y="-71" type="line"/>
      <point x="431" y="-91"/>
      <point x="390" y="-99"/>
      <point x="328" y="-99" type="curve" smooth="yes"/>
      <point x="249" y="-99"/>
      <point x="193" y="-70"/>
      <point x="139" y="-10" type="curve"/>
      <point x="113" y="-38"/>
      <point x="107" y="-95"/>
      <point x="139" y="-127" type="curve"/>
      <point x="181" y="-169"/>
      <point x="243" y="-190"/>
    </contour>
  </outline>
</glyph>
<glyph name="D" format="1">
  <advance width="650"/>
  <unicode hex="0044"/>
  <outline>
    <contour>
      <point x="220" y="36" type="curve"/>
      <point x="220" y="515" type="line" smooth="yes"/>
      <point x="220" y="591"/>
      <point x="175" y="622"/>
      <point x="79" y="622" type="curve"/>
      <point x="79" y="85" type="line" smooth="yes"/>
      <point x="79" y="58"/>
      <point x="141" y="36"/>
    </contour>
    <contour>
      <point x="30" y="700" type="curve"/>
      <point x="27" y="685"/>
      <point x="25" y="671"/>
      <point x="25" y="651" type="curve"/>
      <point x="25" y="613"/>
      <point x="31" y="589"/>
      <point x="44" y="575" type="curve" smooth="yes"/>
      <point x="51" y="569"/>
      <point x="57" y="567"/>
      <point x="66" y="567" type="curve" smooth="yes"/>
      <point x="75" y="567"/>
      <point x="91" y="571"/>
      <point x="124" y="575" type="curve" smooth="yes"/>
      <point x="168" y="582"/>
      <point x="219" y="587"/>
      <point x="283" y="587" type="curve"/>
      <point x="384" y="587"/>
      <point x="428" y="568"/>
      <point x="489" y="508" type="curve"/>
      <point x="577" y="622"/>
      <point x="454" y="720"/>
      <point x="297" y="720" type="curve" smooth="yes"/>
      <point x="209" y="720"/>
      <point x="118" y="714"/>
    </contour>
    <contour>
      <point x="596" y="398" type="curve" smooth="yes"/>
      <point x="596" y="408" type="line" smooth="yes"/>
      <point x="596" y="613"/>
      <point x="490" y="720"/>
      <point x="297" y="720" type="curve" smooth="yes"/>
      <point x="272" y="720"/>
      <point x="231" y="704"/>
      <point x="231" y="654" type="curve"/>
      <point x="416" y="638"/>
      <point x="456" y="569"/>
      <point x="456" y="402" type="curve" smooth="yes"/>
      <point x="456" y="392" type="line" smooth="yes"/>
      <point x="456" y="226"/>
      <point x="366" y="127"/>
      <point x="246" y="127" type="curve" smooth="yes"/>
      <point x="180" y="127"/>
      <point x="157" y="131"/>
      <point x="105" y="155" type="curve"/>
      <point x="87" y="141"/>
      <point x="79" y="121"/>
      <point x="79" y="85" type="curve" smooth="yes"/>
      <point x="79" y="43"/>
      <point x="171" y="-10"/>
      <point x="247" y="-10" type="curve" smooth="yes"/>
      <point x="251" y="-10" type="line" smooth="yes"/>
      <point x="449" y="-10"/>
      <point x="596" y="148"/>
    </contour>
    <contour>
      <point x="310" y="711" type="move" name="top"/>
    </contour>
  </outline>
</glyph>
<glyph name="F" format="1">
  <advance width="550"/>
  <unicode hex="0046"/>
  <outline>
    <contour>
      <point x="245" y="-6" type="curve"/>
      <point x="239" y="29"/>
      <point x="237" y="59"/>
      <point x="237" y="93" type="curve" smooth="yes"/>
      <point x="237" y="498" type="line"/>
      <point x="237" y="575"/>
      <point x="203" y="601"/>
      <point x="96" y="601" type="curve"/>
      <point x="96" y="53" type="line" smooth="yes"/>
      <point x="96" y="11"/>
      <point x="135" y="-6"/>
      <point x="232" y="-6" type="curve" smooth="yes"/>
      <point x="237" y="-6"/>
      <point x="241" y="-6"/>
    </contour>
    <contour>
      <point x="29" y="700" type="line"/>
      <point x="29" y="693"/>
      <point x="29" y="685"/>
      <point x="29" y="678" type="curve" smooth="yes"/>
      <point x="29" y="626"/>
      <point x="37" y="588"/>
      <point x="50" y="575" type="curve" smooth="yes"/>
      <point x="57" y="568"/>
      <point x="60" y="567"/>
      <point x="66" y="567" type="curve"/>
      <point x="510" y="567" type="line"/>
      <point x="515" y="579"/>
      <point x="517" y="595"/>
      <point x="517" y="615" type="curve" smooth="yes"/>
      <point x="517" y="645"/>
      <point x="508" y="676"/>
      <point x="495" y="689" type="curve" smooth="yes"/>
      <point x="486" y="698"/>
      <point x="481" y="700"/>
      <point x="465" y="700" type="curve"/>
    </contour>
    <contour>
      <point x="116" y="341" type="line"/>
      <point x="116" y="261"/>
      <point x="127" y="209"/>
      <point x="165" y="209" type="curve"/>
      <point x="466" y="209" type="line"/>
      <point x="467" y="217"/>
      <point x="468" y="225"/>
      <point x="468" y="234" type="curve"/>
      <point x="468" y="266"/>
      <point x="454" y="302"/>
      <point x="433" y="322" type="curve" smooth="yes"/>
      <point x="416" y="339"/>
      <point x="408" y="341"/>
      <point x="382" y="341" type="curve"/>
    </contour>
  </outline>
</glyph>
<glyph name="G" format="1">
  <advance width="650"/>
  <unicode hex="0047"/>
  <outline>
    <contour>
      <point x="395" y="596" type="curve" smooth="yes"/>
      <point x="460" y="596"/>
      <point x="489" y="563"/>
      <point x="489" y="499" type="curve"/>
      <point x="543" y="499"/>
      <point x="562" y="534"/>
      <point x="562" y="554" type="curve" smooth="yes"/>
      <point x="562" y="594"/>
      <point x="544" y="639"/>
      <point x="511" y="672" type="curve" smooth="yes"/>
      <point x="483" y="701"/>
      <point x="442" y="720"/>
      <point x="390" y="720" type="curve" smooth="yes"/>
      <point x="199" y="720"/>
      <point x="54" y="558"/>
      <point x="54" y="278" type="curve" smooth="yes"/>
      <point x="54" y="268" type="line" smooth="yes"/>
      <point x="54" y="196"/>
      <point x="118" y="128"/>
      <point x="204" y="125" type="curve"/>
      <point x="194" y="152"/>
      <point x="187" y="205"/>
      <point x="187" y="260" type="curve" smooth="yes"/>
      <point x="187" y="272" type="line" smooth="yes"/>
      <point x="187" y="490"/>
      <point x="290" y="596"/>
    </contour>
    <contour>
      <point x="345" y="113" type="curve" smooth="yes"/>
      <point x="220" y="113"/>
      <point x="169" y="186"/>
      <point x="169" y="332" type="curve"/>
      <point x="100" y="333"/>
      <point x="54" y="316"/>
      <point x="54" y="268" type="curve" smooth="yes"/>
      <point x="54" y="107"/>
      <point x="151" y="-20"/>
      <point x="345" y="-20" type="curve" smooth="yes"/>
      <point x="474" y="-20"/>
      <point x="580" y="47"/>
      <point x="580" y="149" type="curve" smooth="yes"/>
      <point x="580" y="158" type="line" smooth="yes"/>
      <point x="580" y="222"/>
      <point x="544" y="285"/>
      <point x="490" y="285" type="curve"/>
      <point x="494" y="266"/>
      <point x="496" y="253"/>
      <point x="496" y="223" type="curve" smooth="yes"/>
      <point x="496" y="147"/>
      <point x="433" y="113"/>
    </contour>
    <contour>
      <point x="351" y="346" type="line"/>
      <point x="351" y="340"/>
      <point x="351" y="334"/>
      <point x="351" y="327" type="curve" smooth="yes"/>
      <point x="351" y="292"/>
      <point x="360" y="272"/>
      <point x="375" y="258" type="curve" smooth="yes"/>
      <point x="394" y="238"/>
      <point x="418" y="230"/>
      <point x="484" y="230" type="curve"/>
      <point x="612" y="230" type="line"/>
      <point x="612" y="239" type="line" smooth="yes"/>
      <point x="612" y="319"/>
      <point x="598" y="346"/>
      <point x="552" y="346" type="curve" smooth="yes"/>
    </contour>
    <contour>
      <point x="562" y="460" type="curve"/>
      <point x="562" y="554" type="line" smooth="yes"/>
      <point x="562" y="606"/>
      <point x="515" y="646"/>
      <point x="442" y="644" type="curve"/>
      <point x="433" y="598"/>
      <point x="429" y="559"/>
      <point x="429" y="530" type="curve" smooth="yes"/>
      <point x="429" y="511" type="line" smooth="yes"/>
      <point x="429" y="469"/>
      <point x="448" y="455"/>
      <point x="511" y="455" type="curve" smooth="yes"/>
      <point x="531" y="455"/>
      <point x="548" y="456"/>
    </contour>
    <contour>
      <point x="333" y="711" type="move" name="top"/>
    </contour>
    <contour>
      <point x="333" y="-1" type="move" name="bottom"/>
    </contour>
  </outline>
</glyph>
<glyph name="I" format="1">
  <advance width="500"/>
  <unicode hex="0049"/>
  <outline>
    <contour>
      <point x="321" y="76" type="curve"/>
      <point x="321" y="498" type="line" smooth="yes"/>
      <point x="321" y="574"/>
      <point x="287" y="600"/>
      <point x="179" y="600" type="curve"/>
      <point x="179" y="206" type="line" smooth="yes"/>
      <point x="179" y="116"/>
      <point x="213" y="76"/>
    </contour>
    <contour>
      <point x="51" y="700" type="line"/>
      <point x="48" y="692"/>
      <point x="46" y="681"/>
      <point x="46" y="667" type="curve"/>
      <point x="46" y="634"/>
      <point x="54" y="608"/>
      <point x="72" y="591" type="curve" smooth="yes"/>
      <point x="91" y="572"/>
      <point x="116" y="567"/>
      <point x="178" y="567" type="curve" smooth="yes"/>
      <point x="450" y="567" type="line"/>
      <point x="454" y="584"/>
      <point x="456" y="602"/>
      <point x="456" y="618" type="curve" smooth="yes"/>
      <point x="456" y="664"/>
      <point x="448" y="700"/>
      <point x="400" y="700" type="curve" smooth="yes"/>
    </contour>
    <contour>
      <point x="52" y="133" type="line"/>
      <point x="48" y="119"/>
      <point x="46" y="103"/>
      <point x="46" y="86" type="curve"/>
      <point x="46" y="59"/>
      <point x="50" y="32"/>
      <point x="66" y="16" type="curve" smooth="yes"/>
      <point x="78" y="4"/>
      <point x="89" y="0"/>
      <point x="123" y="0" type="curve" smooth="yes"/>
      <point x="450" y="0" type="line"/>
      <point x="453" y="13"/>
      <point x="456" y="30"/>
      <point x="456" y="50" type="curve" smooth="yes"/>
      <point x="456" y="97"/>
      <point x="448" y="133"/>
      <point x="400" y="133" type="curve" smooth="yes"/>
    </contour>
    <contour>
      <point x="251" y="711" type="move" name="top"/>
    </contour>
    <contour>
      <point x="451" y="0" type="move" name="ogonek"/>
    </contour>
    <contour>
      <point x="251" y="-1" type="move" name="bottom"/>
    </contour>
  </outline>
</glyph>
<glyph name="J" format="1">
  <advance width="500"/>
  <unicode hex="004A"/>
  <outline>
    <contour>
      <point x="76" y="700" type="line"/>
      <point x="73" y="692"/>
      <point x="72" y="681"/>
      <point x="72" y="668" type="curve" smooth="yes"/>
      <point x="72" y="634"/>
      <point x="80" y="608"/>
      <point x="98" y="590" type="curve" smooth="yes"/>
      <point x="116" y="572"/>
      <point x="139" y="567"/>
      <point x="195" y="567" type="curve" smooth="yes"/>
      <point x="384" y="567" type="line"/>
      <point x="384" y="664"/>
      <point x="362" y="700"/>
      <point x="318" y="700" type="curve"/>
    </contour>
    <contour>
      <point x="448" y="217" type="curve" smooth="yes"/>
      <point x="448" y="655" type="line" smooth="yes"/>
      <point x="448" y="681"/>
      <point x="416" y="700"/>
      <point x="338" y="700" type="curve" smooth="yes"/>
      <point x="308" y="700" type="line"/>
      <point x="308" y="230" type="line" smooth="yes"/>
      <point x="308" y="141"/>
      <point x="295" y="101"/>
      <point x="252" y="57" type="curve"/>
      <point x="338" y="18"/>
      <point x="448" y="111"/>
    </contour>
    <contour>
      <point x="222" y="113" type="curve" smooth="yes"/>
      <point x="145" y="113"/>
      <point x="116" y="131"/>
      <point x="49" y="165" type="curve"/>
      <point x="45" y="165" type="line"/>
      <point x="43" y="151"/>
      <point x="42" y="138"/>
      <point x="42" y="124" type="curve"/>
      <point x="42" y="65"/>
      <point x="57" y="33"/>
      <point x="71" y="19" type="curve" smooth="yes"/>
      <point x="97" y="-6"/>
      <point x="148" y="-20"/>
      <point x="201" y="-20" type="curve" smooth="yes"/>
      <point x="210" y="-20" type="line" smooth="yes"/>
      <point x="359" y="-20"/>
      <point x="448" y="106"/>
      <point x="448" y="217" type="curve"/>
      <point x="448" y="245"/>
      <point x="430" y="272"/>
      <point x="357" y="300" type="curve"/>
      <point x="357" y="172"/>
      <point x="321" y="113"/>
    </contour>
    <contour>
      <point x="259" y="711" type="move" name="top"/>
    </contour>
  </outline>
</glyph>
<glyph name="M" format="1">
  <advance width="800"/>
  <unicode hex="004D"/>
  <outline>
    <contour>
      <point x="192" y="-8" type="curve"/>
      <point x="187" y="42"/>
      <point x="185" y="90"/>
      <point x="185" y="139" type="curve" smooth="yes"/>
      <point x="185" y="298"/>
      <point x="205" y="472"/>
      <point x="237" y="639" type="curve" smooth="yes"/>
      <point x="241" y="661"/>
      <point x="235" y="680"/>
      <point x="226" y="690" type="curve" smooth="yes"/>
      <point x="211" y="705"/>
      <point x="188" y="710"/>
      <point x="144" y="710" type="curve" smooth="yes"/>
      <point x="122" y="710"/>
      <point x="105" y="708"/>
      <point x="85" y="704" type="curve"/>
      <point x="93" y="667"/>
      <point x="95" y="636"/>
      <point x="90" y="594" type="curve" smooth="yes"/>
      <point x="69" y="412"/>
      <point x="51" y="233"/>
      <point x="51" y="49" type="curve" smooth="yes"/>
      <point x="51" y="35"/>
      <point x="55" y="24"/>
      <point x="64" y="15" type="curve" smooth="yes"/>
      <point x="81" y="-2"/>
      <point x="113" y="-10"/>
      <point x="160" y="-10" type="curve" smooth="yes"/>
      <point x="174" y="-10"/>
      <point x="185" y="-9"/>
    </contour>
    <contour>
      <point x="761" y="-4" type="curve"/>
      <point x="752" y="33"/>
      <point x="748" y="71"/>
      <point x="748" y="110" type="curve" smooth="yes"/>
      <point x="747" y="294"/>
      <point x="727" y="473"/>
      <point x="702" y="648" type="curve"/>
      <point x="700" y="662"/>
      <point x="695" y="673"/>
      <point x="686" y="682" type="curve" smooth="yes"/>
      <point x="667" y="700"/>
      <point x="619" y="710"/>
      <point x="562" y="710" type="curve" smooth="yes"/>
      <point x="559" y="710" type="line"/>
      <point x="564" y="682"/>
      <point x="567" y="654"/>
      <point x="571" y="624" type="curve"/>
      <point x="595" y="480"/>
      <point x="609" y="320"/>
      <point x="610" y="178" type="curve" smooth="yes"/>
      <point x="610" y="136"/>
      <point x="609" y="96"/>
      <point x="607" y="57" type="curve" smooth="yes"/>
      <point x="606" y="31"/>
      <point x="611" y="20"/>
      <point x="621" y="10" type="curve" smooth="yes"/>
      <point x="636" y="-5"/>
      <point x="658" y="-10"/>
      <point x="702" y="-10" type="curve" smooth="yes"/>
      <point x="724" y="-10"/>
      <point x="741" y="-8"/>
    </contour>
    <contour>
      <point x="302" y="663" type="curve" smooth="yes"/>
      <point x="297" y="690"/>
      <point x="245" y="710"/>
      <point x="154" y="710" type="curve"/>
      <point x="144" y="710" type="line"/>
      <point x="172" y="679"/>
      <point x="197" y="636"/>
      <point x="201" y="611" type="curve" smooth="yes"/>
      <point x="237" y="320"/>
      <point x="327" y="158"/>
      <point x="350" y="135" type="curve"/>
      <point x="368" y="116"/>
      <point x="378" y="112"/>
      <point x="402" y="112" type="curve" smooth="yes"/>
      <point x="432" y="112"/>
      <point x="456" y="134"/>
      <point x="456" y="185" type="curve"/>
      <point x="376" y="333"/>
      <point x="345" y="440"/>
    </contour>
    <contour>
      <point x="509" y="704" type="curve"/>
      <point x="471" y="470"/>
      <point x="420" y="339"/>
      <point x="354" y="216" type="curve"/>
      <point x="336" y="184"/>
      <point x="365" y="112"/>
      <point x="402" y="112" type="curve"/>
      <point x="438" y="112" type="line"/>
      <point x="529" y="268"/>
      <point x="606" y="542"/>
      <point x="606" y="661" type="curve" smooth="yes"/>
      <point x="606" y="692"/>
      <point x="590" y="710"/>
      <point x="559" y="710" type="curve" smooth="yes"/>
      <point x="540" y="710"/>
      <point x="528" y="708"/>
    </contour>
  </outline>
</glyph>
<glyph name="O" format="1">
  <advance width="650"/>
  <unicode hex="004F"/>
  <outline>
    <contour>
      <point x="322" y="720" type="curve" smooth="yes"/>
      <point x="153" y="720"/>
      <point x="54" y="586"/>
      <point x="54" y="346" type="curve" smooth="yes"/>
      <point x="54" y="324" type="line" smooth="yes"/>
      <point x="54" y="100"/>
      <point x="150" y="-20"/>
      <point x="327" y="-20" type="curve" smooth="yes"/>
      <point x="367" y="-20"/>
      <point x="394" y="22"/>
      <point x="394" y="83" type="curve"/>
      <point x="243" y="84"/>
      <point x="187" y="162"/>
      <point x="187" y="311" type="curve" smooth="yes"/>
      <point x="187" y="329" type="line" smooth="yes"/>
      <point x="187" y="514"/>
      <point x="232" y="588"/>
      <point x="325" y="588" type="curve" smooth="yes"/>
      <point x="379" y="588"/>
      <point x="410" y="577"/>
      <point x="449" y="553" type="curve"/>
      <point x="497" y="598"/>
      <point x="406" y="720"/>
    </contour>
    <contour>
      <point x="327" y="-20" type="curve" smooth="yes"/>
      <point x="497" y="-20"/>
      <point x="596" y="114"/>
      <point x="596" y="354" type="curve" smooth="yes"/>
      <point x="596" y="376" type="line" smooth="yes"/>
      <point x="596" y="599"/>
      <point x="499" y="720"/>
      <point x="322" y="720" type="curve" smooth="yes"/>
      <point x="282" y="720"/>
      <point x="256" y="678"/>
      <point x="256" y="617" type="curve"/>
      <point x="407" y="616"/>
      <point x="463" y="538"/>
      <point x="463" y="389" type="curve" smooth="yes"/>
      <point x="463" y="371" type="line" smooth="yes"/>
      <point x="463" y="186"/>
      <point x="417" y="112"/>
      <point x="324" y="112" type="curve" smooth="yes"/>
      <point x="271" y="112"/>
      <point x="240" y="123"/>
      <point x="201" y="147" type="curve"/>
      <point x="152" y="101"/>
      <point x="244" y="-20"/>
    </contour>
    <contour>
      <point x="325" y="711" type="move" name="top"/>
    </contour>
    <contour>
      <point x="427" y="5" type="move" name="ogonek"/>
    </contour>
    <contour>
      <point x="325" y="-1" type="move" name="bottom"/>
    </contour>
  </outline>
</glyph>
<glyph name="P" format="1">
  <advance width="600"/>
  <unicode hex="0050"/>
  <outline>
    <contour>
      <point x="232" y="-4" type="curve"/>
      <point x="224" y="32"/>
      <point x="220" y="69"/>
      <point x="220" y="108" type="curve" smooth="yes"/>
      <point x="220" y="515" type="line" smooth="yes"/>
      <point x="220" y="591"/>
      <point x="175" y="622"/>
      <point x="79" y="622" type="curve"/>
      <point x="79" y="58" type="line" smooth="yes"/>
      <point x="79" y="34"/>
      <point x="83" y="21"/>
      <point x="94" y="10" type="curve" smooth="yes"/>
      <point x="108" y="-5"/>
      <point x="130" y="-10"/>
      <point x="174" y="-10" type="curve" smooth="yes"/>
      <point x="196" y="-10"/>
      <point x="212" y="-8"/>
    </contour>
    <contour>
      <point x="30" y="700" type="curve"/>
      <point x="27" y="685"/>
      <point x="25" y="671"/>
      <point x="25" y="651" type="curve"/>
      <point x="25" y="613"/>
      <point x="31" y="589"/>
      <point x="44" y="575" type="curve" smooth="yes"/>
      <point x="51" y="569"/>
      <point x="57" y="567"/>
      <point x="66" y="567" type="curve" smooth="yes"/>
      <point x="75" y="567"/>
      <point x="91" y="571"/>
      <point x="124" y="575" type="curve" smooth="yes"/>
      <point x="168" y="582"/>
      <point x="218" y="587"/>
      <point x="281" y="587" type="curve" smooth="yes"/>
      <point x="368" y="587"/>
      <point x="405" y="566"/>
      <point x="449" y="516" type="curve"/>
      <point x="539" y="606"/>
      <point x="435" y="720"/>
      <point x="294" y="720" type="curve" smooth="yes"/>
      <point x="207" y="720"/>
      <point x="117" y="714"/>
    </contour>
    <contour>
      <point x="546" y="495" type="curve" smooth="yes"/>
      <point x="546" y="512" type="line" smooth="yes"/>
      <point x="546" y="631"/>
      <point x="441" y="720"/>
      <point x="294" y="720" type="curve"/>
      <point x="258" y="720"/>
      <point x="246" y="698"/>
      <point x="246" y="661" type="curve"/>
      <point x="364" y="646"/>
      <point x="406" y="603"/>
      <point x="406" y="506" type="curve" smooth="yes"/>
      <point x="406" y="485" type="line" smooth="yes"/>
      <point x="406" y="351"/>
      <point x="349" y="289"/>
      <point x="271" y="289" type="curve" smooth="yes"/>
      <point x="238" y="289"/>
      <point x="226" y="291"/>
      <point x="203" y="297" type="curve"/>
      <point x="198" y="289"/>
      <point x="195" y="282"/>
      <point x="195" y="269" type="curve" smooth="yes"/>
      <point x="195" y="227"/>
      <point x="247" y="163"/>
      <point x="303" y="163" type="curve" smooth="yes"/>
      <point x="306" y="163" type="line" smooth="yes"/>
      <point x="432" y="163"/>
      <point x="546" y="280"/>
    </contour>
  </outline>
</glyph>
<glyph name="Q" format="1">
  <advance width="650"/>
  <unicode hex="0051"/>
  <outline>
    <contour>
      <point x="322" y="720" type="curve" smooth="yes"/>
      <point x="153" y="720"/>
      <point x="54" y="586"/>
      <point x="54" y="346" type="curve" smooth="yes"/>
      <point x="54" y="324" type="line" smooth="yes"/>
      <point x="54" y="100"/>
      <point x="149" y="-20"/>
      <point x="327" y="-20" type="curve" smooth="yes"/>
      <point x="367" y="-20"/>
      <point x="394" y="22"/>
      <point x="394" y="83" type="curve"/>
      <point x="243" y="84"/>
      <point x="187" y="162"/>
      <point x="187" y="311" type="curve" smooth="yes"/>
      <point x="187" y="329" type="line" smooth="yes"/>
      <point x="187" y="514"/>
      <point x="232" y="588"/>
      <point x="325" y="588" type="curve" smooth="yes"/>
      <point x="379" y="588"/>
      <point x="410" y="578"/>
      <point x="449" y="553" type="curve"/>
      <point x="497" y="598"/>
      <point x="406" y="720"/>
    </contour>
    <contour>
      <point x="327" y="-20" type="curve" smooth="yes"/>
      <point x="496" y="-20"/>
      <point x="596" y="114"/>
      <point x="596" y="354" type="curve" smooth="yes"/>
      <point x="596" y="376" type="line" smooth="yes"/>
      <point x="596" y="599"/>
      <point x="499" y="720"/>
      <point x="322" y="720" type="curve" smooth="yes"/>
      <point x="282" y="720"/>
      <point x="256" y="678"/>
      <point x="256" y="617" type="curve"/>
      <point x="407" y="616"/>
      <point x="463" y="538"/>
      <point x="463" y="389" type="curve" smooth="yes"/>
      <point x="463" y="371" type="line" smooth="yes"/>
      <point x="463" y="186"/>
      <point x="417" y="112"/>
      <point x="324" y="112" type="curve" smooth="yes"/>
      <point x="271" y="112"/>
      <point x="240" y="123"/>
      <point x="201" y="147" type="curve"/>
      <point x="152" y="101"/>
      <point x="244" y="-20"/>
    </contour>
    <contour>
      <point x="455" y="129" type="line"/>
      <point x="373" y="85"/>
      <point x="358" y="56"/>
      <point x="372" y="30" type="curve" smooth="yes"/>
      <point x="431" y="-77" type="line" smooth="yes"/>
      <point x="469" y="-144"/>
      <point x="507" y="-181"/>
      <point x="557" y="-181" type="curve" smooth="yes"/>
      <point x="562" y="-181" type="line" smooth="yes"/>
      <point x="609" y="-181"/>
      <point x="637" y="-147"/>
      <point x="637" y="-78" type="curve" smooth="yes"/>
      <point x="637" y="-49"/>
      <point x="635" y="-31"/>
      <point x="630" y="-12" type="curve"/>
      <point x="626" y="-12" type="line"/>
      <point x="615" y="-20"/>
      <point x="605" y="-23"/>
      <point x="588" y="-23" type="curve" smooth="yes"/>
      <point x="556" y="-23"/>
      <point x="540" y="-12"/>
      <point x="522" y="17" type="curve" smooth="yes"/>
    </contour>
  </outline>
</glyph>
<glyph name="T" format="1">
  <advance width="600"/>
  <unicode hex="0054"/>
  <outline>
    <contour>
      <point x="36" y="700" type="line"/>
      <point x="33" y="692"/>
      <point x="32" y="681"/>
      <point x="32" y="671" type="curve" smooth="yes"/>
      <point x="32" y="645"/>
      <point x="39" y="609"/>
      <point x="58" y="591" type="curve" smooth="yes"/>
      <point x="76" y="572"/>
      <point x="105" y="567"/>
      <point x="174" y="567" type="curve" smooth="yes"/>
      <point x="556" y="567" type="line"/>
      <point x="560" y="580"/>
      <point x="562" y="598"/>
      <point x="562" y="618" type="curve" smooth="yes"/>
      <point x="562" y="664"/>
      <point x="554" y="700"/>
      <point x="506" y="700" type="curve" smooth="yes"/>
    </contour>
    <contour>
      <point x="383" y="-4" type="curve"/>
      <point x="374" y="32"/>
      <point x="371" y="69"/>
      <point x="371" y="108" type="curve" smooth="yes"/>
      <point x="371" y="499" type="line" smooth="yes"/>
      <point x="371" y="575"/>
      <point x="336" y="600"/>
      <point x="229" y="600" type="curve"/>
      <point x="229" y="58" type="line" smooth="yes"/>
      <point x="229" y="34"/>
      <point x="233" y="21"/>
      <point x="244" y="10" type="curve" smooth="yes"/>
      <point x="258" y="-5"/>
      <point x="280" y="-10"/>
      <point x="324" y="-10" type="curve" smooth="yes"/>
      <point x="346" y="-10"/>
      <point x="362" y="-8"/>
    </contour>
    <contour>
      <point x="297" y="711" type="move" name="top"/>
    </contour>
    <contour>
      <point x="300" y="-1" type="move" name="bottom"/>
    </contour>
  </outline>
</glyph>
<glyph name="U" format="1">
  <advance width="650"/>
  <unicode hex="0055"/>
  <outline>
    <contour>
      <point x="57" y="703" type="curve"/>
      <point x="66" y="668"/>
      <point x="70" y="630"/>
      <point x="70" y="586" type="curve" smooth="yes"/>
      <point x="70" y="142" type="line"/>
      <point x="70" y="100"/>
      <point x="113" y="86"/>
      <point x="181" y="89" type="curve"/>
      <point x="209" y="293"/>
      <point x="228" y="408"/>
      <point x="228" y="548" type="curve"/>
      <point x="228" y="557" type="line"/>
      <point x="228" y="674"/>
      <point x="186" y="709"/>
      <point x="113" y="709" type="curve"/>
      <point x="92" y="709"/>
      <point x="76" y="707"/>
    </contour>
    <contour>
      <point x="214" y="-12" type="curve" smooth="yes"/>
      <point x="285" y="-12"/>
      <point x="386" y="36"/>
      <point x="443" y="129" type="curve" smooth="yes"/>
      <point x="475" y="189"/>
      <point x="490" y="205"/>
      <point x="445" y="276" type="curve"/>
      <point x="384" y="171"/>
      <point x="310" y="138"/>
      <point x="236" y="138" type="curve" smooth="yes"/>
      <point x="197" y="138"/>
      <point x="174" y="156"/>
      <point x="165" y="201" type="curve"/>
      <point x="134" y="199"/>
      <point x="70" y="173"/>
      <point x="70" y="142" type="curve" smooth="yes"/>
      <point x="70" y="70"/>
      <point x="143" y="-12"/>
    </contour>
    <contour>
      <point x="587" y="-7" type="curve"/>
      <point x="580" y="28"/>
      <point x="579" y="64"/>
      <point x="579" y="101" type="curve" smooth="yes"/>
      <point x="579" y="656" type="line" smooth="yes"/>
      <point x="579" y="693"/>
      <point x="544" y="709"/>
      <point x="477" y="709" type="curve" smooth="yes"/>
      <point x="463" y="709"/>
      <point x="450" y="708"/>
      <point x="438" y="704" type="curve"/>
      <point x="438" y="81" type="line" smooth="yes"/>
      <point x="438" y="50"/>
      <point x="444" y="32"/>
      <point x="462" y="15" type="curve" smooth="yes"/>
      <point x="478" y="-1"/>
      <point x="512" y="-10"/>
      <point x="547" y="-10" type="curve" smooth="yes"/>
      <point x="563" y="-10"/>
      <point x="573" y="-9"/>
    </contour>
    <contour>
      <point x="321" y="711" type="move" name="top"/>
    </contour>
    <contour>
      <point x="588" y="-7" type="move" name="ogonek"/>
    </contour>
    <contour>
      <point x="321" y="709" type="move" name="ring"/>
    </contour>
    <contour>
      <point x="321" y="-1" type="move" name="bottom"/>
    </contour>
  </outline>
</glyph>
<glyph name="V" format="1">
  <advance width="650"/>
  <unicode hex="0056"/>
  <outline>
    <contour>
      <point x="73" y="710" type="curve"/>
      <point x="51" y="710" type="line"/>
      <point x="64" y="354"/>
      <point x="126" y="154"/>
      <point x="247" y="33" type="curve"/>
      <point x="284" y="-4"/>
      <point x="315" y="-10"/>
      <point x="342" y="-10" type="curve"/>
      <point x="380" y="-10"/>
      <point x="404" y="12"/>
      <point x="420" y="67" type="curve"/>
      <point x="417" y="67"/>
      <point x="414" y="67"/>
      <point x="412" y="67" type="curve" smooth="yes"/>
      <point x="404" y="67"/>
      <point x="398" y="69"/>
      <point x="387" y="76" type="curve"/>
      <point x="265" y="170"/>
      <point x="211" y="281"/>
      <point x="193" y="665" type="curve"/>
      <point x="192" y="691"/>
      <point x="131" y="710"/>
    </contour>
    <contour>
      <point x="483" y="710" type="curve"/>
      <point x="461" y="710" type="line"/>
      <point x="438" y="327"/>
      <point x="406" y="198"/>
      <point x="288" y="98" type="curve"/>
      <point x="264" y="78"/>
      <point x="287" y="-10"/>
      <point x="342" y="-10" type="curve"/>
      <point x="380" y="-10" type="line"/>
      <point x="511" y="101"/>
      <point x="581" y="320"/>
      <point x="597" y="644" type="curve"/>
      <point x="599" y="682"/>
      <point x="541" y="710"/>
    </contour>
  </outline>
</glyph>
<glyph name="W" format="1">
  <advance width="900"/>
  <unicode hex="0057"/>
  <outline>
    <contour>
      <point x="41" y="710" type="curve"/>
      <point x="42" y="370"/>
      <point x="72" y="158"/>
      <point x="189" y="32" type="curve"/>
      <point x="215" y="4"/>
      <point x="241" y="-10"/>
      <point x="267" y="-10" type="curve"/>
      <point x="293" y="-10" type="line" smooth="yes"/>
      <point x="314" y="-10"/>
      <point x="325" y="18"/>
      <point x="325" y="61" type="curve"/>
      <point x="225" y="132"/>
      <point x="192" y="295"/>
      <point x="186" y="663" type="curve"/>
      <point x="186" y="673"/>
      <point x="184" y="676"/>
      <point x="178" y="682" type="curve" smooth="yes"/>
      <point x="159" y="701"/>
      <point x="106" y="710"/>
      <point x="63" y="710" type="curve"/>
      <point x="56" y="710"/>
      <point x="49" y="710"/>
    </contour>
    <contour>
      <point x="723" y="710" type="curve"/>
      <point x="716" y="355"/>
      <point x="685" y="189"/>
      <point x="585" y="98" type="curve"/>
      <point x="552" y="71"/>
      <point x="586" y="-10"/>
      <point x="639" y="-10" type="curve"/>
      <point x="677" y="-10" type="line"/>
      <point x="789" y="91"/>
      <point x="858" y="354"/>
      <point x="858" y="644" type="curve" smooth="yes"/>
      <point x="858" y="654"/>
      <point x="858" y="661"/>
      <point x="853" y="667" type="curve" smooth="yes"/>
      <point x="827" y="692"/>
      <point x="787" y="710"/>
      <point x="744" y="710" type="curve"/>
      <point x="737" y="710"/>
      <point x="730" y="710"/>
    </contour>
    <contour>
      <point x="420" y="622" type="curve"/>
      <point x="396" y="622" type="line"/>
      <point x="369" y="362"/>
      <point x="325" y="180"/>
      <point x="230" y="90" type="curve"/>
      <point x="203" y="66"/>
      <point x="231" y="-10"/>
      <point x="267" y="-10" type="curve"/>
      <point x="306" y="-10" type="line"/>
      <point x="403" y="85"/>
      <point x="469" y="320"/>
      <point x="492" y="543" type="curve" smooth="yes"/>
      <point x="495" y="579"/>
      <point x="461" y="622"/>
    </contour>
    <contour>
      <point x="427" y="622" type="curve"/>
      <point x="411" y="622" type="line"/>
      <point x="437" y="333"/>
      <point x="468" y="134"/>
      <point x="554" y="37" type="curve" smooth="yes"/>
      <point x="586" y="4"/>
      <point x="610" y="-10"/>
      <point x="639" y="-10" type="curve"/>
      <point x="662" y="-10" type="line"/>
      <point x="675" y="-10"/>
      <point x="684" y="24"/>
      <point x="682" y="61" type="curve"/>
      <point x="574" y="144"/>
      <point x="546" y="276"/>
      <point x="517" y="577" type="curve" smooth="yes"/>
      <point x="514" y="599"/>
      <point x="470" y="622"/>
    </contour>
    <contour>
      <point x="449" y="711" type="move" name="top"/>
    </contour>
  </outline>
</glyph>
<glyph name="X" format="1">
  <advance width="650"/>
  <unicode hex="0058"/>
  <outline>
    <contour>
      <point x="568" y="-9" type="curve" smooth="yes"/>
      <point x="594" y="-9"/>
      <point x="613" y="-6"/>
      <point x="631" y="-1" type="curve"/>
      <point x="556" y="77"/>
      <point x="465" y="201"/>
      <point x="385" y="329" type="curve" smooth="yes"/>
      <point x="376" y="344"/>
      <point x="367" y="359"/>
      <point x="358" y="374" type="curve" smooth="yes"/>
      <point x="293" y="480"/>
      <point x="236" y="585"/>
      <point x="204" y="664" type="curve" smooth="yes"/>
      <point x="189" y="700"/>
      <point x="139" y="709"/>
      <point x="40" y="709" type="curve" smooth="yes"/>
      <point x="18" y="709" type="line"/>
      <point x="72" y="593"/>
      <point x="161" y="438"/>
      <point x="251" y="297" type="curve" smooth="yes"/>
      <point x="260" y="284"/>
      <point x="268" y="270"/>
      <point x="277" y="256" type="curve" smooth="yes"/>
      <point x="336" y="169"/>
      <point x="394" y="90"/>
      <point x="441" y="36" type="curve" smooth="yes"/>
      <point x="469" y="2"/>
      <point x="512" y="-9"/>
    </contour>
    <contour>
      <point x="500" y="709" type="curve" smooth="yes"/>
      <point x="479" y="709" type="line"/>
      <point x="443" y="552"/>
      <point x="395" y="452"/>
      <point x="325" y="375" type="curve"/>
      <point x="290" y="334"/>
      <point x="323" y="277"/>
      <point x="385" y="278" type="curve"/>
      <point x="511" y="395"/>
      <point x="568" y="501"/>
      <point x="613" y="649" type="curve"/>
      <point x="617" y="661"/>
      <point x="615" y="668"/>
      <point x="609" y="674" type="curve" smooth="yes"/>
      <point x="585" y="699"/>
      <point x="541" y="709"/>
    </contour>
    <contour>
      <point x="148" y="-9" type="curve"/>
      <point x="169" y="-9" type="line"/>
      <point x="200" y="95"/>
      <point x="247" y="172"/>
      <point x="312" y="237" type="curve"/>
      <point x="341" y="268"/>
      <point x="318" y="347"/>
      <point x="264" y="354" type="curve"/>
      <point x="148" y="245"/>
      <point x="79" y="148"/>
      <point x="33" y="54" type="curve" smooth="yes"/>
      <point x="26" y="40"/>
      <point x="30" y="32"/>
      <point x="36" y="25" type="curve" smooth="yes"/>
      <point x="60" y="1"/>
      <point x="106" y="-9"/>
    </contour>
  </outline>
</glyph>
<glyph name="bracketleft" format="1">
  <advance width="400"/>
  <unicode hex="005B"/>
  <outline>
    <contour>
      <point x="49" y="642" type="curve" smooth="yes"/>
      <point x="49" y="-31" type="line" smooth="yes"/>
      <point x="49" y="-77"/>
      <point x="127" y="-86"/>
      <point x="190" y="-86" type="curve"/>
      <point x="190" y="695" type="line" smooth="yes"/>
      <point x="190" y="749"/>
      <point x="171" y="760"/>
      <point x="97" y="760" type="curve" smooth="yes"/>
      <point x="75" y="760"/>
      <point x="57" y="758"/>
      <point x="37" y="754" type="curve"/>
      <point x="45" y="718"/>
      <point x="49" y="681"/>
    </contour>
    <contour>
      <point x="356" y="627" type="line"/>
      <point x="360" y="640"/>
      <point x="362" y="656"/>
      <point x="362" y="675" type="curve" smooth="yes"/>
      <point x="362" y="694"/>
      <point x="358" y="732"/>
      <point x="341" y="749" type="curve" smooth="yes"/>
      <point x="332" y="758"/>
      <point x="325" y="760"/>
      <point x="310" y="760" type="curve" smooth="yes"/>
      <point x="97" y="760" type="line"/>
      <point x="97" y="672"/>
      <point x="143" y="627"/>
      <point x="249" y="627" type="curve"/>
    </contour>
    <contour>
      <point x="358" y="-161" type="line"/>
      <point x="361" y="-148"/>
      <point x="363" y="-131"/>
      <point x="363" y="-111" type="curve" smooth="yes"/>
      <point x="363" y="-52"/>
      <point x="347" y="-28"/>
      <point x="308" y="-28" type="curve" smooth="yes"/>
      <point x="49" y="-28" type="line"/>
      <point x="49" y="-45" type="line" smooth="yes"/>
      <point x="49" y="-97"/>
      <point x="101" y="-161"/>
      <point x="143" y="-161" type="curve" smooth="yes"/>
    </contour>
  </outline>
</glyph>
<glyph name="bracketright" format="1">
  <advance width="400"/>
  <unicode hex="005D"/>
  <outline>
    <contour>
      <point x="351" y="-43" type="curve" smooth="yes"/>
      <point x="351" y="630" type="line" smooth="yes"/>
      <point x="351" y="676"/>
      <point x="273" y="685"/>
      <point x="210" y="685" type="curve"/>
      <point x="210" y="-96" type="line" smooth="yes"/>
      <point x="210" y="-150"/>
      <point x="229" y="-161"/>
      <point x="303" y="-161" type="curve" smooth="yes"/>
      <point x="325" y="-161"/>
      <point x="343" y="-159"/>
      <point x="363" y="-155" type="curve"/>
      <point x="355" y="-119"/>
      <point x="351" y="-82"/>
    </contour>
    <contour>
      <point x="44" y="-28" type="line"/>
      <point x="40" y="-41"/>
      <point x="38" y="-57"/>
      <point x="38" y="-76" type="curve" smooth="yes"/>
      <point x="38" y="-95"/>
      <point x="42" y="-133"/>
      <point x="59" y="-150" type="curve" smooth="yes"/>
      <point x="68" y="-159"/>
      <point x="75" y="-161"/>
      <point x="90" y="-161" type="curve" smooth="yes"/>
      <point x="303" y="-161" type="line"/>
      <point x="303" y="-73"/>
      <point x="257" y="-28"/>
      <point x="151" y="-28" type="curve"/>
    </contour>
    <contour>
      <point x="42" y="760" type="line"/>
      <point x="39" y="747"/>
      <point x="37" y="730"/>
      <point x="37" y="710" type="curve" smooth="yes"/>
      <point x="37" y="651"/>
      <point x="53" y="627"/>
      <point x="92" y="627" type="curve" smooth="yes"/>
      <point x="351" y="627" type="line"/>
      <point x="351" y="644" type="line" smooth="yes"/>
      <point x="351" y="696"/>
      <point x="299" y="760"/>
      <point x="257" y="760" type="curve" smooth="yes"/>
    </contour>
  </outline>
</glyph>
<glyph name="asciicircum" format="1">
  <advance width="600"/>
  <unicode hex="005E"/>
  <outline>
    <contour>
      <point x="166" y="359" type="line"/>
      <point x="195" y="500"/>
      <point x="255" y="582"/>
      <point x="341" y="667" type="curve"/>
      <point x="343" y="734"/>
      <point x="325" y="759"/>
      <point x="296" y="760" type="curve"/>
      <point x="266" y="760" type="line"/>
      <point x="192" y="702"/>
      <point x="110" y="591"/>
      <point x="64" y="478" type="curve" smooth="yes"/>
      <point x="50" y="443"/>
      <point x="43" y="418"/>
      <point x="43" y="407" type="curve" smooth="yes"/>
      <point x="43" y="378"/>
      <point x="96" y="359"/>
      <point x="148" y="359" type="curve"/>
    </contour>
    <contour>
      <point x="555" y="370" type="curve"/>
      <point x="510" y="530"/>
      <point x="450" y="633"/>
      <point x="369" y="720" type="curve" smooth="yes"/>
      <point x="335" y="756"/>
      <point x="322" y="760"/>
      <point x="300" y="760" type="curve" smooth="yes"/>
      <point x="292" y="760" type="line" smooth="yes"/>
      <point x="274" y="760"/>
      <point x="235" y="708"/>
      <point x="223" y="671" type="curve"/>
      <point x="228" y="671"/>
      <point x="232" y="671"/>
      <point x="236" y="671" type="curve" smooth="yes"/>
      <point x="239" y="671"/>
      <point x="246" y="669"/>
      <point x="252" y="663" type="curve" smooth="yes"/>
      <point x="331" y="589"/>
      <point x="371" y="524"/>
      <point x="410" y="399" type="curve" smooth="yes"/>
      <point x="417" y="379"/>
      <point x="447" y="361"/>
      <point x="499" y="361" type="curve" smooth="yes"/>
      <point x="521" y="361"/>
      <point x="537" y="363"/>
    </contour>
  </outline>
</glyph>
<glyph name="grave" format="1">
  <advance width="350"/>
  <unicode hex="0060"/>
  <outline>
    <contour>
      <point x="299" y="397" type="curve"/>
      <point x="249" y="480"/>
      <point x="227" y="578"/>
      <point x="227" y="713" type="curve"/>
      <point x="201" y="718"/>
      <point x="185" y="720"/>
      <point x="162" y="720" type="curve" smooth="yes"/>
      <point x="94" y="720"/>
      <point x="51" y="707"/>
      <point x="51" y="649" type="curve" smooth="yes"/>
      <point x="51" y="558"/>
      <point x="103" y="437"/>
      <point x="159" y="380" type="curve" smooth="yes"/>
      <point x="169" y="370"/>
      <point x="181" y="366"/>
      <point x="200" y="366" type="curve" smooth="yes"/>
      <point x="243" y="366"/>
      <point x="271" y="375"/>
    </contour>
  </outline>
</glyph>
<glyph name="a" format="1">
  <advance width="600"/>
  <unicode hex="0061"/>
  <outline>
    <contour>
      <point x="282" y="548" type="curve" smooth="yes"/>
      <point x="183" y="548"/>
      <point x="132" y="538"/>
      <point x="108" y="514" type="curve" smooth="yes"/>
      <point x="90" y="497"/>
      <point x="83" y="464"/>
      <point x="83" y="437" type="curve" smooth="yes"/>
      <point x="83" y="421"/>
      <point x="85" y="405"/>
      <point x="87" y="397" type="curve"/>
      <point x="91" y="397" type="line"/>
      <point x="144" y="413"/>
      <point x="187" y="419"/>
      <point x="247" y="419" type="curve" smooth="yes"/>
      <point x="361" y="419"/>
      <point x="399" y="393"/>
      <point x="445" y="301" type="curve"/>
      <point x="483" y="301"/>
      <point x="499" y="316"/>
      <point x="499" y="352" type="curve"/>
      <point x="499" y="450"/>
      <point x="392" y="548"/>
    </contour>
    <contour>
      <point x="332" y="459" type="curve"/>
      <point x="359" y="421"/>
      <point x="366" y="385"/>
      <point x="366" y="340" type="curve" smooth="yes"/>
      <point x="366" y="248"/>
      <point x="366" y="215"/>
      <point x="366" y="146" type="curve" smooth="yes"/>
      <point x="366" y="65"/>
      <point x="433" y="37"/>
      <point x="512" y="61" type="curve"/>
      <point x="501" y="78"/>
      <point x="499" y="90"/>
      <point x="499" y="117" type="curve" smooth="yes"/>
      <point x="499" y="209"/>
      <point x="499" y="269"/>
      <point x="499" y="352" type="curve" smooth="yes"/>
      <point x="499" y="399"/>
      <point x="417" y="487"/>
    </contour>
    <contour>
      <point x="559" y="124" type="line"/>
      <point x="556" y="124" type="line"/>
      <point x="553" y="123"/>
      <point x="549" y="122"/>
      <point x="545" y="122" type="curve" smooth="yes"/>
      <point x="515" y="122"/>
      <point x="484" y="134"/>
      <point x="463" y="185" type="curve"/>
      <point x="394" y="185"/>
      <point x="366" y="176"/>
      <point x="366" y="146" type="curve" smooth="yes"/>
      <point x="366" y="63"/>
      <point x="425" y="-10"/>
      <point x="503" y="-10" type="curve" smooth="yes"/>
      <point x="506" y="-10" type="line" smooth="yes"/>
      <point x="544" y="-10"/>
      <point x="559" y="63"/>
      <point x="559" y="109" type="curve"/>
    </contour>
    <contour>
      <point x="184" y="159" type="curve" smooth="yes"/>
      <point x="184" y="161" type="line" smooth="yes"/>
      <point x="184" y="211"/>
      <point x="193" y="227"/>
      <point x="209" y="249" type="curve"/>
      <point x="153" y="267"/>
      <point x="51" y="202"/>
      <point x="51" y="151" type="curve" smooth="yes"/>
      <point x="51" y="143" type="line" smooth="yes"/>
      <point x="51" y="41"/>
      <point x="107" y="-10"/>
      <point x="205" y="-10" type="curve" smooth="yes"/>
      <point x="285" y="-10"/>
      <point x="353" y="21"/>
      <point x="395" y="91" type="curve" smooth="yes"/>
      <point x="416" y="125"/>
      <point x="406" y="155"/>
      <point x="394" y="178" type="curve"/>
      <point x="343" y="126"/>
      <point x="291" y="111"/>
      <point x="252" y="111" type="curve" smooth="yes"/>
      <point x="249" y="111" type="line" smooth="yes"/>
      <point x="198" y="111"/>
      <point x="184" y="122"/>
    </contour>
    <contour>
      <point x="410" y="270" type="curve" smooth="yes"/>
      <point x="389" y="292"/>
      <point x="323" y="307"/>
      <point x="215" y="307" type="curve" smooth="yes"/>
      <point x="133" y="307"/>
      <point x="52" y="225"/>
      <point x="51" y="151" type="curve" smooth="yes"/>
      <point x="51" y="124"/>
      <point x="67" y="106"/>
      <point x="96" y="106" type="curve"/>
      <point x="136" y="188"/>
      <point x="190" y="220"/>
      <point x="269" y="220" type="curve" smooth="yes"/>
      <point x="316" y="220"/>
      <point x="377" y="213"/>
      <point x="432" y="200" type="curve"/>
      <point x="432" y="237"/>
      <point x="422" y="259"/>
    </contour>
    <contour>
      <point x="289" y="549" type="move" name="top"/>
    </contour>
    <contour>
      <point x="525" y="5" type="move" name="ogonek"/>
    </contour>
    <contour>
      <point x="305" y="-1" type="move" name="bottom"/>
    </contour>
  </outline>
</glyph>
<glyph name="c" format="1">
  <advance width="500"/>
  <unicode hex="0063"/>
  <outline>
    <contour>
      <point x="328" y="549" type="curve" smooth="yes"/>
      <point x="165" y="549"/>
      <point x="54" y="430"/>
      <point x="54" y="254" type="curve" smooth="yes"/>
      <point x="54" y="240" type="line" smooth="yes"/>
      <point x="54" y="63"/>
      <point x="162" y="-12"/>
      <point x="301" y="-12" type="curve" smooth="yes"/>
      <point x="331" y="-12"/>
      <point x="331" y="10"/>
      <point x="331" y="47" type="curve"/>
      <point x="230" y="63"/>
      <point x="187" y="137"/>
      <point x="187" y="229" type="curve" smooth="yes"/>
      <point x="187" y="240" type="line" smooth="yes"/>
      <point x="187" y="340"/>
      <point x="234" y="413"/>
      <point x="319" y="413" type="curve" smooth="yes"/>
      <point x="370" y="413"/>
      <point x="400" y="404"/>
      <point x="438" y="375" type="curve"/>
      <point x="442" y="375" type="line"/>
      <point x="452" y="398"/>
      <point x="457" y="422"/>
      <point x="457" y="452" type="curve"/>
      <point x="457" y="488"/>
      <point x="450" y="506"/>
      <point x="434" y="521" type="curve" smooth="yes"/>
      <point x="416" y="539"/>
      <point x="380" y="549"/>
    </contour>
    <contour>
      <point x="301" y="-12" type="curve" smooth="yes"/>
      <point x="365" y="-12"/>
      <point x="414" y="1"/>
      <point x="434" y="21" type="curve" smooth="yes"/>
      <point x="454" y="42"/>
      <point x="463" y="76"/>
      <point x="463" y="122" type="curve"/>
      <point x="463" y="141"/>
      <point x="462" y="153"/>
      <point x="459" y="166" type="curve"/>
      <point x="455" y="166" type="line"/>
      <point x="410" y="130"/>
      <point x="369" y="117"/>
      <point x="309" y="117" type="curve" smooth="yes"/>
      <point x="244" y="117"/>
      <point x="196" y="137"/>
      <point x="152" y="190" type="curve"/>
      <point x="88" y="101"/>
      <point x="168" y="-12"/>
    </contour>
    <contour>
      <point x="287" y="549" type="move" name="top"/>
    </contour>
    <contour>
      <point x="291" y="-1" type="move" name="bottom"/>
    </contour>
  </outline>
</glyph>
<glyph name="f" format="1">
  <advance width="400"/>
  <unicode hex="0066"/>
  <outline>
    <contour>
      <point x="243" y="-1" type="curve"/>
      <point x="235" y="32"/>
      <point x="232" y="64"/>
      <point x="232" y="102" type="curve" smooth="yes"/>
      <point x="232" y="535" type="line" smooth="yes"/>
      <point x="221" y="569"/>
      <point x="216" y="603"/>
      <point x="216" y="645" type="curve" smooth="yes"/>
      <point x="216" y="696"/>
      <point x="244" y="727"/>
      <point x="304" y="725" type="curve"/>
      <point x="304" y="749"/>
      <point x="295" y="768"/>
      <point x="271" y="768" type="curve" smooth="yes"/>
      <point x="165" y="768"/>
      <point x="91" y="694"/>
      <point x="91" y="587" type="curve" smooth="yes"/>
      <point x="91" y="57" type="line" smooth="yes"/>
      <point x="91" y="9"/>
      <point x="127" y="-7"/>
      <point x="193" y="-7" type="curve" smooth="yes"/>
      <point x="209" y="-7"/>
      <point x="228" y="-5"/>
    </contour>
    <contour>
      <point x="155" y="613" type="curve"/>
      <point x="187" y="638"/>
      <point x="222" y="648"/>
      <point x="269" y="648" type="curve" smooth="yes"/>
      <point x="311" y="648"/>
      <point x="352" y="639"/>
      <point x="387" y="624" type="curve"/>
      <point x="391" y="624" type="line"/>
      <point x="395" y="637"/>
      <point x="396" y="652"/>
      <point x="396" y="667" type="curve"/>
      <point x="396" y="704"/>
      <point x="391" y="726"/>
      <point x="373" y="744" type="curve" smooth="yes"/>
      <point x="359" y="757"/>
      <point x="327" y="768"/>
      <point x="271" y="768" type="curve" smooth="yes"/>
      <point x="171" y="768"/>
      <point x="114" y="683"/>
    </contour>
    <contour>
      <point x="18" y="538" type="curve"/>
      <point x="18" y="532"/>
      <point x="18" y="526"/>
      <point x="18" y="520" type="curve" smooth="yes"/>
      <point x="18" y="475"/>
      <point x="26" y="448"/>
      <point x="43" y="432" type="curve" smooth="yes"/>
      <point x="61" y="413"/>
      <point x="79" y="405"/>
      <point x="135" y="405" type="curve" smooth="yes"/>
      <point x="230" y="405"/>
      <point x="282" y="405"/>
      <point x="363" y="405" type="curve"/>
      <point x="366" y="419"/>
      <point x="369" y="439"/>
      <point x="369" y="459" type="curve" smooth="yes"/>
      <point x="369" y="517"/>
      <point x="354" y="538"/>
      <point x="304" y="538" type="curve" smooth="yes"/>
      <point x="252" y="538"/>
      <point x="120" y="538"/>
    </contour>
  </outline>
</glyph>
<glyph name="i" format="1">
  <advance width="350"/>
  <unicode hex="0069"/>
  <outline>
    <contour>
      <point x="29" y="543" type="curve"/>
      <point x="26" y="530"/>
      <point x="24" y="512"/>
      <point x="24" y="493" type="curve" smooth="yes"/>
      <point x="24" y="433"/>
      <point x="42" y="410"/>
      <point x="64" y="410" type="curve" smooth="yes"/>
      <point x="85" y="410"/>
      <point x="108" y="421"/>
      <point x="165" y="421" type="curve"/>
      <point x="165" y="490"/>
      <point x="169" y="548"/>
      <point x="125" y="548" type="curve" smooth="yes"/>
      <point x="94" y="548"/>
      <point x="63" y="547"/>
    </contour>
    <contour>
      <point x="269" y="-1" type="curve"/>
      <point x="261" y="32"/>
      <point x="258" y="64"/>
      <point x="258" y="102" type="curve" smooth="yes"/>
      <point x="258" y="498" type="line" smooth="yes"/>
      <point x="258" y="535"/>
      <point x="219" y="548"/>
      <point x="135" y="548" type="curve" smooth="yes"/>
      <point x="125" y="548" type="line"/>
      <point x="125" y="57" type="line" smooth="yes"/>
      <point x="125" y="9"/>
      <point x="156" y="-7"/>
      <point x="221" y="-7" type="curve" smooth="yes"/>
      <point x="238" y="-7"/>
      <point x="254" y="-5"/>
    </contour>
    <contour>
      <point x="271" y="627" type="curve"/>
      <point x="271" y="704" type="line" smooth="yes"/>
      <point x="271" y="753"/>
      <point x="231" y="762"/>
      <point x="178" y="762" type="curve" smooth="yes"/>
      <point x="157" y="762"/>
      <point x="131" y="760"/>
      <point x="109" y="756" type="curve"/>
      <point x="109" y="678" type="line" smooth="yes"/>
      <point x="109" y="630"/>
      <point x="149" y="621"/>
      <point x="202" y="621" type="curve" smooth="yes"/>
      <point x="223" y="621"/>
      <point x="249" y="623"/>
    </contour>
    <contour>
      <point x="270" y="-1" type="move" name="ogonek"/>
    </contour>
    <contour>
      <point x="197" y="-1" type="move" name="bottom"/>
    </contour>
  </outline>
</glyph>
<glyph name="j" format="1">
  <advance width="350"/>
  <unicode hex="006A"/>
  <outline>
    <contour>
      <point x="38" y="541" type="curve"/>
      <point x="35" y="528"/>
      <point x="33" y="511"/>
      <point x="33" y="491" type="curve" smooth="yes"/>
      <point x="33" y="431"/>
      <point x="51" y="408"/>
      <point x="73" y="408" type="curve" smooth="yes"/>
      <point x="95" y="408"/>
      <point x="113" y="421"/>
      <point x="182" y="421" type="curve"/>
      <point x="182" y="505"/>
      <point x="172" y="548"/>
      <point x="142" y="548" type="curve" smooth="yes"/>
      <point x="112" y="548"/>
      <point x="69" y="545"/>
    </contour>
    <contour>
      <point x="275" y="-50" type="curve" smooth="yes"/>
      <point x="275" y="485" type="line" smooth="yes"/>
      <point x="275" y="501"/>
      <point x="272" y="508"/>
      <point x="261" y="519" type="curve" smooth="yes"/>
      <point x="242" y="538"/>
      <point x="198" y="548"/>
      <point x="151" y="548" type="curve" smooth="yes"/>
      <point x="142" y="548" type="line"/>
      <point x="142" y="-22" type="line" smooth="yes"/>
      <point x="142" y="-102"/>
      <point x="133" y="-138"/>
      <point x="106" y="-180" type="curve"/>
      <point x="159" y="-200"/>
      <point x="275" y="-125"/>
    </contour>
    <contour>
      <point x="95" y="-117" type="curve" smooth="yes"/>
      <point x="63" y="-117"/>
      <point x="44" y="-113"/>
      <point x="15" y="-99" type="curve"/>
      <point x="11" y="-99" type="line"/>
      <point x="8" y="-109"/>
      <point x="7" y="-119"/>
      <point x="7" y="-130" type="curve" smooth="yes"/>
      <point x="7" y="-169"/>
      <point x="16" y="-209"/>
      <point x="35" y="-228" type="curve" smooth="yes"/>
      <point x="48" y="-241"/>
      <point x="69" y="-250"/>
      <point x="107" y="-250" type="curve" smooth="yes"/>
      <point x="199" y="-250"/>
      <point x="275" y="-156"/>
      <point x="275" y="-50" type="curve" smooth="yes"/>
      <point x="275" y="0"/>
      <point x="255" y="1"/>
      <point x="236" y="1" type="curve"/>
      <point x="216" y="-86"/>
      <point x="156" y="-117"/>
    </contour>
    <contour>
      <point x="285" y="627" type="curve"/>
      <point x="285" y="704" type="line" smooth="yes"/>
      <point x="285" y="753"/>
      <point x="244" y="762"/>
      <point x="192" y="762" type="curve" smooth="yes"/>
      <point x="171" y="762"/>
      <point x="144" y="760"/>
      <point x="122" y="756" type="curve"/>
      <point x="122" y="678" type="line" smooth="yes"/>
      <point x="122" y="630"/>
      <point x="163" y="621"/>
      <point x="215" y="621" type="curve" smooth="yes"/>
      <point x="236" y="621"/>
      <point x="263" y="623"/>
    </contour>
  </outline>
</glyph>
<glyph name="m" format="1">
  <advance width="850"/>
  <unicode hex="006D"/>
  <outline>
    <contour>
      <point x="212" y="-1" type="curve"/>
      <point x="212" y="434" type="line" smooth="yes"/>
      <point x="212" y="482"/>
      <point x="206" y="499"/>
      <point x="187" y="517" type="curve" smooth="yes"/>
      <point x="167" y="537"/>
      <point x="124" y="543"/>
      <point x="96" y="543" type="curve" smooth="yes"/>
      <point x="83" y="543"/>
      <point x="71" y="542"/>
      <point x="58" y="540" type="curve"/>
      <point x="67" y="505"/>
      <point x="71" y="477"/>
      <point x="71" y="437" type="curve" smooth="yes"/>
      <point x="71" y="49" type="line" smooth="yes"/>
      <point x="71" y="1"/>
      <point x="111" y="-6"/>
      <point x="162" y="-6" type="curve" smooth="yes"/>
      <point x="182" y="-6"/>
      <point x="199" y="-4"/>
    </contour>
    <contour>
      <point x="384" y="549" type="curve" smooth="yes"/>
      <point x="291" y="549"/>
      <point x="216" y="455"/>
      <point x="190" y="345" type="curve" smooth="yes"/>
      <point x="172" y="269"/>
      <point x="163" y="194"/>
      <point x="183" y="142" type="curve"/>
      <point x="221" y="349"/>
      <point x="278" y="403"/>
      <point x="329" y="403" type="curve" smooth="yes"/>
      <point x="366" y="403"/>
      <point x="390" y="377"/>
      <point x="407" y="327" type="curve"/>
      <point x="461" y="327"/>
      <point x="496" y="355"/>
      <point x="496" y="386" type="curve" smooth="yes"/>
      <point x="496" y="463"/>
      <point x="445" y="549"/>
    </contour>
    <contour>
      <point x="496" y="0" type="curve"/>
      <point x="496" y="386" type="line"/>
      <point x="496" y="414"/>
      <point x="469" y="430"/>
      <point x="385" y="428" type="curve"/>
      <point x="366" y="316"/>
      <point x="349" y="217"/>
      <point x="349" y="132" type="curve" smooth="yes"/>
      <point x="349" y="127" type="line" smooth="yes"/>
      <point x="349" y="21"/>
      <point x="384" y="-5"/>
      <point x="458" y="-5" type="curve" smooth="yes"/>
      <point x="473" y="-5"/>
      <point x="483" y="-4"/>
    </contour>
    <contour>
      <point x="667" y="549" type="curve" smooth="yes"/>
      <point x="575" y="549"/>
      <point x="497" y="457"/>
      <point x="470" y="347" type="curve" smooth="yes"/>
      <point x="453" y="272"/>
      <point x="444" y="194"/>
      <point x="464" y="142" type="curve"/>
      <point x="502" y="349"/>
      <point x="562" y="403"/>
      <point x="614" y="403" type="curve" smooth="yes"/>
      <point x="649" y="403"/>
      <point x="674" y="377"/>
      <point x="690" y="327" type="curve"/>
      <point x="745" y="327"/>
      <point x="779" y="355"/>
      <point x="779" y="386" type="curve" smooth="yes"/>
      <point x="779" y="463"/>
      <point x="729" y="549"/>
    </contour>
    <contour>
      <point x="798" y="0" type="curve"/>
      <point x="783" y="56"/>
      <point x="779" y="92"/>
      <point x="779" y="153" type="curve" smooth="yes"/>
      <point x="779" y="386" type="line"/>
      <point x="779" y="414"/>
      <point x="752" y="431"/>
      <point x="669" y="428" type="curve"/>
      <point x="649" y="314"/>
      <point x="633" y="221"/>
      <point x="633" y="134" type="curve" smooth="yes"/>
      <point x="633" y="129" type="line" smooth="yes"/>
      <point x="633" y="23"/>
      <point x="673" y="-5"/>
      <point x="748" y="-5" type="curve" smooth="yes"/>
      <point x="766" y="-5"/>
      <point x="781" y="-3"/>
    </contour>
  </outline>
</glyph>
<glyph name="n" format="1">
  <advance width="600"/>
  <unicode hex="006E"/>
  <outline>
    <contour>
      <point x="206" y="-1" type="curve"/>
      <point x="206" y="379" type="line" smooth="yes"/>
      <point x="206" y="450"/>
      <point x="193" y="488"/>
      <point x="166" y="515" type="curve" smooth="yes"/>
      <point x="144" y="537"/>
      <point x="121" y="544"/>
      <point x="92" y="544" type="curve" smooth="yes"/>
      <point x="80" y="544"/>
      <point x="69" y="543"/>
      <point x="58" y="540" type="curve"/>
      <point x="67" y="505"/>
      <point x="70" y="477"/>
      <point x="70" y="437" type="curve" smooth="yes"/>
      <point x="70" y="49" type="line" smooth="yes"/>
      <point x="70" y="2"/>
      <point x="106" y="-6"/>
      <point x="157" y="-6" type="curve" smooth="yes"/>
      <point x="176" y="-6"/>
      <point x="193" y="-4"/>
    </contour>
    <contour>
      <point x="412" y="549" type="curve" smooth="yes"/>
      <point x="317" y="549"/>
      <point x="224" y="455"/>
      <point x="193" y="341" type="curve" smooth="yes"/>
      <point x="173" y="260"/>
      <point x="176" y="194"/>
      <point x="197" y="134" type="curve"/>
      <point x="235" y="338"/>
      <point x="301" y="403"/>
      <point x="365" y="403" type="curve" smooth="yes"/>
      <point x="394" y="403"/>
      <point x="419" y="377"/>
      <point x="435" y="327" type="curve"/>
      <point x="490" y="327"/>
      <point x="524" y="355"/>
      <point x="524" y="386" type="curve" smooth="yes"/>
      <point x="524" y="463"/>
      <point x="474" y="549"/>
    </contour>
    <contour>
      <point x="543" y="0" type="curve"/>
      <point x="529" y="56"/>
      <point x="524" y="92"/>
      <point x="524" y="153" type="curve" smooth="yes"/>
      <point x="524" y="386" type="line"/>
      <point x="524" y="414"/>
      <point x="497" y="431"/>
      <point x="414" y="428" type="curve"/>
      <point x="394" y="314"/>
      <point x="378" y="221"/>
      <point x="378" y="134" type="curve" smooth="yes"/>
      <point x="378" y="129" type="line" smooth="yes"/>
      <point x="378" y="23"/>
      <point x="418" y="-5"/>
      <point x="493" y="-5" type="curve" smooth="yes"/>
      <point x="511" y="-5"/>
      <point x="526" y="-3"/>
    </contour>
    <contour>
      <point x="93" y="711" type="move" name="caronslovak"/>
    </contour>
    <contour>
      <point x="300" y="549" type="move" name="top"/>
    </contour>
    <contour>
      <point x="302" y="-1" type="move" name="bottom"/>
    </contour>
  </outline>
</glyph>
<glyph name="q" format="1">
  <advance width="600"/>
  <unicode hex="0071"/>
  <outline>
    <contour>
      <point x="257" y="549" type="curve" smooth="yes"/>
      <point x="152" y="549"/>
      <point x="46" y="452"/>
      <point x="46" y="217" type="curve" smooth="yes"/>
      <point x="46" y="196" type="line" smooth="yes"/>
      <point x="46" y="143"/>
      <point x="86" y="65"/>
      <point x="163" y="65" type="curve" smooth="yes"/>
      <point x="187" y="65"/>
      <point x="206" y="78"/>
      <point x="207" y="116" type="curve"/>
      <point x="188" y="140"/>
      <point x="183" y="161"/>
      <point x="183" y="225" type="curve" smooth="yes"/>
      <point x="183" y="236" type="line" smooth="yes"/>
      <point x="183" y="357"/>
      <point x="222" y="421"/>
      <point x="302" y="421" type="curve" smooth="yes"/>
      <point x="350" y="421"/>
      <point x="381" y="405"/>
      <point x="410" y="373" type="curve"/>
      <point x="426" y="398"/>
      <point x="437" y="438"/>
      <point x="422" y="461" type="curve" smooth="yes"/>
      <point x="401" y="503"/>
      <point x="336" y="549"/>
    </contour>
    <contour>
      <point x="202" y="-12" type="curve" smooth="yes"/>
      <point x="294" y="-12"/>
      <point x="388" y="76"/>
      <point x="415" y="177" type="curve" smooth="yes"/>
      <point x="427" y="224"/>
      <point x="421" y="287"/>
      <point x="405" y="323" type="curve"/>
      <point x="359" y="180"/>
      <point x="297" y="130"/>
      <point x="217" y="130" type="curve" smooth="yes"/>
      <point x="186" y="130"/>
      <point x="147" y="153"/>
      <point x="93" y="219" type="curve"/>
      <point x="60" y="215"/>
      <point x="46" y="205"/>
      <point x="46" y="196" type="curve" smooth="yes"/>
      <point x="46" y="81"/>
      <point x="120" y="-12"/>
    </contour>
    <contour>
      <point x="527" y="-203" type="curve"/>
      <point x="527" y="435" type="line" smooth="yes"/>
      <point x="527" y="476"/>
      <point x="531" y="503"/>
      <point x="540" y="538" type="curve"/>
      <point x="527" y="541"/>
      <point x="515" y="542"/>
      <point x="502" y="542" type="curve" smooth="yes"/>
      <point x="474" y="542"/>
      <point x="456" y="534"/>
      <point x="436" y="514" type="curve" smooth="yes"/>
      <point x="413" y="491"/>
      <point x="394" y="447"/>
      <point x="394" y="364" type="curve" smooth="yes"/>
      <point x="394" y="-112" type="line" smooth="yes"/>
      <point x="394" y="-184"/>
      <point x="431" y="-209"/>
      <point x="477" y="-209" type="curve" smooth="yes"/>
      <point x="497" y="-209"/>
      <point x="514" y="-207"/>
    </contour>
  </outline>
</glyph>
<glyph name="t" format="1">
  <advance width="500"/>
  <unicode hex="0074"/>
  <outline>
    <contour>
      <point x="129" y="700" type="curve"/>
      <point x="129" y="151" type="line" smooth="yes"/>
      <point x="129" y="83"/>
      <point x="219" y="5"/>
      <point x="301" y="31" type="curve"/>
      <point x="273" y="70"/>
      <point x="262" y="119"/>
      <point x="262" y="173" type="curve" smooth="yes"/>
      <point x="262" y="650" type="line" smooth="yes"/>
      <point x="262" y="698"/>
      <point x="225" y="705"/>
      <point x="180" y="705" type="curve" smooth="yes"/>
      <point x="160" y="705"/>
      <point x="143" y="704"/>
    </contour>
    <contour>
      <point x="442" y="150" type="curve"/>
      <point x="438" y="150" type="line"/>
      <point x="388" y="127"/>
      <point x="356" y="119"/>
      <point x="304" y="119" type="curve" smooth="yes"/>
      <point x="255" y="119"/>
      <point x="212" y="136"/>
      <point x="167" y="189" type="curve"/>
      <point x="143" y="187"/>
      <point x="129" y="172"/>
      <point x="129" y="151" type="curve" smooth="yes"/>
      <point x="129" y="62"/>
      <point x="212" y="-13"/>
      <point x="300" y="-13" type="curve" smooth="yes"/>
      <point x="310" y="-13" type="line" smooth="yes"/>
      <point x="379" y="-13"/>
      <point x="405" y="4"/>
      <point x="417" y="16" type="curve" smooth="yes"/>
      <point x="434" y="33"/>
      <point x="446" y="72"/>
      <point x="446" y="115" type="curve" smooth="yes"/>
      <point x="446" y="127"/>
      <point x="445" y="138"/>
    </contour>
    <contour>
      <point x="38" y="538" type="line"/>
      <point x="38" y="532"/>
      <point x="38" y="526"/>
      <point x="38" y="520" type="curve" smooth="yes"/>
      <point x="38" y="475"/>
      <point x="46" y="448"/>
      <point x="62" y="432" type="curve" smooth="yes"/>
      <point x="83" y="411"/>
      <point x="111" y="405"/>
      <point x="187" y="405" type="curve"/>
      <point x="440" y="405" type="line"/>
      <point x="443" y="419"/>
      <point x="446" y="439"/>
      <point x="446" y="459" type="curve" smooth="yes"/>
      <point x="446" y="517"/>
      <point x="431" y="538"/>
      <point x="381" y="538" type="curve"/>
    </contour>
    <contour>
      <point x="392" y="711" type="move" name="caronslovak"/>
    </contour>
    <contour>
      <point x="277" y="-1" type="move" name="bottom"/>
    </contour>
  </outline>
</glyph>
<glyph name="v" format="1">
  <advance width="600"/>
  <unicode hex="0076"/>
  <outline>
    <contour>
      <point x="428" y="548" type="curve" smooth="yes"/>
      <point x="407" y="548" type="line"/>
      <point x="382" y="288"/>
      <point x="356" y="176"/>
      <point x="260" y="97" type="curve"/>
      <point x="235" y="77"/>
      <point x="262" y="-10"/>
      <point x="314" y="-10" type="curve"/>
      <point x="352" y="-10" type="line"/>
      <point x="457" y="77"/>
      <point x="522" y="260"/>
      <point x="543" y="482" type="curve"/>
      <point x="546" y="520"/>
      <point x="487" y="548"/>
    </contour>
    <contour>
      <point x="74" y="548" type="curve" smooth="yes"/>
      <point x="53" y="548" type="line"/>
      <point x="76" y="289"/>
      <point x="124" y="127"/>
      <point x="218" y="33" type="curve"/>
      <point x="255" y="-4"/>
      <point x="284" y="-10"/>
      <point x="311" y="-10" type="curve" smooth="yes"/>
      <point x="321" y="-10" type="line" smooth="yes"/>
      <point x="356" y="-10"/>
      <point x="380" y="19"/>
      <point x="395" y="63" type="curve"/>
      <point x="388" y="63"/>
      <point x="384" y="63"/>
      <point x="378" y="63" type="curve" smooth="yes"/>
      <point x="370" y="63"/>
      <point x="361" y="66"/>
      <point x="349" y="75" type="curve"/>
      <point x="264" y="146"/>
      <point x="222" y="265"/>
      <point x="198" y="503" type="curve"/>
      <point x="195" y="529"/>
      <point x="133" y="548"/>
    </contour>
  </outline>
</glyph>
<glyph name="w" format="1">
  <advance width="800"/>
  <unicode hex="0077"/>
  <outline>
    <contour>
      <point x="49" y="543" type="curve"/>
      <point x="65" y="218"/>
      <point x="99" y="105"/>
      <point x="169" y="30" type="curve"/>
      <point x="198" y="-1"/>
      <point x="219" y="-10"/>
      <point x="244" y="-10" type="curve"/>
      <point x="265" y="-10" type="line" smooth="yes"/>
      <point x="279" y="-10"/>
      <point x="301" y="25"/>
      <point x="301" y="61" type="curve"/>
      <point x="240" y="107"/>
      <point x="209" y="193"/>
      <point x="194" y="495" type="curve"/>
      <point x="193" y="509"/>
      <point x="188" y="517"/>
      <point x="181" y="525" type="curve" smooth="yes"/>
      <point x="166" y="540"/>
      <point x="128" y="548"/>
      <point x="85" y="548" type="curve"/>
      <point x="73" y="548"/>
      <point x="58" y="546"/>
    </contour>
    <contour>
      <point x="337" y="531" type="curve"/>
      <point x="322" y="262"/>
      <point x="280" y="144"/>
      <point x="227" y="84" type="curve"/>
      <point x="210" y="66"/>
      <point x="241" y="-10"/>
      <point x="259" y="-10" type="curve"/>
      <point x="284" y="-10" type="line"/>
      <point x="354" y="65"/>
      <point x="412" y="252"/>
      <point x="434" y="456" type="curve"/>
      <point x="437" y="490"/>
      <point x="410" y="536"/>
      <point x="374" y="536" type="curve" smooth="yes"/>
      <point x="362" y="536"/>
      <point x="349" y="535"/>
    </contour>
    <contour>
      <point x="355" y="530" type="curve"/>
      <point x="376" y="312"/>
      <point x="430" y="97"/>
      <point x="502" y="19" type="curve"/>
      <point x="525" y="-6"/>
      <point x="549" y="-10"/>
      <point x="570" y="-10" type="curve"/>
      <point x="591" y="-10" type="line" smooth="yes"/>
      <point x="597" y="-10"/>
      <point x="599" y="26"/>
      <point x="599" y="61" type="curve"/>
      <point x="518" y="119"/>
      <point x="490" y="262"/>
      <point x="475" y="489" type="curve"/>
      <point x="473" y="526"/>
      <point x="424" y="536"/>
      <point x="374" y="536" type="curve" smooth="yes"/>
      <point x="364" y="536"/>
      <point x="358" y="535"/>
    </contour>
    <contour>
      <point x="623" y="543" type="curve"/>
      <point x="601" y="215"/>
      <point x="579" y="154"/>
      <point x="524" y="98" type="curve"/>
      <point x="500" y="76"/>
      <point x="542" y="-10"/>
      <point x="581" y="-10" type="curve"/>
      <point x="599" y="-10" type="line"/>
      <point x="700" y="84"/>
      <point x="736" y="240"/>
      <point x="758" y="475" type="curve"/>
      <point x="760" y="491"/>
      <point x="757" y="504"/>
      <point x="747" y="515" type="curve" smooth="yes"/>
      <point x="727" y="534"/>
      <point x="702" y="548"/>
      <point x="660" y="548" type="curve"/>
      <point x="648" y="548"/>
      <point x="634" y="546"/>
    </contour>
    <contour>
      <point x="403" y="549" type="move" name="top"/>
    </contour>
  </outline>
</glyph>
<glyph name="braceleft" format="1">
  <advance width="500"/>
  <unicode hex="007B"/>
  <outline>
    <contour>
      <point x="387" y="637" type="curve" smooth="yes"/>
      <point x="416" y="637"/>
      <point x="441" y="635"/>
      <point x="458" y="629" type="curve"/>
      <point x="462" y="629" type="line"/>
      <point x="465" y="643"/>
      <point x="467" y="655"/>
      <point x="467" y="675" type="curve"/>
      <point x="467" y="726"/>
      <point x="435" y="770"/>
      <point x="396" y="770" type="curve" smooth="yes"/>
      <point x="392" y="770" type="line" smooth="yes"/>
      <point x="270" y="770"/>
      <point x="179" y="722"/>
      <point x="179" y="650" type="curve" smooth="yes"/>
      <point x="179" y="647" type="line" smooth="yes"/>
      <point x="179" y="614"/>
      <point x="212" y="585"/>
      <point x="250" y="581" type="curve"/>
      <point x="281" y="624"/>
      <point x="328" y="637"/>
    </contour>
    <contour>
      <point x="340" y="433" type="curve" smooth="yes"/>
      <point x="340" y="538"/>
      <point x="276" y="593"/>
      <point x="276" y="633" type="curve" smooth="yes"/>
      <point x="276" y="653"/>
      <point x="280" y="668"/>
      <point x="291" y="687" type="curve"/>
      <point x="235" y="701"/>
      <point x="179" y="691"/>
      <point x="179" y="647" type="curve" smooth="yes"/>
      <point x="179" y="642" type="line" smooth="yes"/>
      <point x="179" y="594"/>
      <point x="215" y="538"/>
      <point x="215" y="460" type="curve" smooth="yes"/>
      <point x="215" y="393"/>
      <point x="170" y="360"/>
      <point x="62" y="360" type="curve" smooth="yes"/>
      <point x="56" y="360" type="line"/>
      <point x="56" y="350" type="line" smooth="yes"/>
      <point x="56" y="317"/>
      <point x="64" y="284"/>
      <point x="102" y="284" type="curve" smooth="yes"/>
      <point x="123" y="284" type="line" smooth="yes"/>
      <point x="241" y="284"/>
      <point x="340" y="343"/>
    </contour>
    <contour>
      <point x="340" y="166" type="curve" smooth="yes"/>
      <point x="340" y="264"/>
      <point x="247" y="314"/>
      <point x="126" y="314" type="curve" smooth="yes"/>
      <point x="83" y="314"/>
      <point x="69" y="336"/>
      <point x="56" y="354" type="curve"/>
      <point x="56" y="346" type="line" smooth="yes"/>
      <point x="56" y="288"/>
      <point x="77" y="238"/>
      <point x="111" y="238" type="curve" smooth="yes"/>
      <point x="113" y="238" type="line" smooth="yes"/>
      <point x="171" y="238"/>
      <point x="215" y="205"/>
      <point x="215" y="139" type="curve" smooth="yes"/>
      <point x="215" y="61"/>
      <point x="179" y="1"/>
      <point x="179" y="-48" type="curve" smooth="yes"/>
      <point x="179" y="-52" type="line" smooth="yes"/>
      <point x="179" y="-98"/>
      <point x="236" y="-107"/>
      <point x="292" y="-93" type="curve"/>
      <point x="280" y="-74"/>
      <point x="276" y="-58"/>
      <point x="276" y="-38" type="curve" smooth="yes"/>
      <point x="276" y="3"/>
      <point x="340" y="66"/>
    </contour>
    <contour>
      <point x="370" y="-38" type="curve" smooth="yes"/>
      <point x="317" y="-38"/>
      <point x="274" y="-26"/>
      <point x="249" y="10" type="curve"/>
      <point x="207" y="4"/>
      <point x="179" y="-27"/>
      <point x="179" y="-49" type="curve" smooth="yes"/>
      <point x="179" y="-54" type="line" smooth="yes"/>
      <point x="179" y="-127"/>
      <point x="242" y="-172"/>
      <point x="386" y="-172" type="curve" smooth="yes"/>
      <point x="391" y="-172" type="line" smooth="yes"/>
      <point x="437" y="-172"/>
      <point x="464" y="-118"/>
      <point x="464" y="-34" type="curve"/>
      <point x="464" y="-26" type="line"/>
      <point x="460" y="-26" type="line"/>
      <point x="429" y="-35"/>
      <point x="407" y="-38"/>
    </contour>
  </outline>
</glyph>
<glyph name="bar" format="1">
  <advance width="300"/>
  <unicode hex="007C"/>
  <outline>
    <contour>
      <point x="73" y="758" type="curve"/>
      <point x="82" y="723"/>
      <point x="85" y="686"/>
      <point x="85" y="646" type="curve" smooth="yes"/>
      <point x="85" y="-104" type="line" smooth="yes"/>
      <point x="85" y="-144"/>
      <point x="122" y="-163"/>
      <point x="194" y="-163" type="curve" smooth="yes"/>
      <point x="209" y="-163"/>
      <point x="219" y="-162"/>
      <point x="227" y="-161" type="curve"/>
      <point x="227" y="696" type="line" smooth="yes"/>
      <point x="227" y="721"/>
      <point x="223" y="734"/>
      <point x="212" y="745" type="curve" smooth="yes"/>
      <point x="198" y="759"/>
      <point x="176" y="765"/>
      <point x="132" y="765" type="curve" smooth="yes"/>
      <point x="110" y="765"/>
      <point x="94" y="763"/>
    </contour>
  </outline>
</glyph>
<glyph name="braceright" format="1">
  <advance width="500"/>
  <unicode hex="007D"/>
  <outline>
    <contour>
      <point x="113" y="-39" type="curve" smooth="yes"/>
      <point x="84" y="-39"/>
      <point x="59" y="-37"/>
      <point x="42" y="-31" type="curve"/>
      <point x="38" y="-31" type="line"/>
      <point x="35" y="-45"/>
      <point x="33" y="-57"/>
      <point x="33" y="-77" type="curve"/>
      <point x="33" y="-128"/>
      <point x="65" y="-172"/>
      <point x="104" y="-172" type="curve" smooth="yes"/>
      <point x="108" y="-172" type="line" smooth="yes"/>
      <point x="230" y="-172"/>
      <point x="321" y="-124"/>
      <point x="321" y="-52" type="curve" smooth="yes"/>
      <point x="321" y="-49" type="line" smooth="yes"/>
      <point x="321" y="-16"/>
      <point x="288" y="13"/>
      <point x="250" y="17" type="curve"/>
      <point x="219" y="-26"/>
      <point x="172" y="-39"/>
    </contour>
    <contour>
      <point x="160" y="165" type="curve" smooth="yes"/>
      <point x="160" y="60"/>
      <point x="224" y="5"/>
      <point x="224" y="-35" type="curve" smooth="yes"/>
      <point x="224" y="-55"/>
      <point x="220" y="-70"/>
      <point x="209" y="-89" type="curve"/>
      <point x="265" y="-103"/>
      <point x="321" y="-93"/>
      <point x="321" y="-49" type="curve" smooth="yes"/>
      <point x="321" y="-44" type="line" smooth="yes"/>
      <point x="321" y="4"/>
      <point x="285" y="60"/>
      <point x="285" y="138" type="curve" smooth="yes"/>
      <point x="285" y="205"/>
      <point x="330" y="238"/>
      <point x="438" y="238" type="curve" smooth="yes"/>
      <point x="444" y="238" type="line"/>
      <point x="444" y="248" type="line" smooth="yes"/>
      <point x="444" y="281"/>
      <point x="436" y="314"/>
      <point x="398" y="314" type="curve" smooth="yes"/>
      <point x="377" y="314" type="line" smooth="yes"/>
      <point x="259" y="314"/>
      <point x="160" y="255"/>
    </contour>
    <contour>
      <point x="160" y="432" type="curve" smooth="yes"/>
      <point x="160" y="334"/>
      <point x="253" y="284"/>
      <point x="374" y="284" type="curve" smooth="yes"/>
      <point x="417" y="284"/>
      <point x="431" y="262"/>
      <point x="444" y="244" type="curve"/>
      <point x="444" y="252" type="line" smooth="yes"/>
      <point x="444" y="310"/>
      <point x="423" y="360"/>
      <point x="389" y="360" type="curve" smooth="yes"/>
      <point x="387" y="360" type="line" smooth="yes"/>
      <point x="329" y="360"/>
      <point x="285" y="393"/>
      <point x="285" y="459" type="curve" smooth="yes"/>
      <point x="285" y="537"/>
      <point x="321" y="597"/>
      <point x="321" y="646" type="curve" smooth="yes"/>
      <point x="321" y="650" type="line" smooth="yes"/>
      <point x="321" y="696"/>
      <point x="264" y="705"/>
      <point x="208" y="691" type="curve"/>
      <point x="220" y="672"/>
      <point x="224" y="656"/>
      <point x="224" y="636" type="curve" smooth="yes"/>
      <point x="224" y="595"/>
      <point x="160" y="532"/>
    </contour>
    <contour>
      <point x="130" y="636" type="curve" smooth="yes"/>
      <point x="183" y="636"/>
      <point x="226" y="624"/>
      <point x="251" y="588" type="curve"/>
      <point x="293" y="594"/>
      <point x="321" y="625"/>
      <point x="321" y="647" type="curve" smooth="yes"/>
      <point x="321" y="652" type="line" smooth="yes"/>
      <point x="321" y="725"/>
      <point x="258" y="770"/>
      <point x="114" y="770" type="curve" smooth="yes"/>
      <point x="109" y="770" type="line" smooth="yes"/>
      <point x="63" y="770"/>
      <point x="36" y="716"/>
      <point x="36" y="632" type="curve"/>
      <point x="36" y="624" type="line"/>
      <point x="40" y="624" type="line"/>
      <point x="71" y="633"/>
      <point x="93" y="636"/>
    </contour>
  </outline>
</glyph>
<glyph name="asciitilde" format="1">
  <advance width="600"/>
  <unicode hex="007E"/>
  <outline>
    <contour>
      <point x="421" y="316" type="curve" smooth="yes"/>
      <point x="333" y="316"/>
      <point x="254" y="437"/>
      <point x="165" y="437" type="curve" smooth="yes"/>
      <point x="112" y="437"/>
      <point x="80" y="410"/>
      <point x="63" y="369" type="curve" smooth="yes"/>
      <point x="57" y="353"/>
      <point x="49" y="324"/>
      <point x="49" y="283" type="curve" smooth="yes"/>
      <point x="49" y="266"/>
      <point x="51" y="241"/>
      <point x="57" y="225" type="curve"/>
      <point x="61" y="225" type="line"/>
      <point x="101" y="267"/>
      <point x="132" y="284"/>
      <point x="179" y="284" type="curve" smooth="yes"/>
      <point x="267" y="284"/>
      <point x="346" y="163"/>
      <point x="435" y="163" type="curve" smooth="yes"/>
      <point x="488" y="163"/>
      <point x="520" y="190"/>
      <point x="537" y="231" type="curve" smooth="yes"/>
      <point x="543" y="247"/>
      <point x="551" y="276"/>
      <point x="551" y="317" type="curve" smooth="yes"/>
      <point x="551" y="334"/>
      <point x="549" y="359"/>
      <point x="543" y="375" type="curve"/>
      <point x="539" y="375" type="line"/>
      <point x="499" y="333"/>
      <point x="468" y="316"/>
    </contour>
  </outline>
</glyph>
<glyph name="exclamdown" format="1">
  <advance width="359"/>
  <unicode hex="00A1"/>
  <outline>
    <contour>
      <point x="125" y="254" type="line"/>
      <point x="111" y="186"/>
      <point x="99" y="84"/>
      <point x="99" y="16" type="curve"/>
      <point x="99" y="-111" type="line" smooth="yes"/>
      <point x="99" y="-156"/>
      <point x="147" y="-175"/>
      <point x="213" y="-175" type="curve" smooth="yes"/>
      <point x="235" y="-175"/>
      <point x="252" y="-174"/>
      <point x="272" y="-169" type="curve"/>
      <point x="263" y="-133"/>
      <point x="260" y="-96"/>
      <point x="260" y="-57" type="curve" smooth="yes"/>
      <point x="260" y="11" type="line"/>
      <point x="260" y="98"/>
      <point x="248" y="205"/>
      <point x="228" y="226" type="curve" smooth="yes"/>
      <point x="210" y="243"/>
      <point x="181" y="254"/>
      <point x="139" y="254" type="curve"/>
    </contour>
    <contour>
      <point x="83" y="538" type="curve"/>
      <point x="83" y="412" type="line" smooth="yes"/>
      <point x="83" y="354"/>
      <point x="144" y="343"/>
      <point x="203" y="343" type="curve" smooth="yes"/>
      <point x="226" y="343"/>
      <point x="253" y="345"/>
      <point x="276" y="350" type="curve"/>
      <point x="276" y="476" type="line" smooth="yes"/>
      <point x="276" y="534"/>
      <point x="215" y="545"/>
      <point x="156" y="545" type="curve" smooth="yes"/>
      <point x="133" y="545"/>
      <point x="105" y="542"/>
    </contour>
  </outline>
</glyph>
<glyph name="cent" format="1">
  <advance width="600"/>
  <unicode hex="00A2"/>
  <outline>
    <contour>
      <point x="371" y="382" type="line"/>
      <point x="434" y="681" type="line" smooth="yes"/>
      <point x="449" y="746"/>
      <point x="422" y="787"/>
      <point x="355" y="787" type="curve" smooth="yes"/>
      <point x="341" y="787"/>
      <point x="318" y="783"/>
      <point x="302" y="778" type="curve"/>
      <point x="313" y="750"/>
      <point x="318" y="723"/>
      <point x="318" y="680" type="curve"/>
      <point x="318" y="428" type="line" smooth="yes"/>
      <point x="318" y="399"/>
      <point x="344" y="382"/>
      <point x="367" y="382" type="curve" smooth="yes"/>
    </contour>
    <contour>
      <point x="318" y="312" type="line"/>
      <point x="255" y="13" type="line" smooth="yes"/>
      <point x="240" y="-52"/>
      <point x="267" y="-93"/>
      <point x="334" y="-93" type="curve" smooth="yes"/>
      <point x="348" y="-93"/>
      <point x="371" y="-89"/>
      <point x="386" y="-84" type="curve"/>
      <point x="376" y="-56"/>
      <point x="371" y="-29"/>
      <point x="371" y="14" type="curve"/>
      <point x="371" y="266" type="line" smooth="yes"/>
      <point x="371" y="295"/>
      <point x="345" y="312"/>
      <point x="322" y="312" type="curve" smooth="yes"/>
    </contour>
    <contour>
      <point x="356" y="630" type="curve" smooth="yes"/>
      <point x="178" y="630"/>
      <point x="55" y="508"/>
      <point x="55" y="320" type="curve" smooth="yes"/>
      <point x="55" y="309" type="line" smooth="yes"/>
      <point x="55" y="169"/>
      <point x="179" y="70"/>
      <point x="321" y="70" type="curve" smooth="yes"/>
      <point x="343" y="70"/>
      <point x="351" y="86"/>
      <point x="352" y="124" type="curve"/>
      <point x="213" y="175"/>
      <point x="188" y="244"/>
      <point x="188" y="311" type="curve" smooth="yes"/>
      <point x="188" y="320" type="line" smooth="yes"/>
      <point x="188" y="422"/>
      <point x="252" y="494"/>
      <point x="347" y="494" type="curve" smooth="yes"/>
      <point x="417" y="494"/>
      <point x="456" y="476"/>
      <point x="507" y="432" type="curve"/>
      <point x="511" y="432" type="line"/>
      <point x="521" y="459"/>
      <point x="525" y="483"/>
      <point x="525" y="513" type="curve" smooth="yes"/>
      <point x="525" y="552"/>
      <point x="519" y="572"/>
      <point x="501" y="589" type="curve" smooth="yes"/>
      <point x="477" y="613"/>
      <point x="427" y="630"/>
    </contour>
    <contour>
      <point x="157" y="301" type="curve"/>
      <point x="91" y="208"/>
      <point x="190" y="70"/>
      <point x="321" y="70" type="curve" smooth="yes"/>
      <point x="425" y="70"/>
      <point x="474" y="90"/>
      <point x="499" y="116" type="curve" smooth="yes"/>
      <point x="518" y="135"/>
      <point x="532" y="179"/>
      <point x="532" y="213" type="curve"/>
      <point x="532" y="233"/>
      <point x="531" y="244"/>
      <point x="528" y="257" type="curve"/>
      <point x="524" y="257" type="line"/>
      <point x="469" y="217"/>
      <point x="414" y="198"/>
      <point x="330" y="198" type="curve" smooth="yes"/>
      <point x="242" y="198"/>
      <point x="205" y="220"/>
    </contour>
  </outline>
</glyph>
<glyph name="sterling" format="1">
  <advance width="600"/>
  <unicode hex="00A3"/>
  <outline>
    <contour>
      <point x="336" y="587" type="curve" smooth="yes"/>
      <point x="421" y="587"/>
      <point x="480" y="573"/>
      <point x="532" y="518" type="curve"/>
      <point x="536" y="518" type="line"/>
      <point x="542" y="538"/>
      <point x="544" y="555"/>
      <point x="544" y="581" type="curve" smooth="yes"/>
      <point x="544" y="631"/>
      <point x="536" y="653"/>
      <point x="511" y="678" type="curve" smooth="yes"/>
      <point x="485" y="704"/>
      <point x="423" y="720"/>
      <point x="335" y="720" type="curve" smooth="yes"/>
      <point x="172" y="720"/>
      <point x="83" y="642"/>
      <point x="83" y="542" type="curve" smooth="yes"/>
      <point x="83" y="528" type="line" smooth="yes"/>
      <point x="83" y="496"/>
      <point x="125" y="485"/>
      <point x="201" y="480" type="curve"/>
      <point x="201" y="549"/>
      <point x="243" y="587"/>
    </contour>
    <contour>
      <point x="83" y="528" type="curve" smooth="yes"/>
      <point x="83" y="411"/>
      <point x="175" y="317"/>
      <point x="175" y="199" type="curve" smooth="yes"/>
      <point x="175" y="150"/>
      <point x="136" y="117"/>
      <point x="67" y="117" type="curve" smooth="yes"/>
      <point x="61" y="117"/>
      <point x="57" y="117"/>
      <point x="53" y="119" type="curve"/>
      <point x="49" y="119" type="line"/>
      <point x="45" y="101"/>
      <point x="43" y="88"/>
      <point x="43" y="68" type="curve" smooth="yes"/>
      <point x="43" y="11"/>
      <point x="60" y="-19"/>
      <point x="103" y="-19" type="curve" smooth="yes"/>
      <point x="110" y="-19" type="line" smooth="yes"/>
      <point x="211" y="-19"/>
      <point x="296" y="54"/>
      <point x="296" y="173" type="curve" smooth="yes"/>
      <point x="296" y="289"/>
      <point x="222" y="394"/>
      <point x="222" y="509" type="curve" smooth="yes"/>
      <point x="222" y="547"/>
      <point x="229" y="579"/>
      <point x="257" y="618" type="curve"/>
      <point x="145" y="618"/>
      <point x="83" y="583"/>
    </contour>
    <contour>
      <point x="204" y="89" type="curve"/>
      <point x="297" y="11"/>
      <point x="369" y="-19"/>
      <point x="468" y="-19" type="curve" smooth="yes"/>
      <point x="474" y="-19" type="line" smooth="yes"/>
      <point x="537" y="-19"/>
      <point x="560" y="15"/>
      <point x="560" y="90" type="curve"/>
      <point x="560" y="117"/>
      <point x="557" y="141"/>
      <point x="552" y="159" type="curve"/>
      <point x="548" y="159" type="line"/>
      <point x="521" y="135"/>
      <point x="492" y="123"/>
      <point x="442" y="123" type="curve" smooth="yes"/>
      <point x="372" y="123"/>
      <point x="315" y="134"/>
      <point x="222" y="176" type="curve"/>
      <point x="193" y="144"/>
      <point x="188" y="108"/>
    </contour>
    <contour>
      <point x="50" y="391" type="line"/>
      <point x="50" y="386"/>
      <point x="50" y="380"/>
      <point x="50" y="374" type="curve" smooth="yes"/>
      <point x="50" y="322"/>
      <point x="57" y="292"/>
      <point x="73" y="276" type="curve" smooth="yes"/>
      <point x="86" y="263"/>
      <point x="104" y="259"/>
      <point x="143" y="259" type="curve" smooth="yes"/>
      <point x="461" y="259" type="line"/>
      <point x="464" y="276"/>
      <point x="467" y="296"/>
      <point x="467" y="312" type="curve" smooth="yes"/>
      <point x="467" y="371"/>
      <point x="452" y="391"/>
      <point x="402" y="391" type="curve" smooth="yes"/>
    </contour>
  </outline>
</glyph>
<glyph name="currency" format="1">
  <advance width="600"/>
  <unicode hex="00A4"/>
  <outline>
    <contour>
      <point x="262" y="425" type="curve"/>
      <point x="239" y="443"/>
      <point x="217" y="465"/>
      <point x="198" y="489" type="curve" smooth="yes"/>
      <point x="184" y="506"/>
      <point x="170" y="515"/>
      <point x="156" y="515" type="curve" smooth="yes"/>
      <point x="140" y="515"/>
      <point x="123" y="506"/>
      <point x="104" y="487" type="curve" smooth="yes"/>
      <point x="93" y="476"/>
      <point x="81" y="460"/>
      <point x="71" y="445" type="curve"/>
      <point x="83" y="431"/>
      <point x="97" y="417"/>
      <point x="110" y="405" type="curve" smooth="yes"/>
      <point x="150" y="369"/>
      <point x="207" y="370"/>
      <point x="250" y="413" type="curve" smooth="yes"/>
      <point x="254" y="417"/>
      <point x="258" y="421"/>
    </contour>
    <contour>
      <point x="336" y="424" type="curve"/>
      <point x="340" y="420"/>
      <point x="344" y="416"/>
      <point x="348" y="412" type="curve" smooth="yes"/>
      <point x="392" y="368"/>
      <point x="441" y="361"/>
      <point x="486" y="400" type="curve" smooth="yes"/>
      <point x="501" y="413"/>
      <point x="515" y="429"/>
      <point x="528" y="444" type="curve"/>
      <point x="517" y="459"/>
      <point x="506" y="475"/>
      <point x="494" y="487" type="curve" smooth="yes"/>
      <point x="475" y="506"/>
      <point x="458" y="514"/>
      <point x="442" y="514" type="curve" smooth="yes"/>
      <point x="428" y="514"/>
      <point x="414" y="505"/>
      <point x="400" y="488" type="curve" smooth="yes"/>
      <point x="381" y="464"/>
      <point x="360" y="442"/>
    </contour>
    <contour>
      <point x="336" y="171" type="curve"/>
      <point x="359" y="153"/>
      <point x="381" y="131"/>
      <point x="400" y="108" type="curve" smooth="yes"/>
      <point x="414" y="90"/>
      <point x="428" y="81"/>
      <point x="442" y="81" type="curve" smooth="yes"/>
      <point x="458" y="81"/>
      <point x="475" y="90"/>
      <point x="494" y="109" type="curve" smooth="yes"/>
      <point x="505" y="121"/>
      <point x="517" y="136"/>
      <point x="527" y="151" type="curve"/>
      <point x="516" y="166"/>
      <point x="501" y="180"/>
      <point x="488" y="191" type="curve" smooth="yes"/>
      <point x="449" y="227"/>
      <point x="391" y="227"/>
      <point x="348" y="183" type="curve" smooth="yes"/>
      <point x="344" y="179"/>
      <point x="340" y="175"/>
    </contour>
    <contour>
      <point x="261" y="172" type="curve"/>
      <point x="258" y="176"/>
      <point x="254" y="180"/>
      <point x="249" y="184" type="curve" smooth="yes"/>
      <point x="205" y="228"/>
      <point x="157" y="235"/>
      <point x="112" y="196" type="curve" smooth="yes"/>
      <point x="97" y="183"/>
      <point x="83" y="167"/>
      <point x="70" y="152" type="curve"/>
      <point x="80" y="137"/>
      <point x="92" y="121"/>
      <point x="104" y="109" type="curve" smooth="yes"/>
      <point x="123" y="90"/>
      <point x="140" y="82"/>
      <point x="155" y="82" type="curve" smooth="yes"/>
      <point x="169" y="82"/>
      <point x="183" y="91"/>
      <point x="197" y="108" type="curve" smooth="yes"/>
      <point x="217" y="132"/>
      <point x="237" y="154"/>
    </contour>
    <contour>
      <point x="318" y="193" type="curve"/>
      <point x="257" y="193"/>
      <point x="220" y="232"/>
      <point x="220" y="294" type="curve" smooth="yes"/>
      <point x="220" y="302" type="line" smooth="yes"/>
      <point x="220" y="358"/>
      <point x="250" y="389"/>
      <point x="307" y="389" type="curve" smooth="yes"/>
      <point x="335" y="389"/>
      <point x="355" y="382"/>
      <point x="381" y="358" type="curve"/>
      <point x="403" y="410"/>
      <point x="371" y="478"/>
      <point x="302" y="478" type="curve"/>
      <point x="200" y="478"/>
      <point x="128" y="405"/>
      <point x="128" y="302" type="curve" smooth="yes"/>
      <point x="128" y="295" type="line" smooth="yes"/>
      <point x="128" y="194"/>
      <point x="199" y="127"/>
      <point x="296" y="127" type="curve"/>
      <point x="313" y="127"/>
      <point x="318" y="152"/>
    </contour>
    <contour>
      <point x="280" y="403" type="curve"/>
      <point x="341" y="403"/>
      <point x="378" y="367"/>
      <point x="378" y="310" type="curve" smooth="yes"/>
      <point x="378" y="302" type="line" smooth="yes"/>
      <point x="378" y="247"/>
      <point x="348" y="216"/>
      <point x="291" y="216" type="curve" smooth="yes"/>
      <point x="263" y="216"/>
      <point x="243" y="223"/>
      <point x="217" y="247" type="curve"/>
      <point x="195" y="194"/>
      <point x="227" y="127"/>
      <point x="296" y="127" type="curve"/>
      <point x="398" y="127"/>
      <point x="470" y="199"/>
      <point x="470" y="302" type="curve" smooth="yes"/>
      <point x="470" y="310" type="line" smooth="yes"/>
      <point x="470" y="411"/>
      <point x="399" y="478"/>
      <point x="302" y="478" type="curve"/>
      <point x="285" y="478"/>
      <point x="280" y="460"/>
    </contour>
  </outline>
</glyph>
<glyph name="brokenbar" format="1">
  <advance width="300"/>
  <unicode hex="00A6"/>
  <outline>
    <contour>
      <point x="67" y="758" type="curve"/>
      <point x="76" y="723"/>
      <point x="79" y="686"/>
      <point x="79" y="646" type="curve" smooth="yes"/>
      <point x="79" y="426" type="line" smooth="yes"/>
      <point x="79" y="386"/>
      <point x="116" y="367"/>
      <point x="188" y="367" type="curve" smooth="yes"/>
      <point x="203" y="367"/>
      <point x="213" y="368"/>
      <point x="221" y="369" type="curve"/>
      <point x="221" y="696" type="line" smooth="yes"/>
      <point x="221" y="721"/>
      <point x="217" y="734"/>
      <point x="206" y="745" type="curve" smooth="yes"/>
      <point x="192" y="759"/>
      <point x="170" y="765"/>
      <point x="126" y="765" type="curve" smooth="yes"/>
      <point x="104" y="765"/>
      <point x="88" y="763"/>
    </contour>
    <contour>
      <point x="79" y="228" type="curve"/>
      <point x="79" y="-104" type="line"/>
      <point x="79" y="-144"/>
      <point x="116" y="-163"/>
      <point x="188" y="-163" type="curve" smooth="yes"/>
      <point x="203" y="-163"/>
      <point x="213" y="-162"/>
      <point x="221" y="-161" type="curve"/>
      <point x="221" y="170" type="line" smooth="yes"/>
      <point x="221" y="217"/>
      <point x="195" y="235"/>
      <point x="131" y="235" type="curve" smooth="yes"/>
      <point x="111" y="235"/>
      <point x="93" y="233"/>
    </contour>
  </outline>
</glyph>
<glyph name="copyright" format="1">
  <advance width="600"/>
  <unicode hex="00A9"/>
  <outline>
    <contour>
      <point x="300" y="715" type="curve" smooth="yes"/>
      <point x="119" y="715"/>
      <point x="15" y="597"/>
      <point x="15" y="367" type="curve" smooth="yes"/>
      <point x="15" y="343" type="line" smooth="yes"/>
      <point x="15" y="103"/>
      <point x="116" y="-15"/>
      <point x="300" y="-15" type="curve" smooth="yes"/>
      <point x="334" y="-15"/>
      <point x="344" y="7"/>
      <point x="344" y="27" type="curve"/>
      <point x="176" y="27"/>
      <point x="77" y="118"/>
      <point x="77" y="327" type="curve" smooth="yes"/>
      <point x="77" y="374" type="line" smooth="yes"/>
      <point x="77" y="572"/>
      <point x="156" y="656"/>
      <point x="300" y="656" type="curve" smooth="yes"/>
      <point x="362" y="656"/>
      <point x="422" y="634"/>
      <point x="485" y="594" type="curve"/>
      <point x="520" y="651"/>
      <point x="388" y="715"/>
    </contour>
    <contour>
      <point x="300" y="-15" type="curve" smooth="yes"/>
      <point x="481" y="-15"/>
      <point x="585" y="104"/>
      <point x="585" y="333" type="curve" smooth="yes"/>
      <point x="585" y="357" type="line" smooth="yes"/>
      <point x="585" y="597"/>
      <point x="484" y="715"/>
      <point x="300" y="715" type="curve" smooth="yes"/>
      <point x="266" y="715"/>
      <point x="256" y="693"/>
      <point x="256" y="673" type="curve"/>
      <point x="424" y="673"/>
      <point x="523" y="582"/>
      <point x="523" y="373" type="curve" smooth="yes"/>
      <point x="523" y="326" type="line" smooth="yes"/>
      <point x="523" y="128"/>
      <point x="444" y="44"/>
      <point x="300" y="44" type="curve" smooth="yes"/>
      <point x="238" y="44"/>
      <point x="176" y="65"/>
      <point x="115" y="106" type="curve"/>
      <point x="87" y="46"/>
      <point x="212" y="-15"/>
    </contour>
    <contour>
      <point x="308" y="491" type="curve" smooth="yes"/>
      <point x="350" y="491"/>
      <point x="375" y="469"/>
      <point x="387" y="430" type="curve"/>
      <point x="414" y="430"/>
      <point x="422" y="451"/>
      <point x="422" y="464" type="curve" smooth="yes"/>
      <point x="422" y="487"/>
      <point x="413" y="510"/>
      <point x="391" y="533" type="curve" smooth="yes"/>
      <point x="368" y="556"/>
      <point x="343" y="566"/>
      <point x="306" y="566" type="curve" smooth="yes"/>
      <point x="210" y="566"/>
      <point x="162" y="493"/>
      <point x="162" y="349" type="curve" smooth="yes"/>
      <point x="162" y="338" type="line" smooth="yes"/>
      <point x="162" y="296"/>
      <point x="202" y="163"/>
      <point x="282" y="192" type="curve"/>
      <point x="253" y="239"/>
      <point x="245" y="274"/>
      <point x="245" y="344" type="curve" smooth="yes"/>
      <point x="245" y="355" type="line" smooth="yes"/>
      <point x="245" y="450"/>
      <point x="265" y="491"/>
    </contour>
    <contour>
      <point x="307" y="134" type="curve" smooth="yes"/>
      <point x="353" y="134"/>
      <point x="388" y="149"/>
      <point x="402" y="167" type="curve"/>
      <point x="416" y="184"/>
      <point x="418" y="201"/>
      <point x="418" y="223" type="curve" smooth="yes"/>
      <point x="418" y="237"/>
      <point x="416" y="255"/>
      <point x="412" y="264" type="curve"/>
      <point x="408" y="264" type="line"/>
      <point x="377" y="228"/>
      <point x="354" y="211"/>
      <point x="313" y="211" type="curve" smooth="yes"/>
      <point x="263" y="211"/>
      <point x="229" y="243"/>
      <point x="225" y="369" type="curve"/>
      <point x="181" y="369"/>
      <point x="162" y="369"/>
      <point x="162" y="338" type="curve" smooth="yes"/>
      <point x="162" y="196"/>
      <point x="212" y="134"/>
    </contour>
    <contour>
      <point x="422" y="407" type="curve"/>
      <point x="422" y="464" type="line" smooth="yes"/>
      <point x="422" y="479"/>
      <point x="397" y="534"/>
      <point x="360" y="524" type="curve"/>
      <point x="346" y="487"/>
      <point x="343" y="471"/>
      <point x="343" y="439" type="curve" smooth="yes"/>
      <point x="343" y="431" type="line" smooth="yes"/>
      <point x="343" y="407"/>
      <point x="356" y="399"/>
      <point x="382" y="399" type="curve" smooth="yes"/>
      <point x="400" y="399"/>
      <point x="410" y="401"/>
    </contour>
  </outline>
</glyph>
<glyph name="logicalnot" format="1">
  <advance width="600"/>
  <unicode hex="00AC"/>
  <outline>
    <contour>
      <point x="52" y="447" type="line"/>
      <point x="52" y="442"/>
      <point x="52" y="436"/>
      <point x="52" y="430" type="curve" smooth="yes"/>
      <point x="52" y="385"/>
      <point x="59" y="361"/>
      <point x="75" y="344" type="curve" smooth="yes"/>
      <point x="88" y="331"/>
      <point x="105" y="327"/>
      <point x="144" y="327" type="curve"/>
      <point x="537" y="327" type="line"/>
      <point x="537" y="338" type="line"/>
      <point x="537" y="413"/>
      <point x="520" y="447"/>
      <point x="473" y="447" type="curve"/>
    </contour>
    <contour>
      <point x="537" y="138" type="curve"/>
      <point x="537" y="338" type="line" smooth="yes"/>
      <point x="537" y="366"/>
      <point x="496" y="376"/>
      <point x="421" y="376" type="curve"/>
      <point x="404" y="376" type="line"/>
      <point x="404" y="188" type="line" smooth="yes"/>
      <point x="404" y="140"/>
      <point x="437" y="133"/>
      <point x="487" y="133" type="curve" smooth="yes"/>
      <point x="507" y="133"/>
      <point x="524" y="135"/>
    </contour>
  </outline>
</glyph>
<glyph name="uni00AD" format="1">
  <advance width="600"/>
  <unicode hex="00AD"/>
  <outline>
    <contour>
      <point x="102" y="366" type="line"/>
      <point x="102" y="360"/>
      <point x="102" y="354"/>
      <point x="102" y="348" type="curve" smooth="yes"/>
      <point x="102" y="296"/>
      <point x="109" y="266"/>
      <point x="125" y="250" type="curve" smooth="yes"/>
      <point x="138" y="237"/>
      <point x="155" y="233"/>
      <point x="194" y="233" type="curve"/>
      <point x="502" y="233" type="line"/>
      <point x="506" y="251"/>
      <point x="508" y="270"/>
      <point x="508" y="287" type="curve" smooth="yes"/>
      <point x="508" y="345"/>
      <point x="493" y="366"/>
      <point x="444" y="366" type="curve"/>
    </contour>
  </outline>
</glyph>
<glyph name="registered" format="1">
  <advance width="600"/>
  <unicode hex="00AE"/>
  <outline>
    <contour>
      <point x="272" y="330" type="curve"/>
      <point x="267" y="355"/>
      <point x="265" y="378"/>
      <point x="265" y="404" type="curve"/>
      <point x="265" y="532" type="line"/>
      <point x="265" y="570"/>
      <point x="243" y="584"/>
      <point x="190" y="584" type="curve"/>
      <point x="190" y="365" type="line" smooth="yes"/>
      <point x="190" y="341"/>
      <point x="206" y="324"/>
      <point x="240" y="324" type="curve" smooth="yes"/>
      <point x="250" y="324"/>
      <point x="261" y="324"/>
    </contour>
    <contour>
      <point x="170" y="629" type="curve"/>
      <point x="166" y="620"/>
      <point x="164" y="610"/>
      <point x="164" y="596" type="curve"/>
      <point x="164" y="571"/>
      <point x="171" y="560"/>
      <point x="181" y="560" type="curve"/>
      <point x="185" y="560"/>
      <point x="189" y="561"/>
      <point x="197" y="563" type="curve" smooth="yes"/>
      <point x="225" y="568"/>
      <point x="265" y="572"/>
      <point x="293" y="572" type="curve" smooth="yes"/>
      <point x="338" y="572"/>
      <point x="358" y="568"/>
      <point x="380" y="552" type="curve"/>
      <point x="413" y="581"/>
      <point x="366" y="641"/>
      <point x="315" y="641" type="curve" smooth="yes"/>
      <point x="274" y="641"/>
      <point x="223" y="638"/>
    </contour>
    <contour>
      <point x="428" y="539" type="curve" smooth="yes"/>
      <point x="428" y="549" type="line" smooth="yes"/>
      <point x="428" y="594"/>
      <point x="394" y="641"/>
      <point x="315" y="641" type="curve"/>
      <point x="290" y="641"/>
      <point x="266" y="622"/>
      <point x="266" y="590" type="curve"/>
      <point x="334" y="590"/>
      <point x="354" y="578"/>
      <point x="354" y="546" type="curve" smooth="yes"/>
      <point x="354" y="539" type="line" smooth="yes"/>
      <point x="354" y="506"/>
      <point x="315" y="485"/>
      <point x="247" y="485" type="curve" smooth="yes"/>
      <point x="230" y="485"/>
      <point x="226" y="485"/>
      <point x="222" y="485" type="curve"/>
      <point x="219" y="478"/>
      <point x="219" y="473"/>
      <point x="219" y="458" type="curve" smooth="yes"/>
      <point x="219" y="440"/>
      <point x="226" y="419"/>
      <point x="247" y="419" type="curve" smooth="yes"/>
      <point x="249" y="419" type="line" smooth="yes"/>
      <point x="344" y="419"/>
      <point x="428" y="468"/>
    </contour>
    <contour>
      <point x="357" y="488" type="line"/>
      <point x="330" y="481"/>
      <point x="296" y="453"/>
      <point x="302" y="438" type="curve" smooth="yes"/>
      <point x="326" y="373" type="line" smooth="yes"/>
      <point x="338" y="343"/>
      <point x="359" y="324"/>
      <point x="386" y="324" type="curve" smooth="yes"/>
      <point x="391" y="324" type="line" smooth="yes"/>
      <point x="415" y="324"/>
      <point x="428" y="339"/>
      <point x="428" y="370" type="curve"/>
      <point x="428" y="384"/>
      <point x="427" y="392"/>
      <point x="423" y="402" type="curve"/>
      <point x="421" y="402" type="line"/>
      <point x="417" y="398"/>
      <point x="411" y="397"/>
      <point x="404" y="397" type="curve"/>
      <point x="395" y="397"/>
      <point x="390" y="400"/>
      <point x="380" y="427" type="curve" smooth="yes"/>
    </contour>
    <contour>
      <point x="300" y="760" type="curve" smooth="yes"/>
      <point x="136" y="760"/>
      <point x="42" y="670"/>
      <point x="42" y="495" type="curve" smooth="yes"/>
      <point x="42" y="473" type="line" smooth="yes"/>
      <point x="42" y="292"/>
      <point x="134" y="202"/>
      <point x="300" y="202" type="curve" smooth="yes"/>
      <point x="331" y="202"/>
      <point x="340" y="222"/>
      <point x="340" y="240" type="curve"/>
      <point x="188" y="240"/>
      <point x="97" y="306"/>
      <point x="97" y="459" type="curve" smooth="yes"/>
      <point x="97" y="502" type="line" smooth="yes"/>
      <point x="97" y="646"/>
      <point x="170" y="707"/>
      <point x="300" y="707" type="curve" smooth="yes"/>
      <point x="356" y="707"/>
      <point x="412" y="690"/>
      <point x="468" y="654" type="curve"/>
      <point x="496" y="704"/>
      <point x="379" y="760"/>
    </contour>
    <contour>
      <point x="300" y="202" type="curve" smooth="yes"/>
      <point x="464" y="202"/>
      <point x="558" y="292"/>
      <point x="558" y="465" type="curve" smooth="yes"/>
      <point x="558" y="487" type="line" smooth="yes"/>
      <point x="558" y="670"/>
      <point x="466" y="760"/>
      <point x="300" y="760" type="curve" smooth="yes"/>
      <point x="269" y="760"/>
      <point x="260" y="740"/>
      <point x="260" y="722" type="curve"/>
      <point x="412" y="722"/>
      <point x="503" y="655"/>
      <point x="503" y="502" type="curve" smooth="yes"/>
      <point x="503" y="459" type="line" smooth="yes"/>
      <point x="503" y="316"/>
      <point x="430" y="255"/>
      <point x="300" y="255" type="curve" smooth="yes"/>
      <point x="244" y="255"/>
      <point x="186" y="271"/>
      <point x="132" y="308" type="curve"/>
      <point x="110" y="255"/>
      <point x="221" y="202"/>
    </contour>
  </outline>
</glyph>
<glyph name="macron" format="1">
  <advance width="600"/>
  <unicode hex="00AF"/>
  <outline>
    <contour>
      <point x="98" y="732" type="line"/>
      <point x="98" y="726"/>
      <point x="98" y="720"/>
      <point x="98" y="714" type="curve" smooth="yes"/>
      <point x="98" y="647"/>
      <point x="119" y="624"/>
      <point x="223" y="624" type="curve"/>
      <point x="497" y="624" type="line"/>
      <point x="500" y="636"/>
      <point x="503" y="653"/>
      <point x="503" y="669" type="curve" smooth="yes"/>
      <point x="503" y="714"/>
      <point x="488" y="732"/>
      <point x="439" y="732" type="curve"/>
    </contour>
  </outline>
</glyph>
<glyph name="degree" format="1">
  <advance width="600"/>
  <unicode hex="00B0"/>
  <outline>
    <contour>
      <point x="318" y="425" type="curve"/>
      <point x="257" y="425"/>
      <point x="220" y="464"/>
      <point x="220" y="527" type="curve" smooth="yes"/>
      <point x="220" y="534" type="line" smooth="yes"/>
      <point x="220" y="590"/>
      <point x="250" y="621"/>
      <point x="307" y="621" type="curve" smooth="yes"/>
      <point x="335" y="621"/>
      <point x="355" y="614"/>
      <point x="381" y="590" type="curve"/>
      <point x="403" y="643"/>
      <point x="371" y="710"/>
      <point x="302" y="710" type="curve"/>
      <point x="200" y="710"/>
      <point x="128" y="638"/>
      <point x="128" y="535" type="curve" smooth="yes"/>
      <point x="128" y="527" type="line" smooth="yes"/>
      <point x="128" y="426"/>
      <point x="199" y="359"/>
      <point x="296" y="359" type="curve"/>
      <point x="313" y="359"/>
      <point x="318" y="384"/>
    </contour>
    <contour>
      <point x="280" y="635" type="curve"/>
      <point x="341" y="635"/>
      <point x="378" y="599"/>
      <point x="378" y="542" type="curve" smooth="yes"/>
      <point x="378" y="534" type="line" smooth="yes"/>
      <point x="378" y="479"/>
      <point x="348" y="448"/>
      <point x="291" y="448" type="curve" smooth="yes"/>
      <point x="263" y="448"/>
      <point x="243" y="455"/>
      <point x="217" y="479" type="curve"/>
      <point x="195" y="426"/>
      <point x="227" y="359"/>
      <point x="296" y="359" type="curve"/>
      <point x="398" y="359"/>
      <point x="470" y="431"/>
      <point x="470" y="534" type="curve" smooth="yes"/>
      <point x="470" y="542" type="line" smooth="yes"/>
      <point x="470" y="643"/>
      <point x="399" y="710"/>
      <point x="302" y="710" type="curve"/>
      <point x="285" y="710"/>
      <point x="280" y="692"/>
    </contour>
  </outline>
</glyph>
<glyph name="twosuperior" format="1">
  <advance width="600"/>
  <unicode hex="00B2"/>
  <outline>
    <contour>
      <point x="288" y="620" type="curve" smooth="yes"/>
      <point x="342" y="620"/>
      <point x="366" y="607"/>
      <point x="391" y="576" type="curve"/>
      <point x="431" y="588"/>
      <point x="439" y="603"/>
      <point x="439" y="615" type="curve" smooth="yes"/>
      <point x="439" y="662"/>
      <point x="412" y="710"/>
      <point x="299" y="710" type="curve" smooth="yes"/>
      <point x="241" y="710"/>
      <point x="199" y="699"/>
      <point x="181" y="681" type="curve" smooth="yes"/>
      <point x="167" y="667"/>
      <point x="164" y="648"/>
      <point x="164" y="624" type="curve" smooth="yes"/>
      <point x="164" y="609"/>
      <point x="166" y="598"/>
      <point x="169" y="588" type="curve"/>
      <point x="171" y="588" type="line"/>
      <point x="211" y="612"/>
      <point x="244" y="620"/>
    </contour>
    <contour>
      <point x="328" y="640" type="curve"/>
      <point x="334" y="627"/>
      <point x="336" y="618"/>
      <point x="336" y="606" type="curve" smooth="yes"/>
      <point x="336" y="592"/>
      <point x="326" y="585"/>
      <point x="265" y="562" type="curve" smooth="yes"/>
      <point x="170" y="528"/>
      <point x="156" y="480"/>
      <point x="156" y="429" type="curve" smooth="yes"/>
      <point x="156" y="409"/>
      <point x="165" y="411"/>
      <point x="214" y="411" type="curve"/>
      <point x="214" y="458"/>
      <point x="227" y="489"/>
      <point x="314" y="510" type="curve" smooth="yes"/>
      <point x="410" y="533"/>
      <point x="439" y="563"/>
      <point x="439" y="613" type="curve" smooth="yes"/>
      <point x="439" y="615" type="line" smooth="yes"/>
      <point x="439" y="638"/>
      <point x="412" y="652"/>
    </contour>
    <contour>
      <point x="440" y="368" type="line"/>
      <point x="443" y="381"/>
      <point x="445" y="395"/>
      <point x="445" y="408" type="curve" smooth="yes"/>
      <point x="445" y="455"/>
      <point x="430" y="469"/>
      <point x="383" y="469" type="curve" smooth="yes"/>
      <point x="373" y="469" type="line" smooth="yes"/>
      <point x="306" y="469"/>
      <point x="227" y="462"/>
      <point x="156" y="429" type="curve"/>
      <point x="156" y="428"/>
      <point x="156" y="427"/>
      <point x="156" y="426" type="curve" smooth="yes"/>
      <point x="156" y="395"/>
      <point x="173" y="368"/>
      <point x="197" y="368" type="curve" smooth="yes"/>
    </contour>
  </outline>
</glyph>
<glyph name="threesuperior" format="1">
  <advance width="600"/>
  <unicode hex="00B3"/>
  <outline>
    <contour>
      <point x="281" y="626" type="curve" smooth="yes"/>
      <point x="330" y="626"/>
      <point x="353" y="610"/>
      <point x="353" y="587" type="curve" smooth="yes"/>
      <point x="353" y="579"/>
      <point x="352" y="574"/>
      <point x="351" y="569" type="curve"/>
      <point x="382" y="571"/>
      <point x="430" y="605"/>
      <point x="430" y="618" type="curve" smooth="yes"/>
      <point x="430" y="625" type="line" smooth="yes"/>
      <point x="430" y="672"/>
      <point x="381" y="711"/>
      <point x="299" y="711" type="curve"/>
      <point x="252" y="711"/>
      <point x="211" y="699"/>
      <point x="194" y="683" type="curve" smooth="yes"/>
      <point x="179" y="667"/>
      <point x="173" y="649"/>
      <point x="173" y="624" type="curve" smooth="yes"/>
      <point x="173" y="610"/>
      <point x="174" y="600"/>
      <point x="179" y="585" type="curve"/>
      <point x="181" y="585" type="line"/>
      <point x="212" y="617"/>
      <point x="245" y="626"/>
    </contour>
    <contour>
      <point x="259" y="525" type="curve" smooth="yes"/>
      <point x="378" y="525"/>
      <point x="430" y="571"/>
      <point x="430" y="618" type="curve" smooth="yes"/>
      <point x="430" y="642"/>
      <point x="390" y="656"/>
      <point x="361" y="656" type="curve"/>
      <point x="362" y="654"/>
      <point x="362" y="651"/>
      <point x="362" y="647" type="curve" smooth="yes"/>
      <point x="362" y="586"/>
      <point x="316" y="564"/>
      <point x="239" y="564" type="curve"/>
      <point x="237" y="557"/>
      <point x="236" y="552"/>
      <point x="236" y="540" type="curve" smooth="yes"/>
      <point x="236" y="528"/>
      <point x="254" y="525"/>
    </contour>
    <contour>
      <point x="261" y="504" type="curve" smooth="yes"/>
      <point x="321" y="499"/>
      <point x="368" y="475"/>
      <point x="368" y="439" type="curve" smooth="yes"/>
      <point x="368" y="437"/>
      <point x="368" y="434"/>
      <point x="367" y="431" type="curve"/>
      <point x="399" y="431"/>
      <point x="435" y="442"/>
      <point x="435" y="452" type="curve" smooth="yes"/>
      <point x="435" y="532"/>
      <point x="350" y="548"/>
      <point x="240" y="548" type="curve"/>
      <point x="239" y="543"/>
      <point x="236" y="543"/>
      <point x="236" y="540" type="curve" smooth="yes"/>
      <point x="236" y="515"/>
      <point x="243" y="505"/>
    </contour>
    <contour>
      <point x="290" y="441" type="curve" smooth="yes"/>
      <point x="242" y="441"/>
      <point x="206" y="451"/>
      <point x="174" y="481" type="curve"/>
      <point x="172" y="481" type="line"/>
      <point x="166" y="468"/>
      <point x="164" y="456"/>
      <point x="164" y="438" type="curve" smooth="yes"/>
      <point x="164" y="411"/>
      <point x="168" y="398"/>
      <point x="180" y="385" type="curve" smooth="yes"/>
      <point x="197" y="369"/>
      <point x="246" y="357"/>
      <point x="299" y="357" type="curve" smooth="yes"/>
      <point x="385" y="357"/>
      <point x="435" y="397"/>
      <point x="435" y="444" type="curve" smooth="yes"/>
      <point x="435" y="452" type="line" smooth="yes"/>
      <point x="435" y="477"/>
      <point x="406" y="486"/>
      <point x="360" y="488" type="curve"/>
      <point x="361" y="483"/>
      <point x="362" y="477"/>
      <point x="362" y="471" type="curve" smooth="yes"/>
      <point x="362" y="452"/>
      <point x="339" y="441"/>
    </contour>
  </outline>
</glyph>
<glyph name="paragraph" format="1">
  <advance width="600"/>
  <unicode hex="00B6"/>
  <outline>
    <contour>
      <point x="337" y="-151" type="curve"/>
      <point x="337" y="485" type="line"/>
      <point x="337" y="608"/>
      <point x="304" y="636"/>
      <point x="259" y="636" type="curve" smooth="yes"/>
      <point x="246" y="636"/>
      <point x="238" y="633"/>
      <point x="227" y="626" type="curve"/>
      <point x="227" y="-78" type="line" smooth="yes"/>
      <point x="227" y="-134"/>
      <point x="247" y="-160"/>
      <point x="298" y="-160" type="curve" smooth="yes"/>
      <point x="316" y="-160"/>
      <point x="326" y="-157"/>
    </contour>
    <contour>
      <point x="534" y="-154" type="curve"/>
      <point x="526" y="-118"/>
      <point x="522" y="-81"/>
      <point x="522" y="-42" type="curve" smooth="yes"/>
      <point x="522" y="577" type="line" smooth="yes"/>
      <point x="522" y="616"/>
      <point x="491" y="636"/>
      <point x="429" y="636" type="curve" smooth="yes"/>
      <point x="421" y="636"/>
      <point x="417" y="636"/>
      <point x="413" y="636" type="curve"/>
      <point x="413" y="-75" type="line" smooth="yes"/>
      <point x="413" y="-134"/>
      <point x="435" y="-160"/>
      <point x="485" y="-160" type="curve" smooth="yes"/>
      <point x="505" y="-160"/>
      <point x="518" y="-158"/>
    </contour>
    <contour>
      <point x="373" y="710" type="line" smooth="yes"/>
      <point x="175" y="710"/>
      <point x="37" y="591"/>
      <point x="37" y="411" type="curve" smooth="yes"/>
      <point x="37" y="400" type="line" smooth="yes"/>
      <point x="37" y="287"/>
      <point x="97" y="215"/>
      <point x="194" y="215" type="curve" smooth="yes"/>
      <point x="201" y="215" type="line" smooth="yes"/>
      <point x="242" y="215"/>
      <point x="329" y="237"/>
      <point x="329" y="320" type="curve"/>
      <point x="318" y="320" type="line" smooth="yes"/>
      <point x="265" y="320"/>
      <point x="243" y="353"/>
      <point x="243" y="407" type="curve" smooth="yes"/>
      <point x="243" y="416" type="line" smooth="yes"/>
      <point x="243" y="517"/>
      <point x="281" y="588"/>
      <point x="366" y="588" type="curve" smooth="yes"/>
      <point x="449" y="588"/>
      <point x="502" y="580"/>
      <point x="564" y="553" type="curve"/>
      <point x="568" y="553" type="line"/>
      <point x="573" y="572"/>
      <point x="575" y="587"/>
      <point x="575" y="605" type="curve" smooth="yes"/>
      <point x="575" y="632"/>
      <point x="568" y="651"/>
      <point x="552" y="667" type="curve" smooth="yes"/>
      <point x="527" y="692"/>
      <point x="475" y="710"/>
      <point x="377" y="710" type="curve" smooth="yes"/>
    </contour>
  </outline>
</glyph>
<glyph name="onesuperior" format="1">
  <advance width="600"/>
  <unicode hex="00B9"/>
  <outline>
    <contour>
      <point x="361" y="422" type="curve"/>
      <point x="361" y="507"/>
      <point x="361" y="594"/>
      <point x="361" y="676" type="curve" smooth="yes"/>
      <point x="361" y="702"/>
      <point x="327" y="710"/>
      <point x="276" y="710" type="curve" smooth="yes"/>
      <point x="272" y="710" type="line"/>
      <point x="272" y="646"/>
      <point x="272" y="579"/>
      <point x="272" y="516" type="curve" smooth="yes"/>
      <point x="272" y="443"/>
      <point x="308" y="422"/>
    </contour>
    <contour>
      <point x="163" y="463" type="line"/>
      <point x="163" y="459"/>
      <point x="163" y="455"/>
      <point x="163" y="450" type="curve" smooth="yes"/>
      <point x="163" y="382"/>
      <point x="179" y="366"/>
      <point x="232" y="366" type="curve" smooth="yes"/>
      <point x="438" y="366" type="line"/>
      <point x="441" y="376"/>
      <point x="442" y="391"/>
      <point x="442" y="405" type="curve" smooth="yes"/>
      <point x="442" y="448"/>
      <point x="425" y="463"/>
      <point x="381" y="463" type="curve" smooth="yes"/>
    </contour>
    <contour>
      <point x="205" y="534" type="curve" smooth="yes"/>
      <point x="249" y="534"/>
      <point x="313" y="631"/>
      <point x="313" y="664" type="curve" smooth="yes"/>
      <point x="313" y="688"/>
      <point x="314" y="710"/>
      <point x="273" y="710" type="curve"/>
      <point x="265" y="710" type="line"/>
      <point x="238" y="668"/>
      <point x="210" y="642"/>
      <point x="168" y="620" type="curve"/>
      <point x="168" y="602" type="line" smooth="yes"/>
      <point x="168" y="560"/>
      <point x="183" y="534"/>
    </contour>
  </outline>
</glyph>
<glyph name="guillemotright" format="1">
  <advance width="600"/>
  <unicode hex="00BB"/>
  <outline>
    <contour>
      <point x="270" y="93" type="line"/>
      <point x="297" y="85"/>
      <point x="313" y="81"/>
      <point x="344" y="81" type="curve" smooth="yes"/>
      <point x="379" y="81"/>
      <point x="396" y="86"/>
      <point x="416" y="100" type="curve" smooth="yes"/>
      <point x="479" y="147"/>
      <point x="521" y="197"/>
      <point x="567" y="275" type="curve"/>
      <point x="567" y="295" type="line"/>
      <point x="567" y="315"/>
      <point x="550" y="338"/>
      <point x="485" y="338" type="curve"/>
      <point x="433" y="239"/>
      <point x="382" y="180"/>
      <point x="270" y="97" type="curve"/>
    </contour>
    <contour>
      <point x="270" y="503" type="line"/>
      <point x="382" y="417"/>
      <point x="443" y="352"/>
      <point x="481" y="264" type="curve"/>
      <point x="553" y="275"/>
      <point x="567" y="280"/>
      <point x="567" y="291" type="curve"/>
      <point x="567" y="299" type="line" smooth="yes"/>
      <point x="567" y="324"/>
      <point x="561" y="342"/>
      <point x="538" y="377" type="curve" smooth="yes"/>
      <point x="490" y="446"/>
      <point x="454" y="479"/>
      <point x="423" y="498" type="curve"/>
      <point x="399" y="514"/>
      <point x="381" y="519"/>
      <point x="342" y="519" type="curve" smooth="yes"/>
      <point x="308" y="519"/>
      <point x="294" y="515"/>
      <point x="270" y="507" type="curve"/>
    </contour>
    <contour>
      <point x="38" y="93" type="line"/>
      <point x="65" y="85"/>
      <point x="81" y="81"/>
      <point x="113" y="81" type="curve" smooth="yes"/>
      <point x="147" y="81"/>
      <point x="165" y="86"/>
      <point x="184" y="100" type="curve" smooth="yes"/>
      <point x="247" y="147"/>
      <point x="289" y="197"/>
      <point x="336" y="275" type="curve"/>
      <point x="336" y="295" type="line"/>
      <point x="336" y="315"/>
      <point x="318" y="338"/>
      <point x="253" y="338" type="curve"/>
      <point x="202" y="239"/>
      <point x="151" y="180"/>
      <point x="38" y="97" type="curve"/>
    </contour>
    <contour>
      <point x="38" y="503" type="line"/>
      <point x="150" y="417"/>
      <point x="212" y="352"/>
      <point x="249" y="264" type="curve"/>
      <point x="321" y="275"/>
      <point x="336" y="280"/>
      <point x="336" y="291" type="curve"/>
      <point x="336" y="299" type="line" smooth="yes"/>
      <point x="336" y="324"/>
      <point x="330" y="342"/>
      <point x="307" y="377" type="curve" smooth="yes"/>
      <point x="259" y="446"/>
      <point x="223" y="479"/>
      <point x="192" y="498" type="curve"/>
      <point x="167" y="514"/>
      <point x="149" y="519"/>
      <point x="111" y="519" type="curve" smooth="yes"/>
      <point x="77" y="519"/>
      <point x="62" y="515"/>
      <point x="38" y="507" type="curve"/>
    </contour>
  </outline>
</glyph>
<glyph name="onehalf" format="1">
  <advance width="600"/>
  <unicode hex="00BD"/>
  <outline>
    <contour>
      <point x="217" y="422" type="curve"/>
      <point x="217" y="507"/>
      <point x="217" y="594"/>
      <point x="217" y="676" type="curve" smooth="yes"/>
      <point x="217" y="702"/>
      <point x="183" y="710"/>
      <point x="132" y="710" type="curve" smooth="yes"/>
      <point x="128" y="710" type="line"/>
      <point x="128" y="646"/>
      <point x="128" y="579"/>
      <point x="128" y="516" type="curve" smooth="yes"/>
      <point x="128" y="443"/>
      <point x="164" y="422"/>
    </contour>
    <contour>
      <point x="19" y="463" type="line"/>
      <point x="19" y="459"/>
      <point x="19" y="455"/>
      <point x="19" y="450" type="curve" smooth="yes"/>
      <point x="19" y="382"/>
      <point x="35" y="366"/>
      <point x="87" y="366" type="curve" smooth="yes"/>
      <point x="294" y="366" type="line"/>
      <point x="296" y="376"/>
      <point x="298" y="391"/>
      <point x="298" y="405" type="curve" smooth="yes"/>
      <point x="298" y="448"/>
      <point x="281" y="463"/>
      <point x="237" y="463" type="curve" smooth="yes"/>
    </contour>
    <contour>
      <point x="61" y="534" type="curve" smooth="yes"/>
      <point x="105" y="534"/>
      <point x="169" y="631"/>
      <point x="169" y="664" type="curve" smooth="yes"/>
      <point x="169" y="688"/>
      <point x="169" y="710"/>
      <point x="129" y="710" type="curve"/>
      <point x="120" y="710" type="line"/>
      <point x="94" y="668"/>
      <point x="66" y="642"/>
      <point x="24" y="620" type="curve"/>
      <point x="24" y="602" type="line" smooth="yes"/>
      <point x="24" y="560"/>
      <point x="39" y="534"/>
    </contour>
    <contour>
      <point x="424" y="252" type="curve" smooth="yes"/>
      <point x="477" y="252"/>
      <point x="502" y="239"/>
      <point x="527" y="208" type="curve"/>
      <point x="566" y="220"/>
      <point x="574" y="235"/>
      <point x="574" y="247" type="curve" smooth="yes"/>
      <point x="574" y="294"/>
      <point x="547" y="342"/>
      <point x="435" y="342" type="curve" smooth="yes"/>
      <point x="376" y="342"/>
      <point x="334" y="331"/>
      <point x="316" y="313" type="curve" smooth="yes"/>
      <point x="303" y="299"/>
      <point x="300" y="280"/>
      <point x="300" y="256" type="curve" smooth="yes"/>
      <point x="300" y="241"/>
      <point x="301" y="230"/>
      <point x="304" y="220" type="curve"/>
      <point x="306" y="220" type="line"/>
      <point x="347" y="244"/>
      <point x="380" y="252"/>
    </contour>
    <contour>
      <point x="463" y="272" type="curve"/>
      <point x="470" y="259"/>
      <point x="471" y="250"/>
      <point x="471" y="238" type="curve" smooth="yes"/>
      <point x="471" y="224"/>
      <point x="461" y="217"/>
      <point x="400" y="194" type="curve" smooth="yes"/>
      <point x="306" y="160"/>
      <point x="291" y="112"/>
      <point x="291" y="61" type="curve" smooth="yes"/>
      <point x="291" y="41"/>
      <point x="300" y="43"/>
      <point x="349" y="43" type="curve"/>
      <point x="349" y="90"/>
      <point x="362" y="121"/>
      <point x="449" y="142" type="curve" smooth="yes"/>
      <point x="545" y="165"/>
      <point x="574" y="195"/>
      <point x="574" y="245" type="curve" smooth="yes"/>
      <point x="574" y="247" type="line" smooth="yes"/>
      <point x="574" y="270"/>
      <point x="547" y="284"/>
    </contour>
    <contour>
      <point x="575" y="0" type="line"/>
      <point x="578" y="13"/>
      <point x="580" y="27"/>
      <point x="580" y="40" type="curve" smooth="yes"/>
      <point x="580" y="87"/>
      <point x="565" y="101"/>
      <point x="518" y="101" type="curve" smooth="yes"/>
      <point x="508" y="101" type="line" smooth="yes"/>
      <point x="442" y="101"/>
      <point x="363" y="94"/>
      <point x="291" y="61" type="curve"/>
      <point x="291" y="60"/>
      <point x="291" y="59"/>
      <point x="291" y="58" type="curve" smooth="yes"/>
      <point x="291" y="27"/>
      <point x="309" y="0"/>
      <point x="332" y="0" type="curve" smooth="yes"/>
    </contour>
    <contour>
      <point x="350" y="412" type="curve"/>
      <point x="365" y="403"/>
      <point x="385" y="399"/>
      <point x="410" y="399" type="curve" smooth="yes"/>
      <point x="440" y="399"/>
      <point x="452" y="404"/>
      <point x="472" y="424" type="curve" smooth="yes"/>
      <point x="537" y="489"/>
      <point x="571" y="581"/>
      <point x="571" y="654" type="curve" smooth="yes"/>
      <point x="571" y="691"/>
      <point x="544" y="712"/>
      <point x="491" y="712" type="curve" smooth="yes"/>
      <point x="468" y="712"/>
      <point x="457" y="711"/>
      <point x="441" y="706" type="curve"/>
      <point x="431" y="601"/>
      <point x="409" y="502"/>
    </contour>
    <contour>
      <point x="250" y="288" type="curve"/>
      <point x="235" y="297"/>
      <point x="215" y="301"/>
      <point x="190" y="301" type="curve" smooth="yes"/>
      <point x="160" y="301"/>
      <point x="148" y="296"/>
      <point x="128" y="276" type="curve" smooth="yes"/>
      <point x="63" y="211"/>
      <point x="29" y="119"/>
      <point x="29" y="46" type="curve" smooth="yes"/>
      <point x="29" y="9"/>
      <point x="56" y="-12"/>
      <point x="109" y="-12" type="curve" smooth="yes"/>
      <point x="132" y="-12"/>
      <point x="143" y="-11"/>
      <point x="159" y="-6" type="curve"/>
      <point x="169" y="98"/>
      <point x="192" y="198"/>
    </contour>
  </outline>
</glyph>
<glyph name="questiondown" format="1">
  <advance width="600"/>
  <unicode hex="00BF"/>
  <outline>
    <contour>
      <point x="313" y="-185" type="curve" smooth="yes"/>
      <point x="396" y="-185"/>
      <point x="466" y="-164"/>
      <point x="500" y="-131" type="curve" smooth="yes"/>
      <point x="523" y="-108"/>
      <point x="535" y="-72"/>
      <point x="535" y="-32" type="curve" smooth="yes"/>
      <point x="535" y="-7"/>
      <point x="531" y="10"/>
      <point x="522" y="28" type="curve"/>
      <point x="518" y="28" type="line"/>
      <point x="462" y="-24"/>
      <point x="396" y="-52"/>
      <point x="308" y="-52" type="curve" smooth="yes"/>
      <point x="219" y="-52"/>
      <point x="185" y="-26"/>
      <point x="185" y="11" type="curve" smooth="yes"/>
      <point x="185" y="36"/>
      <point x="188" y="52"/>
      <point x="193" y="71" type="curve"/>
      <point x="123" y="77"/>
      <point x="88" y="38"/>
      <point x="88" y="2" type="curve" smooth="yes"/>
      <point x="88" y="-95"/>
      <point x="159" y="-185"/>
    </contour>
    <contour>
      <point x="259" y="-109" type="curve"/>
      <point x="231" y="-68"/>
      <point x="222" y="-48"/>
      <point x="222" y="-9" type="curve" smooth="yes"/>
      <point x="222" y="25"/>
      <point x="231" y="53"/>
      <point x="288" y="94" type="curve" smooth="yes"/>
      <point x="311" y="110" type="line" smooth="yes"/>
      <point x="380" y="158"/>
      <point x="399" y="187"/>
      <point x="399" y="216" type="curve" smooth="yes"/>
      <point x="399" y="220" type="line" smooth="yes"/>
      <point x="399" y="251"/>
      <point x="362" y="286"/>
      <point x="289" y="286" type="curve" smooth="yes"/>
      <point x="281" y="286" type="line"/>
      <point x="281" y="281" type="line" smooth="yes"/>
      <point x="281" y="252"/>
      <point x="270" y="229"/>
      <point x="228" y="201" type="curve" smooth="yes"/>
      <point x="200" y="184" type="line" smooth="yes"/>
      <point x="119" y="133"/>
      <point x="88" y="70"/>
      <point x="88" y="6" type="curve" smooth="yes"/>
      <point x="88" y="2" type="line" smooth="yes"/>
      <point x="88" y="-64"/>
      <point x="161" y="-143"/>
    </contour>
    <contour>
      <point x="241" y="538" type="curve"/>
      <point x="241" y="429" type="line" smooth="yes"/>
      <point x="241" y="371"/>
      <point x="302" y="359"/>
      <point x="361" y="359" type="curve" smooth="yes"/>
      <point x="384" y="359"/>
      <point x="412" y="362"/>
      <point x="435" y="367" type="curve"/>
      <point x="435" y="476" type="line" smooth="yes"/>
      <point x="435" y="534"/>
      <point x="374" y="545"/>
      <point x="314" y="545" type="curve" smooth="yes"/>
      <point x="292" y="545"/>
      <point x="264" y="542"/>
    </contour>
  </outline>
</glyph>
<glyph name="Acircumflex" format="1">
  <advance width="600"/>
  <unicode hex="00C2"/>
  <outline>
    <contour>
      <point x="196" y="-7" type="curve"/>
      <point x="213" y="378"/>
      <point x="239" y="503"/>
      <point x="333" y="606" type="curve"/>
      <point x="360" y="634"/>
      <point x="340" y="710"/>
      <point x="272" y="710" type="curve"/>
      <point x="244" y="710" type="line"/>
      <point x="128" y="598"/>
      <point x="55" y="330"/>
      <point x="55" y="49" type="curve"/>
      <point x="55" y="6"/>
      <point x="99" y="-10"/>
      <point x="162" y="-10" type="curve" smooth="yes"/>
      <point x="179" y="-10"/>
      <point x="186" y="-9"/>
    </contour>
    <contour>
      <point x="547" y="-6" type="curve"/>
      <point x="538" y="249"/>
      <point x="504" y="448"/>
      <point x="446" y="577" type="curve"/>
      <point x="425" y="624"/>
      <point x="401" y="659"/>
      <point x="374" y="686" type="curve" smooth="yes"/>
      <point x="362" y="699"/>
      <point x="321" y="710"/>
      <point x="272" y="710" type="curve"/>
      <point x="245" y="710"/>
      <point x="212" y="657"/>
      <point x="212" y="623" type="curve"/>
      <point x="222" y="623"/>
      <point x="229" y="623"/>
      <point x="237" y="623" type="curve" smooth="yes"/>
      <point x="260" y="623"/>
      <point x="269" y="620"/>
      <point x="281" y="603" type="curve"/>
      <point x="359" y="501"/>
      <point x="386" y="377"/>
      <point x="400" y="51" type="curve"/>
      <point x="401" y="35"/>
      <point x="403" y="27"/>
      <point x="412" y="18" type="curve" smooth="yes"/>
      <point x="431" y="0"/>
      <point x="471" y="-10"/>
      <point x="509" y="-10" type="curve" smooth="yes"/>
      <point x="525" y="-10"/>
      <point x="536" y="-9"/>
    </contour>
    <contour>
      <point x="29" y="287" type="line"/>
      <point x="29" y="264" type="line" smooth="yes"/>
      <point x="29" y="225"/>
      <point x="36" y="189"/>
      <point x="55" y="170" type="curve" smooth="yes"/>
      <point x="61" y="164"/>
      <point x="64" y="162"/>
      <point x="71" y="162" type="curve"/>
      <point x="433" y="162" type="line"/>
      <point x="433" y="243"/>
      <point x="387" y="287"/>
      <point x="292" y="287" type="curve" smooth="yes"/>
    </contour>
    <contour>
      <point x="193" y="769" type="line"/>
      <point x="224" y="816"/>
      <point x="284" y="860"/>
      <point x="354" y="878" type="curve"/>
      <point x="354" y="924"/>
      <point x="328" y="941"/>
      <point x="286" y="941" type="curve"/>
      <point x="247" y="941" type="line"/>
      <point x="196" y="923"/>
      <point x="145" y="882"/>
      <point x="112" y="845" type="curve" smooth="yes"/>
      <point x="93" y="823"/>
      <point x="86" y="806"/>
      <point x="86" y="800" type="curve" smooth="yes"/>
      <point x="86" y="782"/>
      <point x="138" y="769"/>
      <point x="187" y="769" type="curve"/>
    </contour>
    <contour>
      <point x="527" y="783" type="curve"/>
      <point x="493" y="842"/>
      <point x="455" y="884"/>
      <point x="404" y="914" type="curve" smooth="yes"/>
      <point x="359" y="940"/>
      <point x="330" y="941"/>
      <point x="301" y="941" type="curve" smooth="yes"/>
      <point x="283" y="941" type="line"/>
      <point x="265" y="941"/>
      <point x="251" y="926"/>
      <point x="240" y="876" type="curve"/>
      <point x="317" y="857"/>
      <point x="351" y="833"/>
      <point x="387" y="794" type="curve" smooth="yes"/>
      <point x="402" y="779"/>
      <point x="417" y="770"/>
      <point x="449" y="770" type="curve" smooth="yes"/>
      <point x="481" y="770"/>
      <point x="504" y="773"/>
    </contour>
  </outline>
</glyph>
<glyph name="AE" format="1">
  <advance width="800"/>
  <unicode hex="00C6"/>
  <outline>
    <contour>
      <point x="156" y="-3" type="curve"/>
      <point x="168" y="359"/>
      <point x="276" y="537"/>
      <point x="367" y="629" type="curve" smooth="yes"/>
      <point x="391" y="653"/>
      <point x="380" y="700"/>
      <point x="313" y="700" type="curve"/>
      <point x="271" y="700" type="line"/>
      <point x="159" y="564"/>
      <point x="36" y="330"/>
      <point x="36" y="49" type="curve" smooth="yes"/>
      <point x="36" y="6"/>
      <point x="58" y="-10"/>
      <point x="110" y="-10" type="curve" smooth="yes"/>
      <point x="128" y="-10"/>
      <point x="142" y="-7"/>
    </contour>
    <contour>
      <point x="503" y="7" type="curve"/>
      <point x="503" y="272"/>
      <point x="489" y="452"/>
      <point x="449" y="613" type="curve" smooth="yes"/>
      <point x="430" y="680"/>
      <point x="398" y="700"/>
      <point x="312" y="700" type="curve"/>
      <point x="289" y="700"/>
      <point x="268" y="645"/>
      <point x="268" y="567" type="curve"/>
      <point x="322" y="567" type="line"/>
      <point x="335" y="567"/>
      <point x="340" y="564"/>
      <point x="345" y="531" type="curve" smooth="yes"/>
      <point x="368" y="409"/>
      <point x="377" y="209"/>
      <point x="377" y="47" type="curve" smooth="yes"/>
      <point x="377" y="11"/>
      <point x="419" y="0"/>
      <point x="459" y="0" type="curve" smooth="yes"/>
      <point x="478" y="0"/>
      <point x="488" y="2"/>
    </contour>
    <contour>
      <point x="18" y="303" type="line"/>
      <point x="18" y="281" type="line"/>
      <point x="18" y="213"/>
      <point x="31" y="179"/>
      <point x="60" y="179" type="curve"/>
      <point x="400" y="179" type="line"/>
      <point x="400" y="195" type="line"/>
      <point x="400" y="265"/>
      <point x="363" y="303"/>
      <point x="300" y="303" type="curve"/>
    </contour>
    <contour>
      <point x="300" y="700" type="line"/>
      <point x="300" y="678" type="line"/>
      <point x="300" y="604"/>
      <point x="346" y="567"/>
      <point x="368" y="567" type="curve" smooth="yes"/>
      <point x="778" y="567" type="line"/>
      <point x="782" y="580"/>
      <point x="784" y="596"/>
      <point x="784" y="615" type="curve" smooth="yes"/>
      <point x="784" y="634"/>
      <point x="780" y="672"/>
      <point x="762" y="689" type="curve" smooth="yes"/>
      <point x="754" y="698"/>
      <point x="747" y="700"/>
      <point x="732" y="700" type="curve"/>
    </contour>
    <contour>
      <point x="443" y="364" type="line"/>
      <point x="443" y="348" type="line"/>
      <point x="443" y="279"/>
      <point x="454" y="245"/>
      <point x="483" y="245" type="curve" smooth="yes"/>
      <point x="751" y="245" type="line"/>
      <point x="754" y="256"/>
      <point x="756" y="271"/>
      <point x="756" y="285" type="curve" smooth="yes"/>
      <point x="756" y="327"/>
      <point x="742" y="364"/>
      <point x="701" y="364" type="curve"/>
    </contour>
    <contour>
      <point x="393" y="133" type="line"/>
      <point x="393" y="116" type="line" smooth="yes"/>
      <point x="393" y="49"/>
      <point x="416" y="0"/>
      <point x="459" y="0" type="curve" smooth="yes"/>
      <point x="779" y="0" type="line"/>
      <point x="782" y="13"/>
      <point x="784" y="30"/>
      <point x="784" y="50" type="curve" smooth="yes"/>
      <point x="784" y="109"/>
      <point x="768" y="133"/>
      <point x="729" y="133" type="curve" smooth="yes"/>
    </contour>
    <contour>
      <point x="359" y="711" type="move" name="top"/>
    </contour>
  </outline>
</glyph>
<glyph name="Eacute" format="1">
  <advance width="550"/>
  <unicode hex="00C9"/>
  <outline>
    <contour>
      <point x="29" y="700" type="line"/>
      <point x="29" y="693"/>
      <point x="29" y="685"/>
      <point x="29" y="678" type="curve" smooth="yes"/>
      <point x="29" y="635"/>
      <point x="35" y="590"/>
      <point x="50" y="575" type="curve" smooth="yes"/>
      <point x="56" y="569"/>
      <point x="59" y="567"/>
      <point x="66" y="567" type="curve" smooth="yes"/>
      <point x="502" y="567" type="line"/>
      <point x="506" y="580"/>
      <point x="508" y="596"/>
      <point x="508" y="615" type="curve" smooth="yes"/>
      <point x="508" y="634"/>
      <point x="504" y="672"/>
      <point x="487" y="689" type="curve" smooth="yes"/>
      <point x="478" y="698"/>
      <point x="471" y="700"/>
      <point x="456" y="700" type="curve" smooth="yes"/>
    </contour>
    <contour>
      <point x="220" y="73" type="curve"/>
      <point x="220" y="498" type="line" smooth="yes"/>
      <point x="220" y="574"/>
      <point x="185" y="600"/>
      <point x="79" y="600" type="curve"/>
      <point x="79" y="123" type="line"/>
      <point x="79" y="84"/>
      <point x="145" y="73"/>
    </contour>
    <contour>
      <point x="79" y="133" type="line"/>
      <point x="79" y="116" type="line" smooth="yes"/>
      <point x="79" y="64"/>
      <point x="131" y="0"/>
      <point x="174" y="0" type="curve" smooth="yes"/>
      <point x="504" y="0" type="line"/>
      <point x="507" y="13"/>
      <point x="509" y="30"/>
      <point x="509" y="50" type="curve" smooth="yes"/>
      <point x="509" y="109"/>
      <point x="493" y="133"/>
      <point x="454" y="133" type="curve" smooth="yes"/>
    </contour>
    <contour>
      <point x="141" y="391" type="line"/>
      <point x="141" y="311"/>
      <point x="152" y="275"/>
      <point x="190" y="275" type="curve" smooth="yes"/>
      <point x="453" y="275" type="line"/>
      <point x="453" y="282"/>
      <point x="453" y="290"/>
      <point x="453" y="298" type="curve" smooth="yes"/>
      <point x="453" y="321"/>
      <point x="442" y="354"/>
      <point x="418" y="378" type="curve" smooth="yes"/>
      <point x="406" y="390"/>
      <point x="403" y="391"/>
      <point x="386" y="391" type="curve" smooth="yes"/>
    </contour>
    <contour>
      <point x="275" y="761" type="curve" smooth="yes"/>
      <point x="308" y="761"/>
      <point x="326" y="766"/>
      <point x="341" y="774" type="curve" smooth="yes"/>
      <point x="391" y="801"/>
      <point x="419" y="831"/>
      <point x="440" y="882" type="curve" smooth="yes"/>
      <point x="446" y="895"/>
      <point x="441" y="909"/>
      <point x="427" y="915" type="curve" smooth="yes"/>
      <point x="391" y="927"/>
      <point x="364" y="932"/>
      <point x="317" y="932" type="curve"/>
      <point x="297" y="868"/>
      <point x="257" y="824"/>
      <point x="196" y="774" type="curve"/>
      <point x="227" y="764"/>
      <point x="247" y="761"/>
    </contour>
  </outline>
</glyph>
<glyph name="Ecircumflex" format="1">
  <advance width="550"/>
  <unicode hex="00CA"/>
  <outline>
    <contour>
      <point x="29" y="700" type="line"/>
      <point x="29" y="693"/>
      <point x="29" y="685"/>
      <point x="29" y="678" type="curve" smooth="yes"/>
      <point x="29" y="635"/>
      <point x="35" y="590"/>
      <point x="50" y="575" type="curve" smooth="yes"/>
      <point x="56" y="569"/>
      <point x="59" y="567"/>
      <point x="66" y="567" type="curve" smooth="yes"/>
      <point x="502" y="567" type="line"/>
      <point x="506" y="580"/>
      <point x="508" y="596"/>
      <point x="508" y="615" type="curve" smooth="yes"/>
      <point x="508" y="634"/>
      <point x="504" y="672"/>
      <point x="487" y="689" type="curve" smooth="yes"/>
      <point x="478" y="698"/>
      <point x="471" y="700"/>
      <point x="456" y="700" type="curve" smooth="yes"/>
    </contour>
    <contour>
      <point x="220" y="73" type="curve"/>
      <point x="220" y="498" type="line" smooth="yes"/>
      <point x="220" y="574"/>
      <point x="185" y="600"/>
      <point x="79" y="600" type="curve"/>
      <point x="79" y="123" type="line"/>
      <point x="79" y="84"/>
      <point x="145" y="73"/>
    </contour>
    <contour>
      <point x="79" y="133" type="line"/>
      <point x="79" y="116" type="line" smooth="yes"/>
      <point x="79" y="64"/>
      <point x="131" y="0"/>
      <point x="174" y="0" type="curve" smooth="yes"/>
      <point x="504" y="0" type="line"/>
      <point x="507" y="13"/>
      <point x="509" y="30"/>
      <point x="509" y="50" type="curve" smooth="yes"/>
      <point x="509" y="109"/>
      <point x="493" y="133"/>
      <point x="454" y="133" type="curve" smooth="yes"/>
    </contour>
    <contour>
      <point x="141" y="391" type="line"/>
      <point x="141" y="311"/>
      <point x="152" y="275"/>
      <point x="190" y="275" type="curve" smooth="yes"/>
      <point x="453" y="275" type="line"/>
      <point x="453" y="282"/>
      <point x="453" y="290"/>
      <point x="453" y="298" type="curve" smooth="yes"/>
      <point x="453" y="321"/>
      <point x="442" y="354"/>
      <point x="418" y="378" type="curve" smooth="yes"/>
      <point x="406" y="390"/>
      <point x="403" y="391"/>
      <point x="386" y="391" type="curve" smooth="yes"/>
    </contour>
    <contour>
      <point x="162" y="769" type="line"/>
      <point x="194" y="816"/>
      <point x="253" y="860"/>
      <point x="324" y="878" type="curve"/>
      <point x="324" y="924"/>
      <point x="297" y="941"/>
      <point x="255" y="941" type="curve"/>
      <point x="216" y="941" type="line"/>
      <point x="165" y="923"/>
      <point x="114" y="883"/>
      <point x="81" y="845" type="curve" smooth="yes"/>
      <point x="63" y="823"/>
      <point x="56" y="806"/>
      <point x="56" y="800" type="curve" smooth="yes"/>
      <point x="56" y="782"/>
      <point x="107" y="769"/>
      <point x="156" y="769" type="curve"/>
    </contour>
    <contour>
      <point x="497" y="783" type="curve"/>
      <point x="462" y="842"/>
      <point x="424" y="884"/>
      <point x="373" y="914" type="curve" smooth="yes"/>
      <point x="328" y="940"/>
      <point x="299" y="941"/>
      <point x="270" y="941" type="curve" smooth="yes"/>
      <point x="252" y="941" type="line"/>
      <point x="234" y="941"/>
      <point x="220" y="926"/>
      <point x="209" y="876" type="curve"/>
      <point x="286" y="857"/>
      <point x="321" y="834"/>
      <point x="356" y="795" type="curve" smooth="yes"/>
      <point x="371" y="779"/>
      <point x="386" y="770"/>
      <point x="418" y="770" type="curve" smooth="yes"/>
      <point x="451" y="770"/>
      <point x="473" y="774"/>
    </contour>
  </outline>
</glyph>
